Amiamie-BlackItalicRound.ufo
<glyph name="exclam" format="2">
	<advance width="280"/>
	<unicode hex="0021"/>
	<note>
		exclam
	</note>
	<outline>
		<contour>
			<point x="200" y="223"/>
			<point x="207" y="254" type="curve" smooth="yes"/>
			<point x="290" y="604" type="line" smooth="yes"/>
			<point x="291" y="609"/>
			<point x="292" y="615"/>
			<point x="292" y="622" type="curve" smooth="yes"/>
			<point x="292" y="664"/>
			<point x="258" y="699"/>
			<point x="215" y="699" type="curve" smooth="yes"/>
			<point x="177" y="699"/>
			<point x="146" y="672"/>
			<point x="139" y="636" type="curve" smooth="yes"/>
			<point x="73" y="283" type="line" smooth="yes"/>
			<point x="66" y="243"/>
			<point x="95" y="201"/>
			<point x="140" y="201" type="curve" smooth="yes"/>
			<point x="173" y="201"/>
		</contour>
		<contour>
			<point x="59" y="-14"/>
			<point x="108" y="-14" type="curve" smooth="yes"/>
			<point x="143" y="-14"/>
			<point x="166" y="13"/>
			<point x="178" y="70" type="curve" smooth="yes"/>
			<point x="182" y="91" type="line" smooth="yes"/>
			<point x="190" y="131"/>
			<point x="161" y="173"/>
			<point x="116" y="173" type="curve" smooth="yes"/>
			<point x="109" y="173"/>
			<point x="103" y="172"/>
			<point x="97" y="170" type="curve" smooth="yes"/>
			<point x="53" y="158"/>
			<point x="19" y="120"/>
			<point x="19" y="75" type="curve" smooth="yes"/>
			<point x="19" y="26"/>
		</contour>
	</outline>
</glyph>
<glyph name="dollar" format="2">
	<advance width="662"/>
	<unicode hex="0024"/>
	<note>
		dollar
	</note>
	<outline>
		<contour>
			<point x="603" y="188" type="curve" smooth="yes"/>
			<point x="628" y="307"/>
			<point x="571" y="368"/>
			<point x="419" y="419" type="curve"/>
			<point x="451" y="573" type="line"/>
			<point x="470" y="565"/>
			<point x="482" y="552"/>
			<point x="489" y="533" type="curve" smooth="yes"/>
			<point x="501" y="500"/>
			<point x="532" y="476"/>
			<point x="570" y="476" type="curve" smooth="yes"/>
			<point x="617" y="476"/>
			<point x="656" y="514"/>
			<point x="656" y="562" type="curve" smooth="yes"/>
			<point x="656" y="573"/>
			<point x="654" y="586"/>
			<point x="650" y="596" type="curve" smooth="yes"/>
			<point x="625" y="654"/>
			<point x="570" y="691"/>
			<point x="479" y="701" type="curve"/>
			<point x="485" y="730" type="line" smooth="yes"/>
			<point x="491" y="761"/>
			<point x="468" y="789"/>
			<point x="437" y="789" type="curve" smooth="yes"/>
			<point x="413" y="789"/>
			<point x="393" y="772"/>
			<point x="389" y="750" type="curve" smooth="yes"/>
			<point x="379" y="701" type="line"/>
			<point x="263" y="687"/>
			<point x="147" y="622"/>
			<point x="119" y="491" type="curve" smooth="yes"/>
			<point x="95" y="378"/>
			<point x="161" y="323"/>
			<point x="288" y="275" type="curve"/>
			<point x="254" y="115" type="line"/>
			<point x="232" y="123"/>
			<point x="215" y="137"/>
			<point x="206" y="159" type="curve" smooth="yes"/>
			<point x="193" y="191"/>
			<point x="162" y="212"/>
			<point x="126" y="212" type="curve" smooth="yes"/>
			<point x="78" y="212"/>
			<point x="39" y="173"/>
			<point x="39" y="125" type="curve" smooth="yes"/>
			<point x="39" y="111"/>
			<point x="40" y="96"/>
			<point x="46" y="84" type="curve" smooth="yes"/>
			<point x="77" y="25"/>
			<point x="141" y="-4"/>
			<point x="227" y="-12" type="curve"/>
			<point x="221" y="-40" type="line" smooth="yes"/>
			<point x="215" y="-71"/>
			<point x="238" y="-99"/>
			<point x="269" y="-99" type="curve" smooth="yes"/>
			<point x="293" y="-99"/>
			<point x="313" y="-82"/>
			<point x="317" y="-60" type="curve" smooth="yes"/>
			<point x="327" y="-12" type="line"/>
			<point x="465" y="1"/>
			<point x="577" y="69"/>
		</contour>
		<contour>
			<point x="286" y="509" type="curve" smooth="yes"/>
			<point x="293" y="543"/>
			<point x="318" y="566"/>
			<point x="352" y="576" type="curve"/>
			<point x="323" y="440" type="line"/>
			<point x="292" y="453"/>
			<point x="278" y="472"/>
		</contour>
		<contour>
			<point x="353" y="112" type="curve"/>
			<point x="383" y="251" type="line"/>
			<point x="426" y="232"/>
			<point x="435" y="209"/>
			<point x="429" y="179" type="curve" smooth="yes"/>
			<point x="420" y="140"/>
			<point x="395" y="120"/>
		</contour>
	</outline>
</glyph>
<glyph name="quotesingle" format="2">
	<advance width="220"/>
	<unicode hex="0027"/>
	<note>
		quotesingle
	</note>
	<outline>
		<contour>
			<point x="203" y="450"/>
			<point x="210" y="475" type="curve" smooth="yes"/>
			<point x="258" y="656" type="line" smooth="yes"/>
			<point x="259" y="661"/>
			<point x="260" y="668"/>
			<point x="260" y="674" type="curve" smooth="yes"/>
			<point x="260" y="713"/>
			<point x="229" y="744"/>
			<point x="190" y="744" type="curve" smooth="yes"/>
			<point x="155" y="744"/>
			<point x="126" y="718"/>
			<point x="121" y="685" type="curve" smooth="yes"/>
			<point x="92" y="500" type="line" smooth="yes"/>
			<point x="87" y="466"/>
			<point x="112" y="430"/>
			<point x="151" y="430" type="curve" smooth="yes"/>
			<point x="179" y="430"/>
		</contour>
	</outline>
</glyph>
<glyph name="parenright" format="2">
	<advance width="400"/>
	<unicode hex="0029"/>
	<note>
		parenright
	</note>
	<outline>
		<contour>
			<point x="167" y="734"/>
			<point x="169" y="730" type="curve" smooth="yes"/>
			<point x="212" y="613"/>
			<point x="222" y="496"/>
			<point x="191" y="350" type="curve" smooth="yes"/>
			<point x="160" y="204"/>
			<point x="100" y="86"/>
			<point x="10" y="-32" type="curve" smooth="yes"/>
			<point x="6" y="-38"/>
			<point x="2" y="-45"/>
			<point x="2" y="-53" type="curve" smooth="yes"/>
			<point x="2" y="-73"/>
			<point x="18" y="-89"/>
			<point x="38" y="-89" type="curve" smooth="yes"/>
			<point x="47" y="-89"/>
			<point x="56" y="-85"/>
			<point x="62" y="-79" type="curve" smooth="yes"/>
			<point x="180" y="34"/>
			<point x="260" y="167"/>
			<point x="299" y="350" type="curve" smooth="yes"/>
			<point x="337" y="527"/>
			<point x="316" y="658"/>
			<point x="248" y="768" type="curve" smooth="yes"/>
			<point x="241" y="780"/>
			<point x="226" y="789"/>
			<point x="210" y="789" type="curve" smooth="yes"/>
			<point x="186" y="789"/>
			<point x="167" y="769"/>
			<point x="167" y="745" type="curve" smooth="yes"/>
			<point x="167" y="740"/>
		</contour>
	</outline>
</glyph>
<glyph name="hyphen" format="2">
	<advance width="314"/>
	<unicode hex="002D"/>
	<note>
		hyphen
	</note>
	<outline>
		<contour>
			<point x="76" y="235" type="curve" smooth="yes"/>
			<point x="246" y="235" type="line" smooth="yes"/>
			<point x="272" y="235"/>
			<point x="294" y="256"/>
			<point x="294" y="283" type="curve" smooth="yes"/>
			<point x="294" y="310"/>
			<point x="272" y="331"/>
			<point x="246" y="331" type="curve" smooth="yes"/>
			<point x="76" y="331" type="line" smooth="yes"/>
			<point x="50" y="331"/>
			<point x="28" y="310"/>
			<point x="28" y="283" type="curve" smooth="yes"/>
			<point x="28" y="256"/>
			<point x="50" y="235"/>
		</contour>
	</outline>
</glyph>
<glyph name="slash" format="2">
	<advance width="346"/>
	<unicode hex="002F"/>
	<note>
		slash
	</note>
	<outline>
		<contour>
			<point x="37" y="-30"/>
			<point x="45" y="-15" type="curve" smooth="yes"/>
			<point x="416" y="661" type="line" smooth="yes"/>
			<point x="419" y="667"/>
			<point x="421" y="675"/>
			<point x="421" y="683" type="curve" smooth="yes"/>
			<point x="421" y="708"/>
			<point x="401" y="729"/>
			<point x="375" y="729" type="curve" smooth="yes"/>
			<point x="358" y="729"/>
			<point x="343" y="720"/>
			<point x="335" y="705" type="curve" smooth="yes"/>
			<point x="-36" y="29" type="line" smooth="yes"/>
			<point x="-39" y="23"/>
			<point x="-41" y="15"/>
			<point x="-41" y="7" type="curve" smooth="yes"/>
			<point x="-41" y="-18"/>
			<point x="-21" y="-39"/>
			<point x="5" y="-39" type="curve" smooth="yes"/>
			<point x="22" y="-39"/>
		</contour>
	</outline>
</glyph>
<glyph name="two" format="2">
	<advance width="662"/>
	<unicode hex="0032"/>
	<note>
		two
	</note>
	<outline>
		<contour>
			<point x="489" y="140" type="curve" smooth="yes"/>
			<point x="312" y="140" type="line"/>
			<point x="423" y="229" type="line" smooth="yes"/>
			<point x="584" y="357"/>
			<point x="634" y="419"/>
			<point x="651" y="500" type="curve" smooth="yes"/>
			<point x="678" y="629"/>
			<point x="605" y="706"/>
			<point x="444" y="706" type="curve" smooth="yes"/>
			<point x="302" y="706"/>
			<point x="199" y="646"/>
			<point x="141" y="537" type="curve" smooth="yes"/>
			<point x="117" y="490"/>
			<point x="120" y="444"/>
			<point x="166" y="420" type="curve" smooth="yes"/>
			<point x="183" y="412"/>
			<point x="203" y="407"/>
			<point x="223" y="407" type="curve" smooth="yes"/>
			<point x="242" y="407"/>
			<point x="254" y="417"/>
			<point x="264" y="430" type="curve" smooth="yes"/>
			<point x="286" y="459"/>
			<point x="294" y="485"/>
			<point x="317" y="525" type="curve" smooth="yes"/>
			<point x="338" y="558"/>
			<point x="365" y="574"/>
			<point x="401" y="574" type="curve" smooth="yes"/>
			<point x="450" y="574"/>
			<point x="473" y="545"/>
			<point x="461" y="493" type="curve" smooth="yes"/>
			<point x="447" y="427"/>
			<point x="402" y="379"/>
			<point x="279" y="282" type="curve" smooth="yes"/>
			<point x="20" y="80" type="line" smooth="yes"/>
			<point x="10" y="72"/>
			<point x="3" y="59"/>
			<point x="3" y="44" type="curve" smooth="yes"/>
			<point x="3" y="20"/>
			<point x="23" y="0"/>
			<point x="47" y="0" type="curve" smooth="yes"/>
			<point x="489" y="0" type="line" smooth="yes"/>
			<point x="527" y="0"/>
			<point x="559" y="31"/>
			<point x="559" y="70" type="curve" smooth="yes"/>
			<point x="559" y="109"/>
			<point x="527" y="140"/>
		</contour>
	</outline>
</glyph>
<glyph name="five" format="2">
	<advance width="662"/>
	<unicode hex="0035"/>
	<note>
		five
	</note>
	<outline>
		<contour>
			<point x="423" y="470" type="curve" smooth="yes"/>
			<point x="406" y="470"/>
			<point x="388" y="469"/>
			<point x="370" y="465" type="curve" smooth="yes"/>
			<point x="325" y="456"/>
			<point x="300" y="433"/>
			<point x="274" y="399" type="curve"/>
			<point x="329" y="550" type="line"/>
			<point x="593" y="550" type="line" smooth="yes"/>
			<point x="631" y="550"/>
			<point x="663" y="581"/>
			<point x="663" y="620" type="curve" smooth="yes"/>
			<point x="663" y="659"/>
			<point x="631" y="690"/>
			<point x="593" y="690" type="curve" smooth="yes"/>
			<point x="292" y="690" type="line" smooth="yes"/>
			<point x="237" y="690"/>
			<point x="202" y="665"/>
			<point x="184" y="613" type="curve" smooth="yes"/>
			<point x="106" y="381" type="line" smooth="yes"/>
			<point x="103" y="373"/>
			<point x="102" y="363"/>
			<point x="102" y="354" type="curve" smooth="yes"/>
			<point x="102" y="306"/>
			<point x="141" y="267"/>
			<point x="188" y="267" type="curve" smooth="yes"/>
			<point x="216" y="267"/>
			<point x="241" y="280"/>
			<point x="257" y="300" type="curve" smooth="yes"/>
			<point x="278" y="327"/>
			<point x="304" y="338"/>
			<point x="339" y="338" type="curve" smooth="yes"/>
			<point x="401" y="338"/>
			<point x="425" y="291"/>
			<point x="411" y="228" type="curve" smooth="yes"/>
			<point x="398" y="166"/>
			<point x="356" y="118"/>
			<point x="289" y="118" type="curve" smooth="yes"/>
			<point x="265" y="118"/>
			<point x="247" y="125"/>
			<point x="236" y="138" type="curve" smooth="yes"/>
			<point x="209" y="173"/>
			<point x="216" y="215"/>
			<point x="173" y="234" type="curve" smooth="yes"/>
			<point x="158" y="240"/>
			<point x="143" y="243"/>
			<point x="126" y="243" type="curve" smooth="yes"/>
			<point x="108" y="243"/>
			<point x="92" y="237"/>
			<point x="79" y="228" type="curve" smooth="yes"/>
			<point x="49" y="208"/>
			<point x="37" y="175"/>
			<point x="43" y="128" type="curve" smooth="yes"/>
			<point x="56" y="29"/>
			<point x="134" y="-14"/>
			<point x="273" y="-14" type="curve" smooth="yes"/>
			<point x="415" y="-14"/>
			<point x="566" y="71"/>
			<point x="600" y="233" type="curve" smooth="yes"/>
			<point x="632" y="384"/>
			<point x="561" y="470"/>
		</contour>
	</outline>
</glyph>
<glyph name="colon" format="2">
	<advance width="266"/>
	<unicode hex="003A"/>
	<note>
		colon
	</note>
	<outline>
		<contour>
			<point x="118" y="347"/>
			<point x="173" y="347" type="curve" smooth="yes"/>
			<point x="204" y="347" type="line" smooth="yes"/>
			<point x="246" y="347"/>
			<point x="281" y="382"/>
			<point x="281" y="424" type="curve" smooth="yes"/>
			<point x="281" y="432"/>
			<point x="282" y="440"/>
			<point x="280" y="448" type="curve" smooth="yes"/>
			<point x="279" y="453"/>
			<point x="279" y="457"/>
			<point x="279" y="461" type="curve" smooth="yes"/>
			<point x="279" y="515"/>
			<point x="236" y="558"/>
			<point x="182" y="558" type="curve" smooth="yes"/>
			<point x="169" y="558"/>
			<point x="157" y="555"/>
			<point x="146" y="550" type="curve" smooth="yes"/>
			<point x="104" y="533"/>
			<point x="72" y="494"/>
			<point x="72" y="448" type="curve" smooth="yes"/>
			<point x="72" y="392"/>
		</contour>
		<contour>
			<point x="41" y="-15"/>
			<point x="96" y="-15" type="curve" smooth="yes"/>
			<point x="127" y="-15" type="line" smooth="yes"/>
			<point x="169" y="-15"/>
			<point x="204" y="20"/>
			<point x="204" y="62" type="curve" smooth="yes"/>
			<point x="204" y="70"/>
			<point x="205" y="78"/>
			<point x="203" y="86" type="curve" smooth="yes"/>
			<point x="202" y="91"/>
			<point x="202" y="95"/>
			<point x="202" y="99" type="curve" smooth="yes"/>
			<point x="202" y="153"/>
			<point x="159" y="196"/>
			<point x="105" y="196" type="curve" smooth="yes"/>
			<point x="92" y="196"/>
			<point x="80" y="193"/>
			<point x="69" y="188" type="curve" smooth="yes"/>
			<point x="27" y="171"/>
			<point x="-5" y="132"/>
			<point x="-5" y="86" type="curve" smooth="yes"/>
			<point x="-5" y="30"/>
		</contour>
	</outline>
</glyph>
<glyph name="semicolon" format="2">
	<advance width="266"/>
	<unicode hex="003B"/>
	<note>
		semicolon
	</note>
	<outline>
		<contour>
			<point x="42" y="-103" type="curve" smooth="yes"/>
			<point x="154" y="80" type="line" smooth="yes"/>
			<point x="183" y="128"/>
			<point x="187" y="185"/>
			<point x="134" y="204" type="curve" smooth="yes"/>
			<point x="121" y="209"/>
			<point x="108" y="211"/>
			<point x="94" y="211" type="curve" smooth="yes"/>
			<point x="47" y="211"/>
			<point x="33" y="170"/>
			<point x="14" y="131" type="curve" smooth="yes"/>
			<point x="-69" y="-42" type="line" smooth="yes"/>
			<point x="-73" y="-51"/>
			<point x="-76" y="-60"/>
			<point x="-76" y="-70" type="curve" smooth="yes"/>
			<point x="-76" y="-105"/>
			<point x="-47" y="-133"/>
			<point x="-12" y="-133" type="curve" smooth="yes"/>
			<point x="11" y="-133"/>
			<point x="31" y="-122"/>
		</contour>
		<contour>
			<point x="119" y="345"/>
			<point x="174" y="345" type="curve" smooth="yes"/>
			<point x="205" y="345" type="line" smooth="yes"/>
			<point x="247" y="345"/>
			<point x="282" y="380"/>
			<point x="282" y="422" type="curve" smooth="yes"/>
			<point x="282" y="430"/>
			<point x="283" y="438"/>
			<point x="281" y="446" type="curve" smooth="yes"/>
			<point x="280" y="451"/>
			<point x="280" y="455"/>
			<point x="280" y="459" type="curve" smooth="yes"/>
			<point x="280" y="513"/>
			<point x="237" y="556"/>
			<point x="183" y="556" type="curve" smooth="yes"/>
			<point x="170" y="556"/>
			<point x="158" y="553"/>
			<point x="147" y="548" type="curve" smooth="yes"/>
			<point x="105" y="531"/>
			<point x="73" y="492"/>
			<point x="73" y="446" type="curve" smooth="yes"/>
			<point x="73" y="390"/>
		</contour>
	</outline>
</glyph>
<glyph name="less" format="2">
	<advance width="662"/>
	<unicode hex="003C"/>
	<note>
		less
	</note>
	<outline>
		<contour>
			<point x="223" y="266" type="line"/>
			<point x="587" y="386" type="line" smooth="yes"/>
			<point x="607" y="393"/>
			<point x="622" y="412"/>
			<point x="622" y="435" type="curve" smooth="yes"/>
			<point x="622" y="463"/>
			<point x="599" y="486"/>
			<point x="571" y="486" type="curve" smooth="yes"/>
			<point x="565" y="486"/>
			<point x="559" y="485"/>
			<point x="554" y="483" type="curve" smooth="yes"/>
			<point x="162" y="347" type="line" smooth="yes"/>
			<point x="126" y="334"/>
			<point x="98" y="299"/>
			<point x="98" y="258" type="curve" smooth="yes"/>
			<point x="98" y="219"/>
			<point x="123" y="185"/>
			<point x="157" y="171" type="curve" smooth="yes"/>
			<point x="468" y="44" type="line" smooth="yes"/>
			<point x="475" y="41"/>
			<point x="483" y="39"/>
			<point x="491" y="39" type="curve" smooth="yes"/>
			<point x="524" y="39"/>
			<point x="550" y="66"/>
			<point x="550" y="99" type="curve" smooth="yes"/>
			<point x="550" y="124"/>
			<point x="534" y="145"/>
			<point x="512" y="154" type="curve" smooth="yes"/>
		</contour>
	</outline>
</glyph>
<glyph name="D" format="2">
	<advance width="749"/>
	<unicode hex="0044"/>
	<note>
		D
	</note>
	<outline>
		<contour>
			<point x="518" y="686" type="curve" smooth="yes"/>
			<point x="484" y="690"/>
			<point x="468" y="690"/>
			<point x="431" y="690" type="curve" smooth="yes"/>
			<point x="256" y="690" type="line" smooth="yes"/>
			<point x="199" y="690"/>
			<point x="164" y="663"/>
			<point x="152" y="606" type="curve" smooth="yes"/>
			<point x="46" y="104" type="line" smooth="yes"/>
			<point x="32" y="39"/>
			<point x="64" y="0"/>
			<point x="130" y="0" type="curve" smooth="yes"/>
			<point x="285" y="0" type="line" smooth="yes"/>
			<point x="322" y="0"/>
			<point x="338" y="0"/>
			<point x="374" y="4" type="curve" smooth="yes"/>
			<point x="537" y="22"/>
			<point x="694" y="138"/>
			<point x="740" y="354" type="curve" smooth="yes"/>
			<point x="786" y="570"/>
			<point x="675" y="668"/>
		</contour>
		<contour>
			<point x="355" y="142" type="curve" smooth="yes"/>
			<point x="331" y="140"/>
			<point x="315" y="140"/>
			<point x="289" y="140" type="curve" smooth="yes"/>
			<point x="233" y="140" type="line"/>
			<point x="321" y="550" type="line"/>
			<point x="377" y="550" type="line" smooth="yes"/>
			<point x="403" y="550"/>
			<point x="419" y="550"/>
			<point x="441" y="548" type="curve" smooth="yes"/>
			<point x="529" y="540"/>
			<point x="577" y="474"/>
			<point x="551" y="351" type="curve" smooth="yes"/>
			<point x="525" y="228"/>
			<point x="447" y="150"/>
		</contour>
	</outline>
</glyph>
<glyph name="F" format="2">
	<advance width="615"/>
	<unicode hex="0046"/>
	<note>
		F
	</note>
	<outline>
		<contour>
			<point x="292" y="416" type="line"/>
			<point x="321" y="550" type="line"/>
			<point x="612" y="550" type="line" smooth="yes"/>
			<point x="650" y="550"/>
			<point x="682" y="581"/>
			<point x="682" y="620" type="curve" smooth="yes"/>
			<point x="682" y="659"/>
			<point x="650" y="690"/>
			<point x="612" y="690" type="curve" smooth="yes"/>
			<point x="256" y="690" type="line" smooth="yes"/>
			<point x="199" y="690"/>
			<point x="164" y="663"/>
			<point x="152" y="606" type="curve" smooth="yes"/>
			<point x="45" y="97" type="line" smooth="yes"/>
			<point x="44" y="92"/>
			<point x="43" y="85"/>
			<point x="43" y="79" type="curve" smooth="yes"/>
			<point x="43" y="30"/>
			<point x="82" y="-9"/>
			<point x="131" y="-9" type="curve" smooth="yes"/>
			<point x="173" y="-9"/>
			<point x="209" y="21"/>
			<point x="217" y="61" type="curve" smooth="yes"/>
			<point x="262" y="276" type="line"/>
			<point x="524" y="276" type="line" smooth="yes"/>
			<point x="562" y="276"/>
			<point x="594" y="307"/>
			<point x="594" y="346" type="curve" smooth="yes"/>
			<point x="594" y="385"/>
			<point x="562" y="416"/>
			<point x="524" y="416" type="curve" smooth="yes"/>
		</contour>
	</outline>
</glyph>
<glyph name="G" format="2">
	<advance width="759"/>
	<unicode hex="0047"/>
	<note>
		G
	</note>
	<outline>
		<contour>
			<point x="629" y="368" type="curve" smooth="yes"/>
			<point x="478" y="368" type="line" smooth="yes"/>
			<point x="440" y="368"/>
			<point x="408" y="337"/>
			<point x="408" y="298" type="curve" smooth="yes"/>
			<point x="408" y="259"/>
			<point x="440" y="228"/>
			<point x="478" y="228" type="curve" smooth="yes"/>
			<point x="535" y="228" type="line"/>
			<point x="494" y="152"/>
			<point x="441" y="118"/>
			<point x="371" y="118" type="curve" smooth="yes"/>
			<point x="286" y="118"/>
			<point x="223" y="177"/>
			<point x="260" y="351" type="curve" smooth="yes"/>
			<point x="292" y="500"/>
			<point x="380" y="572"/>
			<point x="468" y="572" type="curve" smooth="yes"/>
			<point x="515" y="572"/>
			<point x="548" y="557"/>
			<point x="565" y="527" type="curve" smooth="yes"/>
			<point x="588" y="483"/>
			<point x="587" y="442"/>
			<point x="631" y="425" type="curve" smooth="yes"/>
			<point x="644" y="421"/>
			<point x="657" y="418"/>
			<point x="672" y="418" type="curve" smooth="yes"/>
			<point x="690" y="418"/>
			<point x="706" y="423"/>
			<point x="720" y="431" type="curve" smooth="yes"/>
			<point x="752" y="449"/>
			<point x="765" y="482"/>
			<point x="758" y="529" type="curve" smooth="yes"/>
			<point x="744" y="632"/>
			<point x="661" y="704"/>
			<point x="498" y="704" type="curve" smooth="yes"/>
			<point x="309" y="704"/>
			<point x="121" y="580"/>
			<point x="70" y="340" type="curve" smooth="yes"/>
			<point x="21" y="108"/>
			<point x="124" y="-14"/>
			<point x="308" y="-14" type="curve" smooth="yes"/>
			<point x="354" y="-14"/>
			<point x="390" y="-10"/>
			<point x="422" y="2" type="curve" smooth="yes"/>
			<point x="464" y="17"/>
			<point x="485" y="44"/>
			<point x="508" y="83" type="curve" smooth="yes"/>
			<point x="522" y="106" type="line"/>
			<point x="520" y="69" type="line" smooth="yes"/>
			<point x="518" y="29"/>
			<point x="549" y="-9"/>
			<point x="595" y="-9" type="curve" smooth="yes"/>
			<point x="631" y="-9"/>
			<point x="661" y="17"/>
			<point x="668" y="50" type="curve" smooth="yes"/>
			<point x="713" y="264" type="line" smooth="yes"/>
			<point x="727" y="329"/>
			<point x="695" y="368"/>
		</contour>
	</outline>
</glyph>
<glyph name="H" format="2">
	<advance width="770"/>
	<unicode hex="0048"/>
	<note>
		H
	</note>
	<outline>
		<contour>
			<point x="673" y="61" type="curve" smooth="yes"/>
			<point x="785" y="593" type="line" smooth="yes"/>
			<point x="786" y="598"/>
			<point x="787" y="605"/>
			<point x="787" y="611" type="curve" smooth="yes"/>
			<point x="787" y="660"/>
			<point x="748" y="699"/>
			<point x="699" y="699" type="curve" smooth="yes"/>
			<point x="657" y="699"/>
			<point x="621" y="669"/>
			<point x="613" y="629" type="curve" smooth="yes"/>
			<point x="566" y="408" type="line"/>
			<point x="290" y="408" type="line"/>
			<point x="329" y="593" type="line" smooth="yes"/>
			<point x="330" y="599"/>
			<point x="331" y="605"/>
			<point x="331" y="611" type="curve" smooth="yes"/>
			<point x="331" y="660"/>
			<point x="292" y="699"/>
			<point x="243" y="699" type="curve" smooth="yes"/>
			<point x="201" y="699"/>
			<point x="165" y="668"/>
			<point x="157" y="629" type="curve" smooth="yes"/>
			<point x="45" y="97" type="line" smooth="yes"/>
			<point x="44" y="92"/>
			<point x="43" y="85"/>
			<point x="43" y="79" type="curve" smooth="yes"/>
			<point x="43" y="30"/>
			<point x="82" y="-9"/>
			<point x="131" y="-9" type="curve" smooth="yes"/>
			<point x="173" y="-9"/>
			<point x="209" y="21"/>
			<point x="217" y="61" type="curve" smooth="yes"/>
			<point x="261" y="268" type="line"/>
			<point x="537" y="268" type="line"/>
			<point x="501" y="97" type="line" smooth="yes"/>
			<point x="500" y="91"/>
			<point x="499" y="85"/>
			<point x="499" y="79" type="curve" smooth="yes"/>
			<point x="499" y="30"/>
			<point x="538" y="-9"/>
			<point x="587" y="-9" type="curve" smooth="yes"/>
			<point x="629" y="-9"/>
			<point x="665" y="22"/>
		</contour>
	</outline>
</glyph>
<glyph name="I" format="2">
	<advance width="314"/>
	<unicode hex="0049"/>
	<note>
		I
	</note>
	<outline>
		<contour>
			<point x="209" y="22"/>
			<point x="217" y="61" type="curve" smooth="yes"/>
			<point x="329" y="593" type="line" smooth="yes"/>
			<point x="330" y="598"/>
			<point x="331" y="605"/>
			<point x="331" y="611" type="curve" smooth="yes"/>
			<point x="331" y="660"/>
			<point x="292" y="699"/>
			<point x="243" y="699" type="curve" smooth="yes"/>
			<point x="201" y="699"/>
			<point x="165" y="669"/>
			<point x="157" y="629" type="curve" smooth="yes"/>
			<point x="45" y="97" type="line" smooth="yes"/>
			<point x="44" y="92"/>
			<point x="43" y="85"/>
			<point x="43" y="79" type="curve" smooth="yes"/>
			<point x="43" y="30"/>
			<point x="82" y="-9"/>
			<point x="131" y="-9" type="curve" smooth="yes"/>
			<point x="173" y="-9"/>
		</contour>
	</outline>
</glyph>
<glyph name="J" format="2">
	<advance width="638"/>
	<unicode hex="004A"/>
	<note>
		J
	</note>
	<outline>
		<contour>
			<point x="593" y="299" type="curve" smooth="yes"/>
			<point x="655" y="593" type="line" smooth="yes"/>
			<point x="656" y="599"/>
			<point x="657" y="605"/>
			<point x="657" y="611" type="curve" smooth="yes"/>
			<point x="657" y="660"/>
			<point x="618" y="699"/>
			<point x="569" y="699" type="curve" smooth="yes"/>
			<point x="527" y="699"/>
			<point x="491" y="669"/>
			<point x="483" y="629" type="curve" smooth="yes"/>
			<point x="407" y="271" type="line" smooth="yes"/>
			<point x="403" y="250"/>
			<point x="398" y="228"/>
			<point x="391" y="205" type="curve" smooth="yes"/>
			<point x="375" y="150"/>
			<point x="342" y="118"/>
			<point x="292" y="118" type="curve" smooth="yes"/>
			<point x="257" y="118"/>
			<point x="231" y="130"/>
			<point x="223" y="167" type="curve" smooth="yes"/>
			<point x="212" y="215"/>
			<point x="220" y="256"/>
			<point x="179" y="280" type="curve" smooth="yes"/>
			<point x="163" y="290"/>
			<point x="144" y="295"/>
			<point x="123" y="295" type="curve" smooth="yes"/>
			<point x="103" y="295"/>
			<point x="88" y="287"/>
			<point x="75" y="276" type="curve" smooth="yes"/>
			<point x="46" y="249"/>
			<point x="37" y="218"/>
			<point x="36" y="173" type="curve" smooth="yes"/>
			<point x="35" y="58"/>
			<point x="99" y="-14"/>
			<point x="259" y="-14" type="curve" smooth="yes"/>
			<point x="438" y="-14"/>
			<point x="535" y="73"/>
			<point x="568" y="194" type="curve" smooth="yes"/>
			<point x="582" y="245"/>
			<point x="586" y="267"/>
		</contour>
	</outline>
</glyph>
<glyph name="K" format="2">
	<advance width="743"/>
	<unicode hex="004B"/>
	<note>
		K
	</note>
	<outline>
		<contour>
			<point x="594" y="136" type="curve" smooth="yes"/>
			<point x="461" y="365" type="line"/>
			<point x="696" y="573" type="line" smooth="yes"/>
			<point x="761" y="631"/>
			<point x="754" y="690"/>
			<point x="681" y="690" type="curve" smooth="yes"/>
			<point x="633" y="690"/>
			<point x="598" y="677"/>
			<point x="563" y="644" type="curve" smooth="yes"/>
			<point x="286" y="385" type="line"/>
			<point x="330" y="593" type="line" smooth="yes"/>
			<point x="331" y="598"/>
			<point x="331" y="605"/>
			<point x="331" y="611" type="curve" smooth="yes"/>
			<point x="331" y="660"/>
			<point x="292" y="699"/>
			<point x="243" y="699" type="curve" smooth="yes"/>
			<point x="201" y="699"/>
			<point x="165" y="669"/>
			<point x="157" y="629" type="curve" smooth="yes"/>
			<point x="45" y="97" type="line" smooth="yes"/>
			<point x="44" y="92"/>
			<point x="43" y="85"/>
			<point x="43" y="79" type="curve" smooth="yes"/>
			<point x="43" y="30"/>
			<point x="82" y="-9"/>
			<point x="131" y="-9" type="curve" smooth="yes"/>
			<point x="173" y="-9"/>
			<point x="209" y="21"/>
			<point x="217" y="61" type="curve" smooth="yes"/>
			<point x="249" y="212" type="line"/>
			<point x="309" y="266" type="line"/>
			<point x="426" y="43" type="line" smooth="yes"/>
			<point x="442" y="13"/>
			<point x="474" y="-9"/>
			<point x="511" y="-9" type="curve" smooth="yes"/>
			<point x="564" y="-9"/>
			<point x="607" y="34"/>
			<point x="607" y="87" type="curve" smooth="yes"/>
			<point x="607" y="105"/>
			<point x="602" y="121"/>
		</contour>
	</outline>
</glyph>
<glyph name="L" format="2">
	<advance width="628"/>
	<unicode hex="004C"/>
	<note>
		L
	</note>
	<outline>
		<contour>
			<point x="543" y="152"/>
			<point x="501" y="152" type="curve" smooth="yes"/>
			<point x="236" y="152" type="line"/>
			<point x="329" y="593" type="line" smooth="yes"/>
			<point x="330" y="598"/>
			<point x="331" y="605"/>
			<point x="331" y="611" type="curve" smooth="yes"/>
			<point x="331" y="660"/>
			<point x="292" y="699"/>
			<point x="243" y="699" type="curve" smooth="yes"/>
			<point x="201" y="699"/>
			<point x="165" y="668"/>
			<point x="157" y="629" type="curve" smooth="yes"/>
			<point x="46" y="104" type="line" smooth="yes"/>
			<point x="32" y="39"/>
			<point x="64" y="0"/>
			<point x="130" y="0" type="curve" smooth="yes"/>
			<point x="501" y="0" type="line" smooth="yes"/>
			<point x="543" y="0"/>
			<point x="577" y="34"/>
			<point x="577" y="76" type="curve" smooth="yes"/>
			<point x="577" y="118"/>
		</contour>
	</outline>
</glyph>
<glyph name="M" format="2">
	<advance width="923"/>
	<unicode hex="004D"/>
	<note>
		M
	</note>
	<outline>
		<contour>
			<point x="826" y="61" type="curve" smooth="yes"/>
			<point x="937" y="586" type="line" smooth="yes"/>
			<point x="951" y="651"/>
			<point x="919" y="690"/>
			<point x="853" y="690" type="curve" smooth="yes"/>
			<point x="764" y="690" type="line" smooth="yes"/>
			<point x="710" y="690"/>
			<point x="675" y="668"/>
			<point x="653" y="618" type="curve" smooth="yes"/>
			<point x="459" y="175" type="line"/>
			<point x="452" y="596" type="line" smooth="yes"/>
			<point x="451" y="658"/>
			<point x="418" y="690"/>
			<point x="357" y="690" type="curve" smooth="yes"/>
			<point x="256" y="690" type="line" smooth="yes"/>
			<point x="199" y="690"/>
			<point x="164" y="663"/>
			<point x="152" y="606" type="curve" smooth="yes"/>
			<point x="45" y="97" type="line" smooth="yes"/>
			<point x="44" y="92"/>
			<point x="43" y="85"/>
			<point x="43" y="79" type="curve" smooth="yes"/>
			<point x="43" y="30"/>
			<point x="82" y="-9"/>
			<point x="131" y="-9" type="curve" smooth="yes"/>
			<point x="173" y="-9"/>
			<point x="209" y="21"/>
			<point x="217" y="61" type="curve" smooth="yes"/>
			<point x="265" y="290" type="line" smooth="yes"/>
			<point x="278" y="350"/>
			<point x="297" y="439"/>
			<point x="310" y="509" type="curve"/>
			<point x="306" y="439"/>
			<point x="307" y="350"/>
			<point x="310" y="290" type="curve" smooth="yes"/>
			<point x="321" y="99" type="line" smooth="yes"/>
			<point x="324" y="39"/>
			<point x="374" y="-9"/>
			<point x="434" y="-9" type="curve" smooth="yes"/>
			<point x="480" y="-9"/>
			<point x="520" y="18"/>
			<point x="538" y="56" type="curve" smooth="yes"/>
			<point x="648" y="290" type="line" smooth="yes"/>
			<point x="677" y="351"/>
			<point x="716" y="439"/>
			<point x="743" y="509" type="curve"/>
			<point x="726" y="439"/>
			<point x="707" y="350"/>
			<point x="694" y="290" type="curve" smooth="yes"/>
			<point x="653" y="97" type="line" smooth="yes"/>
			<point x="652" y="92"/>
			<point x="652" y="85"/>
			<point x="652" y="79" type="curve" smooth="yes"/>
			<point x="652" y="30"/>
			<point x="691" y="-9"/>
			<point x="740" y="-9" type="curve" smooth="yes"/>
			<point x="782" y="-9"/>
			<point x="818" y="21"/>
		</contour>
	</outline>
</glyph>
<glyph name="N" format="2">
	<advance width="794"/>
	<unicode hex="004E"/>
	<note>
		N
	</note>
	<outline>
		<contour>
			<point x="530" y="0" type="curve" smooth="yes"/>
			<point x="598" y="0" type="line" smooth="yes"/>
			<point x="655" y="0"/>
			<point x="690" y="27"/>
			<point x="702" y="84" type="curve" smooth="yes"/>
			<point x="809" y="593" type="line" smooth="yes"/>
			<point x="810" y="598"/>
			<point x="811" y="605"/>
			<point x="811" y="611" type="curve" smooth="yes"/>
			<point x="811" y="660"/>
			<point x="772" y="699"/>
			<point x="723" y="699" type="curve" smooth="yes"/>
			<point x="681" y="699"/>
			<point x="645" y="669"/>
			<point x="637" y="629" type="curve" smooth="yes"/>
			<point x="588" y="395" type="line" smooth="yes"/>
			<point x="579" y="355"/>
			<point x="565" y="284"/>
			<point x="555" y="214" type="curve"/>
			<point x="424" y="602" type="line" smooth="yes"/>
			<point x="405" y="658"/>
			<point x="351" y="699"/>
			<point x="288" y="699" type="curve" smooth="yes"/>
			<point x="219" y="699"/>
			<point x="162" y="650"/>
			<point x="148" y="585" type="curve" smooth="yes"/>
			<point x="45" y="97" type="line" smooth="yes"/>
			<point x="44" y="92"/>
			<point x="43" y="85"/>
			<point x="43" y="79" type="curve" smooth="yes"/>
			<point x="43" y="30"/>
			<point x="82" y="-9"/>
			<point x="131" y="-9" type="curve" smooth="yes"/>
			<point x="173" y="-9"/>
			<point x="209" y="21"/>
			<point x="217" y="61" type="curve" smooth="yes"/>
			<point x="264" y="285" type="line" smooth="yes"/>
			<point x="273" y="325"/>
			<point x="286" y="386"/>
			<point x="295" y="456" type="curve"/>
			<point x="423" y="77" type="line" smooth="yes"/>
			<point x="441" y="24"/>
			<point x="475" y="0"/>
		</contour>
	</outline>
</glyph>
<glyph name="Q" format="2">
	<advance width="791"/>
	<unicode hex="0051"/>
	<note>
		Q
	</note>
	<outline>
		<contour>
			<point x="643" y="127" type="curve"/>
			<point x="713" y="182"/>
			<point x="759" y="261"/>
			<point x="777" y="345" type="curve" smooth="yes"/>
			<point x="824" y="567"/>
			<point x="716" y="705"/>
			<point x="501" y="705" type="curve" smooth="yes"/>
			<point x="286" y="705"/>
			<point x="118" y="567"/>
			<point x="71" y="345" type="curve" smooth="yes"/>
			<point x="24" y="124"/>
			<point x="133" y="-14"/>
			<point x="348" y="-14" type="curve" smooth="yes"/>
			<point x="374" y="-14"/>
			<point x="397" y="-12"/>
			<point x="420" y="-7" type="curve" smooth="yes"/>
			<point x="449" y="-1"/>
			<point x="467" y="2"/>
			<point x="495" y="2" type="curve" smooth="yes"/>
			<point x="527" y="2"/>
			<point x="551" y="-3"/>
			<point x="583" y="-21" type="curve" smooth="yes"/>
			<point x="594" y="-27"/>
			<point x="607" y="-31"/>
			<point x="622" y="-31" type="curve" smooth="yes"/>
			<point x="665" y="-31"/>
			<point x="701" y="4"/>
			<point x="701" y="48" type="curve" smooth="yes"/>
			<point x="701" y="82"/>
			<point x="679" y="114"/>
			<point x="649" y="125" type="curve" smooth="yes"/>
			<point x="647" y="126"/>
			<point x="645" y="126"/>
		</contour>
		<contour>
			<point x="255" y="345" type="curve" smooth="yes"/>
			<point x="286" y="492"/>
			<point x="368" y="573"/>
			<point x="472" y="573" type="curve" smooth="yes"/>
			<point x="576" y="573"/>
			<point x="624" y="492"/>
			<point x="593" y="345" type="curve" smooth="yes"/>
			<point x="562" y="199"/>
			<point x="480" y="118"/>
			<point x="376" y="118" type="curve" smooth="yes"/>
			<point x="272" y="118"/>
			<point x="224" y="199"/>
		</contour>
	</outline>
</glyph>
<glyph name="R" format="2">
	<advance width="682"/>
	<unicode hex="0052"/>
	<note>
		R
	</note>
	<outline>
		<contour>
			<point x="597" y="168" type="curve" smooth="yes"/>
			<point x="605" y="251"/>
			<point x="590" y="304"/>
			<point x="524" y="330" type="curve"/>
			<point x="622" y="357"/>
			<point x="681" y="415"/>
			<point x="699" y="502" type="curve" smooth="yes"/>
			<point x="725" y="624"/>
			<point x="649" y="673"/>
			<point x="551" y="685" type="curve" smooth="yes"/>
			<point x="515" y="689"/>
			<point x="487" y="690"/>
			<point x="444" y="690" type="curve" smooth="yes"/>
			<point x="256" y="690" type="line" smooth="yes"/>
			<point x="199" y="690"/>
			<point x="164" y="663"/>
			<point x="152" y="606" type="curve" smooth="yes"/>
			<point x="45" y="97" type="line" smooth="yes"/>
			<point x="44" y="92"/>
			<point x="43" y="85"/>
			<point x="43" y="79" type="curve" smooth="yes"/>
			<point x="43" y="30"/>
			<point x="82" y="-9"/>
			<point x="131" y="-9" type="curve" smooth="yes"/>
			<point x="173" y="-9"/>
			<point x="209" y="21"/>
			<point x="217" y="61" type="curve" smooth="yes"/>
			<point x="259" y="262" type="line"/>
			<point x="299" y="262" type="line" smooth="yes"/>
			<point x="319" y="262"/>
			<point x="336" y="262"/>
			<point x="356" y="261" type="curve" smooth="yes"/>
			<point x="402" y="258"/>
			<point x="422" y="214"/>
			<point x="415" y="138" type="curve" smooth="yes"/>
			<point x="413" y="118"/>
			<point x="413" y="100"/>
			<point x="413" y="81" type="curve" smooth="yes"/>
			<point x="413" y="31"/>
			<point x="453" y="-9"/>
			<point x="503" y="-9" type="curve" smooth="yes"/>
			<point x="558" y="-9"/>
			<point x="597" y="37"/>
			<point x="595" y="86" type="curve" smooth="yes"/>
			<point x="593" y="110"/>
			<point x="594" y="137"/>
		</contour>
		<contour>
			<point x="352" y="392" type="curve" smooth="yes"/>
			<point x="287" y="392" type="line"/>
			<point x="321" y="550" type="line"/>
			<point x="391" y="550" type="line" smooth="yes"/>
			<point x="410" y="550"/>
			<point x="426" y="550"/>
			<point x="438" y="549" type="curve" smooth="yes"/>
			<point x="484" y="545"/>
			<point x="517" y="529"/>
			<point x="505" y="471" type="curve" smooth="yes"/>
			<point x="492" y="413"/>
			<point x="447" y="397"/>
			<point x="400" y="393" type="curve" smooth="yes"/>
			<point x="387" y="392"/>
			<point x="371" y="392"/>
		</contour>
	</outline>
</glyph>
<glyph name="S" format="2">
	<advance width="626"/>
	<unicode hex="0053"/>
	<note>
		S
	</note>
	<outline>
		<contour>
			<point x="415" y="704" type="curve" smooth="yes"/>
			<point x="278" y="704"/>
			<point x="138" y="629"/>
			<point x="110" y="496" type="curve" smooth="yes"/>
			<point x="81" y="358"/>
			<point x="162" y="309"/>
			<point x="311" y="270" type="curve" smooth="yes"/>
			<point x="392" y="249"/>
			<point x="411" y="218"/>
			<point x="403" y="182" type="curve" smooth="yes"/>
			<point x="395" y="144"/>
			<point x="352" y="118"/>
			<point x="302" y="118" type="curve" smooth="yes"/>
			<point x="263" y="118"/>
			<point x="228" y="132"/>
			<point x="212" y="168" type="curve" smooth="yes"/>
			<point x="198" y="200"/>
			<point x="165" y="223"/>
			<point x="127" y="223" type="curve" smooth="yes"/>
			<point x="76" y="223"/>
			<point x="35" y="181"/>
			<point x="35" y="130" type="curve" smooth="yes"/>
			<point x="35" y="113"/>
			<point x="36" y="94"/>
			<point x="44" y="81" type="curve" smooth="yes"/>
			<point x="82" y="15"/>
			<point x="165" y="-14"/>
			<point x="279" y="-14" type="curve" smooth="yes"/>
			<point x="418" y="-14"/>
			<point x="565" y="56"/>
			<point x="594" y="194" type="curve" smooth="yes"/>
			<point x="616" y="300"/>
			<point x="571" y="376"/>
			<point x="426" y="412" type="curve" smooth="yes"/>
			<point x="318" y="439"/>
			<point x="292" y="466"/>
			<point x="301" y="510" type="curve" smooth="yes"/>
			<point x="310" y="552"/>
			<point x="342" y="572"/>
			<point x="383" y="572" type="curve" smooth="yes"/>
			<point x="421" y="572"/>
			<point x="444" y="556"/>
			<point x="454" y="527" type="curve" smooth="yes"/>
			<point x="466" y="492"/>
			<point x="501" y="465"/>
			<point x="541" y="465" type="curve" smooth="yes"/>
			<point x="592" y="465"/>
			<point x="633" y="507"/>
			<point x="633" y="557" type="curve" smooth="yes"/>
			<point x="633" y="569"/>
			<point x="632" y="580"/>
			<point x="628" y="590" type="curve" smooth="yes"/>
			<point x="601" y="660"/>
			<point x="536" y="704"/>
		</contour>
	</outline>
</glyph>
<glyph name="Y" format="2">
	<advance width="663"/>
	<unicode hex="0059"/>
	<note>
		Y
	</note>
	<outline>
		<contour>
			<point x="394" y="61" type="curve" smooth="yes"/>
			<point x="437" y="264" type="line"/>
			<point x="680" y="575" type="line" smooth="yes"/>
			<point x="690" y="588"/>
			<point x="696" y="604"/>
			<point x="696" y="622" type="curve" smooth="yes"/>
			<point x="696" y="665"/>
			<point x="662" y="699"/>
			<point x="619" y="699" type="curve" smooth="yes"/>
			<point x="593" y="699"/>
			<point x="570" y="686"/>
			<point x="556" y="666" type="curve" smooth="yes"/>
			<point x="384" y="417" type="line"/>
			<point x="323" y="631" type="line" smooth="yes"/>
			<point x="312" y="670"/>
			<point x="276" y="699"/>
			<point x="233" y="699" type="curve" smooth="yes"/>
			<point x="182" y="699"/>
			<point x="140" y="657"/>
			<point x="140" y="606" type="curve" smooth="yes"/>
			<point x="140" y="595"/>
			<point x="143" y="583"/>
			<point x="146" y="574" type="curve" smooth="yes"/>
			<point x="257" y="264" type="line"/>
			<point x="222" y="97" type="line" smooth="yes"/>
			<point x="221" y="91"/>
			<point x="220" y="85"/>
			<point x="220" y="79" type="curve" smooth="yes"/>
			<point x="220" y="30"/>
			<point x="259" y="-9"/>
			<point x="308" y="-9" type="curve" smooth="yes"/>
			<point x="350" y="-9"/>
			<point x="386" y="22"/>
		</contour>
	</outline>
</glyph>
<glyph name="bracketleft" format="2">
	<advance width="410"/>
	<unicode hex="005B"/>
	<note>
		bracketleft
	</note>
	<outline>
		<contour>
			<point x="467" y="780"/>
			<point x="441" y="780" type="curve" smooth="yes"/>
			<point x="304" y="780" type="line" smooth="yes"/>
			<point x="247" y="780"/>
			<point x="212" y="753"/>
			<point x="200" y="696" type="curve" smooth="yes"/>
			<point x="58" y="24" type="line" smooth="yes"/>
			<point x="44" y="-41"/>
			<point x="76" y="-80"/>
			<point x="142" y="-80" type="curve" smooth="yes"/>
			<point x="279" y="-80" type="line" smooth="yes"/>
			<point x="305" y="-80"/>
			<point x="327" y="-59"/>
			<point x="327" y="-32" type="curve" smooth="yes"/>
			<point x="327" y="-5"/>
			<point x="305" y="16"/>
			<point x="279" y="16" type="curve" smooth="yes"/>
			<point x="156" y="16" type="line"/>
			<point x="298" y="684" type="line"/>
			<point x="441" y="684" type="line" smooth="yes"/>
			<point x="467" y="684"/>
			<point x="489" y="705"/>
			<point x="489" y="732" type="curve" smooth="yes"/>
			<point x="489" y="759"/>
		</contour>
	</outline>
</glyph>
<glyph name="f" format="2">
	<advance width="378"/>
	<unicode hex="0066"/>
	<note>
		f
	</note>
	<outline>
		<contour>
			<point x="323" y="574" type="curve" smooth="yes"/>
			<point x="334" y="610"/>
			<point x="367" y="629"/>
			<point x="413" y="631" type="curve" smooth="yes"/>
			<point x="446" y="632"/>
			<point x="473" y="659"/>
			<point x="473" y="693" type="curve" smooth="yes"/>
			<point x="473" y="725"/>
			<point x="448" y="751"/>
			<point x="418" y="754" type="curve"/>
			<point x="253" y="754"/>
			<point x="176" y="692"/>
			<point x="147" y="592" type="curve" smooth="yes"/>
			<point x="142" y="574"/>
			<point x="137" y="550"/>
			<point x="133" y="534" type="curve" smooth="yes"/>
			<point x="132" y="530" type="line"/>
			<point x="111" y="530" type="line" smooth="yes"/>
			<point x="80" y="530"/>
			<point x="55" y="505"/>
			<point x="55" y="474" type="curve" smooth="yes"/>
			<point x="55" y="444"/>
			<point x="80" y="419"/>
			<point x="109" y="418" type="curve"/>
			<point x="41" y="97" type="line" smooth="yes"/>
			<point x="40" y="91"/>
			<point x="39" y="85"/>
			<point x="39" y="79" type="curve" smooth="yes"/>
			<point x="39" y="30"/>
			<point x="78" y="-9"/>
			<point x="127" y="-9" type="curve" smooth="yes"/>
			<point x="169" y="-9"/>
			<point x="205" y="21"/>
			<point x="213" y="61" type="curve" smooth="yes"/>
			<point x="289" y="418" type="line"/>
			<point x="344" y="418" type="line" smooth="yes"/>
			<point x="380" y="418"/>
			<point x="402" y="437"/>
			<point x="410" y="474" type="curve" smooth="yes"/>
			<point x="417" y="508"/>
			<point x="391" y="539"/>
			<point x="356" y="539" type="curve" smooth="yes"/>
			<point x="343" y="539"/>
			<point x="323" y="543"/>
			<point x="313" y="534" type="curve"/>
			<point x="316" y="547"/>
			<point x="319" y="560"/>
		</contour>
	</outline>
</glyph>
<glyph name="h" format="2">
	<advance width="644"/>
	<unicode hex="0068"/>
	<note>
		h
	</note>
	<outline>
		<contour>
			<point x="620" y="403" type="curve" smooth="yes"/>
			<point x="626" y="496"/>
			<point x="572" y="548"/>
			<point x="462" y="548" type="curve" smooth="yes"/>
			<point x="436" y="548"/>
			<point x="413" y="545"/>
			<point x="391" y="539" type="curve" smooth="yes"/>
			<point x="349" y="528"/>
			<point x="325" y="505"/>
			<point x="295" y="473" type="curve" smooth="yes"/>
			<point x="274" y="451" type="line"/>
			<point x="314" y="643" type="line" smooth="yes"/>
			<point x="315" y="648"/>
			<point x="316" y="655"/>
			<point x="316" y="661" type="curve" smooth="yes"/>
			<point x="316" y="710"/>
			<point x="277" y="749"/>
			<point x="228" y="749" type="curve" smooth="yes"/>
			<point x="186" y="749"/>
			<point x="150" y="719"/>
			<point x="142" y="679" type="curve" smooth="yes"/>
			<point x="19" y="97" type="line" smooth="yes"/>
			<point x="18" y="91"/>
			<point x="17" y="85"/>
			<point x="17" y="79" type="curve" smooth="yes"/>
			<point x="17" y="30"/>
			<point x="56" y="-9"/>
			<point x="105" y="-9" type="curve" smooth="yes"/>
			<point x="147" y="-9"/>
			<point x="183" y="21"/>
			<point x="191" y="61" type="curve" smooth="yes"/>
			<point x="231" y="252" type="line" smooth="yes"/>
			<point x="257" y="373"/>
			<point x="307" y="426"/>
			<point x="362" y="426" type="curve" smooth="yes"/>
			<point x="416" y="426"/>
			<point x="438" y="396"/>
			<point x="431" y="345" type="curve" smooth="yes"/>
			<point x="427" y="318"/>
			<point x="421" y="289"/>
			<point x="417" y="272" type="curve" smooth="yes"/>
			<point x="380" y="97" type="line" smooth="yes"/>
			<point x="379" y="92"/>
			<point x="379" y="85"/>
			<point x="379" y="79" type="curve" smooth="yes"/>
			<point x="379" y="30"/>
			<point x="418" y="-9"/>
			<point x="467" y="-9" type="curve" smooth="yes"/>
			<point x="509" y="-9"/>
			<point x="545" y="21"/>
			<point x="553" y="61" type="curve" smooth="yes"/>
			<point x="604" y="302" type="line" smooth="yes"/>
			<point x="613" y="345"/>
			<point x="619" y="376"/>
		</contour>
	</outline>
</glyph>
<glyph name="i" format="2">
	<advance width="288"/>
	<unicode hex="0069"/>
	<note>
		i
	</note>
	<outline>
		<contour>
			<point x="183" y="22"/>
			<point x="191" y="61" type="curve" smooth="yes"/>
			<point x="270" y="437" type="line" smooth="yes"/>
			<point x="271" y="442"/>
			<point x="272" y="449"/>
			<point x="272" y="455" type="curve" smooth="yes"/>
			<point x="272" y="504"/>
			<point x="233" y="543"/>
			<point x="184" y="543" type="curve" smooth="yes"/>
			<point x="142" y="543"/>
			<point x="106" y="513"/>
			<point x="98" y="473" type="curve" smooth="yes"/>
			<point x="19" y="97" type="line" smooth="yes"/>
			<point x="18" y="92"/>
			<point x="17" y="85"/>
			<point x="17" y="79" type="curve" smooth="yes"/>
			<point x="17" y="30"/>
			<point x="56" y="-9"/>
			<point x="105" y="-9" type="curve" smooth="yes"/>
			<point x="147" y="-9"/>
		</contour>
		<contour>
			<point x="170" y="572"/>
			<point x="218" y="572" type="curve" smooth="yes"/>
			<point x="261" y="572" type="line" smooth="yes"/>
			<point x="294" y="572"/>
			<point x="322" y="599"/>
			<point x="322" y="633" type="curve" smooth="yes"/>
			<point x="322" y="640"/>
			<point x="322" y="646"/>
			<point x="320" y="653" type="curve" smooth="yes"/>
			<point x="319" y="657"/>
			<point x="319" y="661"/>
			<point x="319" y="665" type="curve" smooth="yes"/>
			<point x="319" y="716"/>
			<point x="278" y="757"/>
			<point x="227" y="757" type="curve" smooth="yes"/>
			<point x="211" y="757"/>
			<point x="196" y="752"/>
			<point x="183" y="745" type="curve" smooth="yes"/>
			<point x="152" y="727"/>
			<point x="130" y="696"/>
			<point x="130" y="660" type="curve" smooth="yes"/>
			<point x="130" y="611"/>
		</contour>
	</outline>
</glyph>
<glyph name="j" format="2">
	<advance width="282"/>
	<unicode hex="006A"/>
	<note>
		j
	</note>
	<outline>
		<contour>
			<point x="179" y="16" type="curve" smooth="yes"/>
			<point x="268" y="437" type="line" smooth="yes"/>
			<point x="269" y="443"/>
			<point x="270" y="449"/>
			<point x="270" y="455" type="curve" smooth="yes"/>
			<point x="270" y="504"/>
			<point x="231" y="543"/>
			<point x="182" y="543" type="curve" smooth="yes"/>
			<point x="140" y="543"/>
			<point x="104" y="512"/>
			<point x="96" y="473" type="curve" smooth="yes"/>
			<point x="-1" y="15" type="line" smooth="yes"/>
			<point x="-4" y="0"/>
			<point x="-9" y="-19"/>
			<point x="-13" y="-33" type="curve" smooth="yes"/>
			<point x="-24" y="-68"/>
			<point x="-46" y="-83"/>
			<point x="-86" y="-85" type="curve" smooth="yes"/>
			<point x="-119" y="-87"/>
			<point x="-146" y="-114"/>
			<point x="-146" y="-148" type="curve" smooth="yes"/>
			<point x="-146" y="-180"/>
			<point x="-121" y="-206"/>
			<point x="-91" y="-210" type="curve"/>
			<point x="64" y="-210"/>
			<point x="135" y="-148"/>
			<point x="163" y="-48" type="curve" smooth="yes"/>
			<point x="168" y="-30"/>
			<point x="175" y="-4"/>
		</contour>
		<contour>
			<point x="169" y="575"/>
			<point x="217" y="575" type="curve" smooth="yes"/>
			<point x="257" y="575" type="line" smooth="yes"/>
			<point x="290" y="575"/>
			<point x="319" y="602"/>
			<point x="319" y="636" type="curve" smooth="yes"/>
			<point x="319" y="644"/>
			<point x="319" y="651"/>
			<point x="317" y="658" type="curve" smooth="yes"/>
			<point x="316" y="662"/>
			<point x="316" y="665"/>
			<point x="316" y="669" type="curve" smooth="yes"/>
			<point x="316" y="719"/>
			<point x="276" y="759"/>
			<point x="226" y="759" type="curve" smooth="yes"/>
			<point x="212" y="759"/>
			<point x="199" y="754"/>
			<point x="188" y="749" type="curve" smooth="yes"/>
			<point x="154" y="733"/>
			<point x="129" y="701"/>
			<point x="129" y="663" type="curve" smooth="yes"/>
			<point x="129" y="614"/>
		</contour>
	</outline>
</glyph>
<glyph name="k" format="2">
	<advance width="632"/>
	<unicode hex="006B"/>
	<note>
		k
	</note>
	<outline>
		<contour>
			<point x="211" y="156" type="line"/>
			<point x="258" y="198" type="line"/>
			<point x="337" y="42" type="line" smooth="yes"/>
			<point x="352" y="12"/>
			<point x="385" y="-9"/>
			<point x="421" y="-9" type="curve" smooth="yes"/>
			<point x="473" y="-9"/>
			<point x="516" y="33"/>
			<point x="516" y="85" type="curve" smooth="yes"/>
			<point x="516" y="103"/>
			<point x="511" y="119"/>
			<point x="503" y="133" type="curve" smooth="yes"/>
			<point x="412" y="289" type="line"/>
			<point x="558" y="417" type="line" smooth="yes"/>
			<point x="623" y="475"/>
			<point x="617" y="534"/>
			<point x="547" y="534" type="curve" smooth="yes"/>
			<point x="499" y="534"/>
			<point x="465" y="521"/>
			<point x="430" y="487" type="curve" smooth="yes"/>
			<point x="244" y="310" type="line"/>
			<point x="313" y="638" type="line" smooth="yes"/>
			<point x="314" y="643"/>
			<point x="315" y="650"/>
			<point x="315" y="656" type="curve" smooth="yes"/>
			<point x="315" y="705"/>
			<point x="276" y="744"/>
			<point x="227" y="744" type="curve" smooth="yes"/>
			<point x="185" y="744"/>
			<point x="149" y="713"/>
			<point x="141" y="674" type="curve" smooth="yes"/>
			<point x="19" y="97" type="line" smooth="yes"/>
			<point x="18" y="91"/>
			<point x="17" y="85"/>
			<point x="17" y="79" type="curve" smooth="yes"/>
			<point x="17" y="30"/>
			<point x="56" y="-9"/>
			<point x="105" y="-9" type="curve" smooth="yes"/>
			<point x="147" y="-9"/>
			<point x="183" y="22"/>
			<point x="191" y="61" type="curve" smooth="yes"/>
		</contour>
	</outline>
</glyph>
<glyph name="p" format="2">
	<advance width="669"/>
	<unicode hex="0070"/>
	<note>
		p
	</note>
	<outline>
		<contour>
			<point x="470" y="548" type="curve" smooth="yes"/>
			<point x="436" y="548"/>
			<point x="402" y="544"/>
			<point x="373" y="535" type="curve" smooth="yes"/>
			<point x="338" y="524"/>
			<point x="317" y="502"/>
			<point x="288" y="470" type="curve" smooth="yes"/>
			<point x="275" y="456" type="line"/>
			<point x="274" y="506"/>
			<point x="234" y="545"/>
			<point x="185" y="545" type="curve" smooth="yes"/>
			<point x="141" y="545"/>
			<point x="107" y="514"/>
			<point x="98" y="473" type="curve" smooth="yes"/>
			<point x="-23" y="-99" type="line" smooth="yes"/>
			<point x="-24" y="-105"/>
			<point x="-25" y="-111"/>
			<point x="-25" y="-117" type="curve" smooth="yes"/>
			<point x="-25" y="-166"/>
			<point x="14" y="-205"/>
			<point x="63" y="-205" type="curve" smooth="yes"/>
			<point x="105" y="-205"/>
			<point x="141" y="-174"/>
			<point x="149" y="-135" type="curve" smooth="yes"/>
			<point x="192" y="69" type="line"/>
			<point x="204" y="41" type="line" smooth="yes"/>
			<point x="212" y="20"/>
			<point x="231" y="-1"/>
			<point x="279" y="-9" type="curve" smooth="yes"/>
			<point x="296" y="-12"/>
			<point x="315" y="-14"/>
			<point x="333" y="-14" type="curve" smooth="yes"/>
			<point x="470" y="-14"/>
			<point x="608" y="89"/>
			<point x="648" y="279" type="curve" smooth="yes"/>
			<point x="682" y="437"/>
			<point x="615" y="548"/>
		</contour>
		<contour>
			<point x="310" y="108" type="curve" smooth="yes"/>
			<point x="256" y="108"/>
			<point x="208" y="144"/>
			<point x="231" y="251" type="curve" smooth="yes"/>
			<point x="236" y="274" type="line" smooth="yes"/>
			<point x="260" y="386"/>
			<point x="316" y="426"/>
			<point x="382" y="426" type="curve" smooth="yes"/>
			<point x="445" y="426"/>
			<point x="483" y="370"/>
			<point x="462" y="270" type="curve" smooth="yes"/>
			<point x="439" y="161"/>
			<point x="380" y="108"/>
		</contour>
	</outline>
</glyph>
<glyph name="q" format="2">
	<advance width="669"/>
	<unicode hex="0071"/>
	<note>
		q
	</note>
	<outline>
		<contour>
			<point x="530" y="-135" type="curve" smooth="yes"/>
			<point x="651" y="437" type="line" smooth="yes"/>
			<point x="652" y="442"/>
			<point x="653" y="449"/>
			<point x="653" y="455" type="curve" smooth="yes"/>
			<point x="653" y="504"/>
			<point x="614" y="543"/>
			<point x="566" y="543" type="curve" smooth="yes"/>
			<point x="523" y="543"/>
			<point x="488" y="513"/>
			<point x="480" y="473" type="curve" smooth="yes"/>
			<point x="478" y="465" type="line"/>
			<point x="467" y="494" type="line" smooth="yes"/>
			<point x="459" y="515"/>
			<point x="439" y="535"/>
			<point x="391" y="543" type="curve" smooth="yes"/>
			<point x="374" y="546"/>
			<point x="355" y="548"/>
			<point x="337" y="548" type="curve" smooth="yes"/>
			<point x="200" y="548"/>
			<point x="62" y="445"/>
			<point x="22" y="255" type="curve" smooth="yes"/>
			<point x="-12" y="97"/>
			<point x="55" y="-14"/>
			<point x="200" y="-14" type="curve" smooth="yes"/>
			<point x="231" y="-14"/>
			<point x="261" y="-10"/>
			<point x="288" y="-3" type="curve" smooth="yes"/>
			<point x="330" y="8"/>
			<point x="353" y="32"/>
			<point x="382" y="64" type="curve" smooth="yes"/>
			<point x="395" y="78" type="line"/>
			<point x="358" y="-99" type="line" smooth="yes"/>
			<point x="357" y="-104"/>
			<point x="356" y="-111"/>
			<point x="356" y="-117" type="curve" smooth="yes"/>
			<point x="356" y="-166"/>
			<point x="395" y="-205"/>
			<point x="444" y="-205" type="curve" smooth="yes"/>
			<point x="486" y="-205"/>
			<point x="522" y="-175"/>
		</contour>
		<contour>
			<point x="288" y="108" type="curve" smooth="yes"/>
			<point x="225" y="108"/>
			<point x="187" y="164"/>
			<point x="208" y="264" type="curve" smooth="yes"/>
			<point x="231" y="373"/>
			<point x="290" y="426"/>
			<point x="360" y="426" type="curve" smooth="yes"/>
			<point x="414" y="426"/>
			<point x="462" y="390"/>
			<point x="439" y="283" type="curve" smooth="yes"/>
			<point x="434" y="260" type="line" smooth="yes"/>
			<point x="410" y="148"/>
			<point x="354" y="108"/>
		</contour>
	</outline>
</glyph>
<glyph name="r" format="2">
	<advance width="420"/>
	<unicode hex="0072"/>
	<note>
		r
	</note>
	<outline>
		<contour>
			<point x="399" y="543" type="curve" smooth="yes"/>
			<point x="388" y="540"/>
			<point x="375" y="536"/>
			<point x="363" y="531" type="curve" smooth="yes"/>
			<point x="321" y="514"/>
			<point x="285" y="480"/>
			<point x="270" y="437" type="curve"/>
			<point x="271" y="443"/>
			<point x="272" y="449"/>
			<point x="272" y="455" type="curve" smooth="yes"/>
			<point x="272" y="504"/>
			<point x="233" y="543"/>
			<point x="184" y="543" type="curve" smooth="yes"/>
			<point x="142" y="543"/>
			<point x="106" y="512"/>
			<point x="98" y="473" type="curve" smooth="yes"/>
			<point x="19" y="97" type="line" smooth="yes"/>
			<point x="18" y="92"/>
			<point x="17" y="85"/>
			<point x="17" y="79" type="curve" smooth="yes"/>
			<point x="17" y="30"/>
			<point x="56" y="-9"/>
			<point x="105" y="-9" type="curve" smooth="yes"/>
			<point x="147" y="-9"/>
			<point x="183" y="21"/>
			<point x="191" y="61" type="curve" smooth="yes"/>
			<point x="219" y="196" type="line" smooth="yes"/>
			<point x="249" y="333"/>
			<point x="296" y="390"/>
			<point x="398" y="397" type="curve" smooth="yes"/>
			<point x="438" y="400"/>
			<point x="470" y="433"/>
			<point x="470" y="474" type="curve" smooth="yes"/>
			<point x="470" y="488"/>
			<point x="467" y="502"/>
			<point x="462" y="515" type="curve" smooth="yes"/>
			<point x="451" y="543"/>
			<point x="426" y="549"/>
		</contour>
	</outline>
</glyph>
<glyph name="v" format="2">
	<advance width="608"/>
	<unicode hex="0076"/>
	<note>
		v
	</note>
	<outline>
		<contour>
			<point x="383" y="55" type="curve" smooth="yes"/>
			<point x="603" y="418" type="line" smooth="yes"/>
			<point x="610" y="430"/>
			<point x="614" y="445"/>
			<point x="614" y="460" type="curve" smooth="yes"/>
			<point x="614" y="506"/>
			<point x="578" y="543"/>
			<point x="532" y="543" type="curve" smooth="yes"/>
			<point x="499" y="543"/>
			<point x="471" y="524"/>
			<point x="458" y="497" type="curve" smooth="yes"/>
			<point x="284" y="143" type="line"/>
			<point x="262" y="455" type="line" smooth="yes"/>
			<point x="259" y="504"/>
			<point x="218" y="543"/>
			<point x="168" y="543" type="curve" smooth="yes"/>
			<point x="110" y="543"/>
			<point x="65" y="489"/>
			<point x="76" y="432" type="curve" smooth="yes"/>
			<point x="137" y="101" type="line" smooth="yes"/>
			<point x="148" y="38"/>
			<point x="203" y="-9"/>
			<point x="268" y="-9" type="curve" smooth="yes"/>
			<point x="317" y="-9"/>
			<point x="360" y="16"/>
		</contour>
	</outline>
</glyph>
<glyph name="w" format="2">
	<advance width="868"/>
	<unicode hex="0077"/>
	<note>
		w
	</note>
	<outline>
		<contour>
			<point x="680" y="55" type="curve" smooth="yes"/>
			<point x="873" y="421" type="line" smooth="yes"/>
			<point x="879" y="432"/>
			<point x="883" y="446"/>
			<point x="883" y="460" type="curve" smooth="yes"/>
			<point x="883" y="506"/>
			<point x="846" y="543"/>
			<point x="799" y="543" type="curve" smooth="yes"/>
			<point x="764" y="543"/>
			<point x="734" y="521"/>
			<point x="722" y="490" type="curve" smooth="yes"/>
			<point x="590" y="151" type="line"/>
			<point x="598" y="413" type="line" smooth="yes"/>
			<point x="600" y="478"/>
			<point x="548" y="539"/>
			<point x="476" y="539" type="curve" smooth="yes"/>
			<point x="424" y="539"/>
			<point x="378" y="506"/>
			<point x="361" y="460" type="curve" smooth="yes"/>
			<point x="244" y="152" type="line"/>
			<point x="253" y="447" type="line" smooth="yes"/>
			<point x="254" y="496"/>
			<point x="215" y="543"/>
			<point x="159" y="543" type="curve" smooth="yes"/>
			<point x="101" y="543"/>
			<point x="62" y="492"/>
			<point x="67" y="440" type="curve" smooth="yes"/>
			<point x="102" y="103" type="line" smooth="yes"/>
			<point x="108" y="40"/>
			<point x="162" y="-9"/>
			<point x="226" y="-9" type="curve" smooth="yes"/>
			<point x="279" y="-9"/>
			<point x="324" y="23"/>
			<point x="342" y="69" type="curve" smooth="yes"/>
			<point x="458" y="360" type="line"/>
			<point x="453" y="115" type="line" smooth="yes"/>
			<point x="452" y="50"/>
			<point x="502" y="-9"/>
			<point x="573" y="-9" type="curve" smooth="yes"/>
			<point x="620" y="-9"/>
			<point x="660" y="16"/>
		</contour>
	</outline>
</glyph>
<glyph name="x" format="2">
	<advance width="590"/>
	<unicode hex="0078"/>
	<note>
		x
	</note>
	<outline>
		<contour>
			<point x="478" y="122" type="curve" smooth="yes"/>
			<point x="408" y="269" type="line"/>
			<point x="540" y="416" type="line" smooth="yes"/>
			<point x="552" y="430"/>
			<point x="560" y="448"/>
			<point x="560" y="467" type="curve" smooth="yes"/>
			<point x="560" y="509"/>
			<point x="526" y="543"/>
			<point x="484" y="543" type="curve" smooth="yes"/>
			<point x="459" y="543"/>
			<point x="437" y="530"/>
			<point x="423" y="512" type="curve" smooth="yes"/>
			<point x="324" y="380" type="line"/>
			<point x="291" y="480" type="line" smooth="yes"/>
			<point x="279" y="516"/>
			<point x="244" y="543"/>
			<point x="204" y="543" type="curve" smooth="yes"/>
			<point x="153" y="543"/>
			<point x="111" y="502"/>
			<point x="111" y="451" type="curve" smooth="yes"/>
			<point x="111" y="437"/>
			<point x="115" y="423"/>
			<point x="120" y="412" type="curve" smooth="yes"/>
			<point x="186" y="271" type="line"/>
			<point x="49" y="118" type="line" smooth="yes"/>
			<point x="37" y="104"/>
			<point x="29" y="87"/>
			<point x="29" y="67" type="curve" smooth="yes"/>
			<point x="29" y="25"/>
			<point x="64" y="-9"/>
			<point x="106" y="-9" type="curve" smooth="yes"/>
			<point x="130" y="-9"/>
			<point x="152" y="3"/>
			<point x="166" y="21" type="curve" smooth="yes"/>
			<point x="274" y="161" type="line"/>
			<point x="308" y="55" type="line" smooth="yes"/>
			<point x="320" y="18"/>
			<point x="354" y="-9"/>
			<point x="395" y="-9" type="curve" smooth="yes"/>
			<point x="445" y="-9"/>
			<point x="486" y="32"/>
			<point x="486" y="83" type="curve" smooth="yes"/>
			<point x="486" y="96"/>
			<point x="483" y="111"/>
		</contour>
	</outline>
</glyph>
<glyph name="braceleft" format="2">
	<advance width="430"/>
	<unicode hex="007B"/>
	<note>
		braceleft
	</note>
	<outline>
		<contour>
			<point x="456" y="701" type="curve" smooth="yes"/>
			<point x="464" y="709"/>
			<point x="468" y="720"/>
			<point x="468" y="732" type="curve" smooth="yes"/>
			<point x="468" y="759"/>
			<point x="446" y="781"/>
			<point x="419" y="781" type="curve" smooth="yes"/>
			<point x="392" y="781"/>
			<point x="371" y="759"/>
			<point x="371" y="732" type="curve" smooth="yes"/>
			<point x="371" y="702"/>
			<point x="390" y="775"/>
			<point x="419" y="780" type="curve" smooth="yes"/>
			<point x="418" y="780" type="line" smooth="yes"/>
			<point x="318" y="780"/>
			<point x="276" y="743"/>
			<point x="259" y="664" type="curve" smooth="yes"/>
			<point x="252" y="630"/>
			<point x="249" y="597"/>
			<point x="246" y="545" type="curve" smooth="yes"/>
			<point x="243" y="505"/>
			<point x="240" y="478"/>
			<point x="235" y="455" type="curve" smooth="yes"/>
			<point x="231" y="434"/>
			<point x="217" y="412"/>
			<point x="169" y="403" type="curve" smooth="yes"/>
			<point x="142" y="398"/>
			<point x="122" y="376"/>
			<point x="122" y="348" type="curve" smooth="yes"/>
			<point x="122" y="324"/>
			<point x="138" y="302"/>
			<point x="159" y="295" type="curve" smooth="yes"/>
			<point x="192" y="284"/>
			<point x="195" y="264"/>
			<point x="191" y="245" type="curve" smooth="yes"/>
			<point x="186" y="222"/>
			<point x="177" y="195"/>
			<point x="163" y="155" type="curve" smooth="yes"/>
			<point x="144" y="103"/>
			<point x="133" y="70"/>
			<point x="125" y="36" type="curve" smooth="yes"/>
			<point x="109" y="-43"/>
			<point x="136" y="-80"/>
			<point x="236" y="-80" type="curve" smooth="yes"/>
			<point x="257" y="-80" type="line" smooth="yes"/>
			<point x="283" y="-80"/>
			<point x="305" y="-59"/>
			<point x="305" y="-32" type="curve" smooth="yes"/>
			<point x="305" y="-23"/>
			<point x="304" y="-14"/>
			<point x="301" y="-5" type="curve" smooth="yes"/>
			<point x="295" y="13"/>
			<point x="226" y="-9"/>
			<point x="228" y="42" type="curve" smooth="yes"/>
			<point x="228" y="46"/>
			<point x="229" y="51"/>
			<point x="230" y="56" type="curve" smooth="yes"/>
			<point x="233" y="70"/>
			<point x="239" y="91"/>
			<point x="258" y="145" type="curve" smooth="yes"/>
			<point x="275" y="190"/>
			<point x="288" y="232"/>
			<point x="291" y="248" type="curve" smooth="yes"/>
			<point x="303" y="303"/>
			<point x="284" y="339"/>
			<point x="229" y="353" type="curve"/>
			<point x="289" y="365"/>
			<point x="323" y="397"/>
			<point x="335" y="452" type="curve" smooth="yes"/>
			<point x="338" y="468"/>
			<point x="343" y="510"/>
			<point x="346" y="555" type="curve" smooth="yes"/>
			<point x="349" y="609"/>
			<point x="352" y="630"/>
			<point x="355" y="644" type="curve" smooth="yes"/>
			<point x="359" y="664"/>
			<point x="366" y="674"/>
			<point x="380" y="679" type="curve" smooth="yes"/>
			<point x="413" y="691"/>
			<point x="440" y="682"/>
		</contour>
	</outline>
</glyph>
<glyph name="asciitilde" format="2">
	<advance width="662"/>
	<unicode hex="007E"/>
	<note>
		asciitilde
	</note>
	<outline>
		<contour>
			<point x="508" y="401"/>
			<point x="502" y="382" type="curve" smooth="yes"/>
			<point x="490" y="342"/>
			<point x="473" y="330"/>
			<point x="449" y="330" type="curve" smooth="yes"/>
			<point x="426" y="330"/>
			<point x="406" y="341"/>
			<point x="366" y="365" type="curve" smooth="yes"/>
			<point x="324" y="390"/>
			<point x="294" y="406"/>
			<point x="249" y="406" type="curve" smooth="yes"/>
			<point x="178" y="406"/>
			<point x="125" y="366"/>
			<point x="94" y="275" type="curve" smooth="yes"/>
			<point x="93" y="271"/>
			<point x="92" y="265"/>
			<point x="92" y="260" type="curve" smooth="yes"/>
			<point x="92" y="234"/>
			<point x="112" y="214"/>
			<point x="138" y="214" type="curve" smooth="yes"/>
			<point x="158" y="214"/>
			<point x="176" y="228"/>
			<point x="182" y="247" type="curve" smooth="yes"/>
			<point x="192" y="283"/>
			<point x="208" y="299"/>
			<point x="235" y="299" type="curve" smooth="yes"/>
			<point x="255" y="299"/>
			<point x="273" y="290"/>
			<point x="318" y="264" type="curve" smooth="yes"/>
			<point x="363" y="238"/>
			<point x="392" y="223"/>
			<point x="435" y="223" type="curve" smooth="yes"/>
			<point x="506" y="223"/>
			<point x="559" y="263"/>
			<point x="590" y="354" type="curve" smooth="yes"/>
			<point x="591" y="358"/>
			<point x="592" y="364"/>
			<point x="592" y="369" type="curve" smooth="yes"/>
			<point x="592" y="395"/>
			<point x="572" y="415"/>
			<point x="546" y="415" type="curve" smooth="yes"/>
			<point x="526" y="415"/>
		</contour>
	</outline>
</glyph>
<glyph name="cent" format="2">
	<advance width="662"/>
	<unicode hex="00A2"/>
	<note>
		cent
	</note>
	<outline>
		<contour>
			<point x="430" y="193"/>
			<point x="418" y="173" type="curve" smooth="yes"/>
			<point x="402" y="146"/>
			<point x="380" y="129"/>
			<point x="357" y="119" type="curve"/>
			<point x="419" y="412" type="line"/>
			<point x="435" y="404"/>
			<point x="449" y="391"/>
			<point x="456" y="369" type="curve" smooth="yes"/>
			<point x="467" y="338"/>
			<point x="497" y="315"/>
			<point x="532" y="315" type="curve" smooth="yes"/>
			<point x="577" y="315"/>
			<point x="613" y="351"/>
			<point x="613" y="395" type="curve" smooth="yes"/>
			<point x="613" y="403"/>
			<point x="611" y="411"/>
			<point x="609" y="419" type="curve" smooth="yes"/>
			<point x="589" y="484"/>
			<point x="534" y="530"/>
			<point x="447" y="541" type="curve"/>
			<point x="453" y="570" type="line" smooth="yes"/>
			<point x="459" y="601"/>
			<point x="436" y="629"/>
			<point x="405" y="629" type="curve" smooth="yes"/>
			<point x="381" y="629"/>
			<point x="362" y="613"/>
			<point x="357" y="590" type="curve" smooth="yes"/>
			<point x="346" y="539" type="line"/>
			<point x="213" y="518"/>
			<point x="96" y="420"/>
			<point x="62" y="259" type="curve" smooth="yes"/>
			<point x="30" y="108"/>
			<point x="102" y="7"/>
			<point x="229" y="-11" type="curve"/>
			<point x="223" y="-40" type="line" smooth="yes"/>
			<point x="217" y="-71"/>
			<point x="240" y="-99"/>
			<point x="271" y="-99" type="curve" smooth="yes"/>
			<point x="295" y="-99"/>
			<point x="314" y="-83"/>
			<point x="319" y="-60" type="curve" smooth="yes"/>
			<point x="330" y="-10" type="line"/>
			<point x="408" y="1"/>
			<point x="478" y="35"/>
			<point x="528" y="94" type="curve" smooth="yes"/>
			<point x="538" y="106"/>
			<point x="544" y="121"/>
			<point x="544" y="138" type="curve" smooth="yes"/>
			<point x="544" y="176"/>
			<point x="514" y="206"/>
			<point x="476" y="206" type="curve" smooth="yes"/>
			<point x="451" y="206"/>
		</contour>
		<contour>
			<point x="228" y="270" type="curve" smooth="yes"/>
			<point x="243" y="341"/>
			<point x="278" y="387"/>
			<point x="318" y="408" type="curve"/>
			<point x="258" y="123" type="line"/>
			<point x="226" y="145"/>
			<point x="211" y="192"/>
		</contour>
	</outline>
</glyph>
<glyph name="sterling" format="2">
	<advance width="662"/>
	<unicode hex="00A3"/>
	<note>
		sterling
	</note>
	<outline>
		<contour>
			<point x="534" y="140"/>
			<point x="496" y="140" type="curve" smooth="yes"/>
			<point x="241" y="140" type="line"/>
			<point x="296" y="164"/>
			<point x="331" y="206"/>
			<point x="341" y="251" type="curve" smooth="yes"/>
			<point x="344" y="265"/>
			<point x="345" y="276"/>
			<point x="346" y="289" type="curve"/>
			<point x="484" y="289" type="line" smooth="yes"/>
			<point x="508" y="289"/>
			<point x="528" y="309"/>
			<point x="528" y="333" type="curve" smooth="yes"/>
			<point x="528" y="357"/>
			<point x="508" y="377"/>
			<point x="484" y="377" type="curve" smooth="yes"/>
			<point x="335" y="377" type="line"/>
			<point x="324" y="434"/>
			<point x="324" y="462"/>
			<point x="332" y="500" type="curve" smooth="yes"/>
			<point x="341" y="541"/>
			<point x="372" y="572"/>
			<point x="409" y="572" type="curve" smooth="yes"/>
			<point x="435" y="572"/>
			<point x="450" y="560"/>
			<point x="458" y="540" type="curve" smooth="yes"/>
			<point x="470" y="506"/>
			<point x="504" y="480"/>
			<point x="543" y="480" type="curve" smooth="yes"/>
			<point x="593" y="480"/>
			<point x="633" y="521"/>
			<point x="633" y="571" type="curve" smooth="yes"/>
			<point x="633" y="585"/>
			<point x="631" y="599"/>
			<point x="625" y="611" type="curve" smooth="yes"/>
			<point x="598" y="667"/>
			<point x="539" y="704"/>
			<point x="437" y="704" type="curve" smooth="yes"/>
			<point x="288" y="704"/>
			<point x="170" y="624"/>
			<point x="141" y="488" type="curve" smooth="yes"/>
			<point x="132" y="444"/>
			<point x="133" y="415"/>
			<point x="140" y="377" type="curve"/>
			<point x="121" y="377" type="line" smooth="yes"/>
			<point x="97" y="377"/>
			<point x="77" y="357"/>
			<point x="77" y="333" type="curve" smooth="yes"/>
			<point x="77" y="309"/>
			<point x="97" y="289"/>
			<point x="121" y="289" type="curve" smooth="yes"/>
			<point x="158" y="289" type="line"/>
			<point x="160" y="266"/>
			<point x="158" y="247"/>
			<point x="155" y="230" type="curve" smooth="yes"/>
			<point x="145" y="186"/>
			<point x="120" y="151"/>
			<point x="62" y="134" type="curve" smooth="yes"/>
			<point x="34" y="126"/>
			<point x="12" y="99"/>
			<point x="12" y="68" type="curve" smooth="yes"/>
			<point x="12" y="30"/>
			<point x="44" y="0"/>
			<point x="81" y="0" type="curve" smooth="yes"/>
			<point x="496" y="0" type="line" smooth="yes"/>
			<point x="534" y="0"/>
			<point x="566" y="31"/>
			<point x="566" y="70" type="curve" smooth="yes"/>
			<point x="566" y="109"/>
		</contour>
	</outline>
</glyph>
<glyph name="yen" format="2">
	<advance width="662"/>
	<unicode hex="00A5"/>
	<note>
		yen
	</note>
	<outline>
		<contour>
			<point x="545" y="380" type="curve" smooth="yes"/>
			<point x="490" y="380" type="line"/>
			<point x="648" y="586" type="line" smooth="yes"/>
			<point x="657" y="598"/>
			<point x="662" y="612"/>
			<point x="662" y="628" type="curve" smooth="yes"/>
			<point x="662" y="667"/>
			<point x="631" y="699"/>
			<point x="592" y="699" type="curve" smooth="yes"/>
			<point x="567" y="699"/>
			<point x="544" y="686"/>
			<point x="532" y="666" type="curve" smooth="yes"/>
			<point x="362" y="390" type="line"/>
			<point x="312" y="632" type="line" smooth="yes"/>
			<point x="304" y="670"/>
			<point x="270" y="699"/>
			<point x="229" y="699" type="curve" smooth="yes"/>
			<point x="183" y="699"/>
			<point x="145" y="661"/>
			<point x="145" y="614" type="curve" smooth="yes"/>
			<point x="145" y="605"/>
			<point x="146" y="595"/>
			<point x="149" y="587" type="curve" smooth="yes"/>
			<point x="220" y="380" type="line"/>
			<point x="145" y="380" type="line" smooth="yes"/>
			<point x="119" y="380"/>
			<point x="97" y="359"/>
			<point x="97" y="332" type="curve" smooth="yes"/>
			<point x="97" y="305"/>
			<point x="119" y="284"/>
			<point x="145" y="284" type="curve" smooth="yes"/>
			<point x="245" y="284" type="line"/>
			<point x="233" y="227" type="line"/>
			<point x="113" y="227" type="line" smooth="yes"/>
			<point x="87" y="227"/>
			<point x="65" y="206"/>
			<point x="65" y="179" type="curve" smooth="yes"/>
			<point x="65" y="152"/>
			<point x="87" y="131"/>
			<point x="113" y="131" type="curve" smooth="yes"/>
			<point x="213" y="131" type="line"/>
			<point x="206" y="97" type="line" smooth="yes"/>
			<point x="205" y="91"/>
			<point x="204" y="85"/>
			<point x="204" y="79" type="curve" smooth="yes"/>
			<point x="204" y="30"/>
			<point x="243" y="-9"/>
			<point x="292" y="-9" type="curve" smooth="yes"/>
			<point x="334" y="-9"/>
			<point x="370" y="21"/>
			<point x="378" y="61" type="curve" smooth="yes"/>
			<point x="393" y="131" type="line"/>
			<point x="513" y="131" type="line" smooth="yes"/>
			<point x="539" y="131"/>
			<point x="561" y="152"/>
			<point x="561" y="179" type="curve" smooth="yes"/>
			<point x="561" y="206"/>
			<point x="539" y="227"/>
			<point x="513" y="227" type="curve" smooth="yes"/>
			<point x="413" y="227" type="line"/>
			<point x="425" y="284" type="line"/>
			<point x="545" y="284" type="line" smooth="yes"/>
			<point x="571" y="284"/>
			<point x="593" y="305"/>
			<point x="593" y="332" type="curve" smooth="yes"/>
			<point x="593" y="359"/>
			<point x="571" y="380"/>
		</contour>
	</outline>
</glyph>
<glyph name="brokenbar" format="2">
	<advance width="296"/>
	<unicode hex="00A6"/>
	<note>
		brokenbar
	</note>
	<outline>
		<contour>
			<point x="217" y="357"/>
			<point x="222" y="380" type="curve" smooth="yes"/>
			<point x="277" y="640" type="line" smooth="yes"/>
			<point x="283" y="670"/>
			<point x="261" y="699"/>
			<point x="230" y="699" type="curve" smooth="yes"/>
			<point x="206" y="699"/>
			<point x="187" y="683"/>
			<point x="182" y="660" type="curve" smooth="yes"/>
			<point x="127" y="400" type="line" smooth="yes"/>
			<point x="121" y="369"/>
			<point x="143" y="341"/>
			<point x="174" y="341" type="curve" smooth="yes"/>
			<point x="198" y="341"/>
		</contour>
		<contour>
			<point x="109" y="-153"/>
			<point x="114" y="-130" type="curve" smooth="yes"/>
			<point x="169" y="130" type="line" smooth="yes"/>
			<point x="175" y="160"/>
			<point x="153" y="189"/>
			<point x="122" y="189" type="curve" smooth="yes"/>
			<point x="98" y="189"/>
			<point x="79" y="173"/>
			<point x="74" y="150" type="curve" smooth="yes"/>
			<point x="19" y="-110" type="line" smooth="yes"/>
			<point x="13" y="-141"/>
			<point x="35" y="-169"/>
			<point x="66" y="-169" type="curve" smooth="yes"/>
			<point x="90" y="-169"/>
		</contour>
	</outline>
</glyph>
<glyph name="dieresis" format="2">
	<advance width="300"/>
	<unicode hex="00A8"/>
	<note>
		dieresis
	</note>
	<outline>
		<contour>
			<point x="81" y="569"/>
			<point x="121" y="569" type="curve" smooth="yes"/>
			<point x="167" y="569"/>
			<point x="195" y="590"/>
			<point x="204" y="635" type="curve" smooth="yes"/>
			<point x="213" y="680"/>
			<point x="179" y="725"/>
			<point x="131" y="725" type="curve" smooth="yes"/>
			<point x="119" y="725"/>
			<point x="107" y="721"/>
			<point x="97" y="716" type="curve" smooth="yes"/>
			<point x="69" y="702"/>
			<point x="48" y="675"/>
			<point x="48" y="642" type="curve" smooth="yes"/>
			<point x="48" y="602"/>
		</contour>
		<contour>
			<point x="394" y="584"/>
			<point x="401" y="618" type="curve" smooth="yes"/>
			<point x="405" y="636" type="line" smooth="yes"/>
			<point x="415" y="682"/>
			<point x="380" y="725"/>
			<point x="333" y="725" type="curve" smooth="yes"/>
			<point x="298" y="725"/>
			<point x="269" y="701"/>
			<point x="262" y="667" type="curve" smooth="yes"/>
			<point x="258" y="649" type="line" smooth="yes"/>
			<point x="249" y="604"/>
			<point x="283" y="560"/>
			<point x="330" y="560" type="curve" smooth="yes"/>
			<point x="365" y="560"/>
		</contour>
	</outline>
</glyph>
<glyph name="copyright" format="2">
	<advance width="860"/>
	<unicode hex="00A9"/>
	<note>
		copyright
	</note>
	<outline>
		<contour>
			<point x="535" y="759" type="curve" smooth="yes"/>
			<point x="293" y="759"/>
			<point x="86" y="592"/>
			<point x="35" y="355" type="curve" smooth="yes"/>
			<point x="-15" y="118"/>
			<point x="121" y="-49"/>
			<point x="363" y="-49" type="curve" smooth="yes"/>
			<point x="605" y="-49"/>
			<point x="813" y="118"/>
			<point x="863" y="355" type="curve" smooth="yes"/>
			<point x="914" y="592"/>
			<point x="777" y="759"/>
		</contour>
		<contour>
			<point x="515" y="663" type="curve" smooth="yes"/>
			<point x="694" y="663"/>
			<point x="793" y="535"/>
			<point x="755" y="355" type="curve" smooth="yes"/>
			<point x="717" y="176"/>
			<point x="563" y="49"/>
			<point x="384" y="49" type="curve" smooth="yes"/>
			<point x="205" y="49"/>
			<point x="105" y="176"/>
			<point x="143" y="355" type="curve" smooth="yes"/>
			<point x="181" y="535"/>
			<point x="336" y="663"/>
		</contour>
		<contour>
			<point x="506" y="582" type="curve" smooth="yes"/>
			<point x="367" y="582"/>
			<point x="257" y="491"/>
			<point x="228" y="355" type="curve" smooth="yes"/>
			<point x="198" y="211"/>
			<point x="270" y="126"/>
			<point x="402" y="126" type="curve" smooth="yes"/>
			<point x="491" y="126"/>
			<point x="560" y="161"/>
			<point x="608" y="223" type="curve" smooth="yes"/>
			<point x="616" y="233"/>
			<point x="621" y="247"/>
			<point x="621" y="261" type="curve" smooth="yes"/>
			<point x="621" y="296"/>
			<point x="593" y="324"/>
			<point x="558" y="324" type="curve" smooth="yes"/>
			<point x="532" y="324"/>
			<point x="509" y="307"/>
			<point x="500" y="285" type="curve" smooth="yes"/>
			<point x="482" y="243"/>
			<point x="455" y="228"/>
			<point x="429" y="228" type="curve" smooth="yes"/>
			<point x="382" y="228"/>
			<point x="363" y="266"/>
			<point x="382" y="356" type="curve" smooth="yes"/>
			<point x="399" y="434"/>
			<point x="427" y="480"/>
			<point x="479" y="480" type="curve" smooth="yes"/>
			<point x="507" y="480"/>
			<point x="524" y="467"/>
			<point x="529" y="441" type="curve" smooth="yes"/>
			<point x="536" y="408"/>
			<point x="566" y="383"/>
			<point x="601" y="383" type="curve" smooth="yes"/>
			<point x="642" y="383"/>
			<point x="675" y="416"/>
			<point x="675" y="457" type="curve" smooth="yes"/>
			<point x="675" y="464"/>
			<point x="674" y="470"/>
			<point x="672" y="477" type="curve" smooth="yes"/>
			<point x="654" y="543"/>
			<point x="598" y="582"/>
		</contour>
	</outline>
</glyph>
<glyph name="guillemotleft" format="2">
	<advance width="697"/>
	<unicode hex="00AB"/>
	<note>
		guillemotleft
	</note>
	<outline>
		<contour>
			<point x="272" y="248" type="line"/>
			<point x="374" y="346" type="line" smooth="yes"/>
			<point x="382" y="354"/>
			<point x="388" y="366"/>
			<point x="388" y="378" type="curve" smooth="yes"/>
			<point x="388" y="403"/>
			<point x="368" y="423"/>
			<point x="343" y="423" type="curve" smooth="yes"/>
			<point x="331" y="423"/>
			<point x="320" y="418"/>
			<point x="312" y="411" type="curve" smooth="yes"/>
			<point x="204" y="307" type="line" smooth="yes"/>
			<point x="163" y="268"/>
			<point x="157" y="224"/>
			<point x="187" y="175" type="curve" smooth="yes"/>
			<point x="234" y="99" type="line" smooth="yes"/>
			<point x="243" y="84"/>
			<point x="261" y="73"/>
			<point x="281" y="73" type="curve" smooth="yes"/>
			<point x="312" y="73"/>
			<point x="336" y="98"/>
			<point x="336" y="128" type="curve" smooth="yes"/>
			<point x="336" y="139"/>
			<point x="333" y="148"/>
			<point x="328" y="157" type="curve" smooth="yes"/>
		</contour>
		<contour>
			<point x="512" y="248" type="line"/>
			<point x="614" y="346" type="line" smooth="yes"/>
			<point x="622" y="354"/>
			<point x="628" y="366"/>
			<point x="628" y="378" type="curve" smooth="yes"/>
			<point x="628" y="403"/>
			<point x="608" y="423"/>
			<point x="583" y="423" type="curve" smooth="yes"/>
			<point x="571" y="423"/>
			<point x="560" y="418"/>
			<point x="552" y="411" type="curve" smooth="yes"/>
			<point x="444" y="307" type="line" smooth="yes"/>
			<point x="403" y="268"/>
			<point x="397" y="224"/>
			<point x="427" y="175" type="curve" smooth="yes"/>
			<point x="474" y="99" type="line" smooth="yes"/>
			<point x="483" y="84"/>
			<point x="501" y="73"/>
			<point x="521" y="73" type="curve" smooth="yes"/>
			<point x="552" y="73"/>
			<point x="576" y="98"/>
			<point x="576" y="128" type="curve" smooth="yes"/>
			<point x="576" y="139"/>
			<point x="573" y="148"/>
			<point x="568" y="157" type="curve" smooth="yes"/>
		</contour>
	</outline>
</glyph>
<glyph name="logicalnot" format="2">
	<advance width="662"/>
	<unicode hex="00AC"/>
	<note>
		logicalnot
	</note>
	<outline>
		<contour>
			<point x="471" y="163"/>
			<point x="507" y="220" type="line" smooth="yes"/>
			<point x="531" y="259"/>
			<point x="548" y="295"/>
			<point x="525" y="337" type="curve" smooth="yes"/>
			<point x="503" y="374"/>
			<point x="463" y="399"/>
			<point x="417" y="399" type="curve" smooth="yes"/>
			<point x="348" y="399"/>
			<point x="293" y="344"/>
			<point x="293" y="275" type="curve" smooth="yes"/>
			<point x="293" y="206"/>
			<point x="348" y="151"/>
			<point x="417" y="151" type="curve" smooth="yes"/>
			<point x="428" y="151"/>
			<point x="421" y="234"/>
			<point x="416" y="304" type="curve" smooth="yes"/>
			<point x="412" y="366"/>
			<point x="383" y="398"/>
			<point x="322" y="398" type="curve" smooth="yes"/>
			<point x="178" y="398" type="line" smooth="yes"/>
			<point x="152" y="398"/>
			<point x="130" y="377"/>
			<point x="130" y="350" type="curve" smooth="yes"/>
			<point x="130" y="323"/>
			<point x="152" y="302"/>
			<point x="178" y="302" type="curve" smooth="yes"/>
			<point x="440" y="302" type="line"/>
			<point x="423" y="222" type="line" smooth="yes"/>
			<point x="417" y="192"/>
			<point x="440" y="163"/>
		</contour>
	</outline>
</glyph>
<glyph name="periodcentered" format="2">
	<advance width="280"/>
	<unicode hex="00B7"/>
	<note>
		periodcentered
	</note>
	<outline>
		<contour>
			<point x="90" y="203"/>
			<point x="145" y="203" type="curve" smooth="yes"/>
			<point x="176" y="203" type="line" smooth="yes"/>
			<point x="218" y="203"/>
			<point x="253" y="238"/>
			<point x="253" y="280" type="curve" smooth="yes"/>
			<point x="253" y="288"/>
			<point x="254" y="296"/>
			<point x="252" y="304" type="curve" smooth="yes"/>
			<point x="251" y="309"/>
			<point x="251" y="313"/>
			<point x="251" y="317" type="curve" smooth="yes"/>
			<point x="251" y="371"/>
			<point x="208" y="414"/>
			<point x="154" y="414" type="curve" smooth="yes"/>
			<point x="141" y="414"/>
			<point x="129" y="411"/>
			<point x="118" y="406" type="curve" smooth="yes"/>
			<point x="76" y="389"/>
			<point x="44" y="350"/>
			<point x="44" y="304" type="curve" smooth="yes"/>
			<point x="44" y="248"/>
		</contour>
	</outline>
</glyph>
<glyph name="cedilla" format="2">
	<advance width="300"/>
	<unicode hex="00B8"/>
	<note>
		cedilla
	</note>
	<outline>
		<contour>
			<point x="104" y="-42" type="curve"/>
			<point x="105" y="-41" type="line" smooth="yes"/>
			<point x="109" y="-35"/>
			<point x="111" y="-28"/>
			<point x="111" y="-19" type="curve" smooth="yes"/>
			<point x="111" y="1"/>
			<point x="95" y="18"/>
			<point x="74" y="18" type="curve" smooth="yes"/>
			<point x="69" y="18"/>
			<point x="63" y="17"/>
			<point x="59" y="15" type="curve" smooth="yes"/>
			<point x="35" y="4"/>
			<point x="17" y="-16"/>
			<point x="17" y="-41" type="curve" smooth="yes"/>
			<point x="17" y="-64"/>
			<point x="33" y="-83"/>
			<point x="54" y="-89" type="curve" smooth="yes"/>
			<point x="73" y="-95"/>
			<point x="78" y="-103"/>
			<point x="75" y="-114" type="curve" smooth="yes"/>
			<point x="72" y="-132"/>
			<point x="53" y="-141"/>
			<point x="10" y="-141" type="curve" smooth="yes"/>
			<point x="3" y="-141"/>
			<point x="-7" y="-141"/>
			<point x="-18" y="-139" type="curve" smooth="yes"/>
			<point x="-37" y="-137"/>
			<point x="-50" y="-146"/>
			<point x="-55" y="-169" type="curve" smooth="yes"/>
			<point x="-60" y="-192"/>
			<point x="-6" y="-210"/>
			<point x="-6" y="-210" type="curve" smooth="yes"/>
			<point x="86" y="-210"/>
			<point x="168" y="-188"/>
			<point x="182" y="-119" type="curve" smooth="yes"/>
			<point x="192" y="-74"/>
			<point x="165" y="-49"/>
		</contour>
	</outline>
</glyph>
<glyph name="questiondown" format="2">
	<advance width="559"/>
	<unicode hex="00BF"/>
	<note>
		questiondown
	</note>
	<outline>
		<contour>
			<point x="201" y="-170" type="curve" smooth="yes"/>
			<point x="309" y="-170"/>
			<point x="398" y="-131"/>
			<point x="455" y="-59" type="curve" smooth="yes"/>
			<point x="466" y="-46"/>
			<point x="473" y="-28"/>
			<point x="473" y="-9" type="curve" smooth="yes"/>
			<point x="473" y="35"/>
			<point x="437" y="71"/>
			<point x="392" y="71" type="curve" smooth="yes"/>
			<point x="359" y="71"/>
			<point x="332" y="51"/>
			<point x="320" y="22" type="curve" smooth="yes"/>
			<point x="302" y="-20"/>
			<point x="275" y="-38"/>
			<point x="242" y="-38" type="curve" smooth="yes"/>
			<point x="194" y="-38"/>
			<point x="177" y="-12"/>
			<point x="188" y="38" type="curve" smooth="yes"/>
			<point x="195" y="73"/>
			<point x="222" y="104"/>
			<point x="288" y="161" type="curve" smooth="yes"/>
			<point x="313" y="183"/>
			<point x="333" y="203"/>
			<point x="348" y="227" type="curve" smooth="yes"/>
			<point x="355" y="237"/>
			<point x="359" y="251"/>
			<point x="359" y="265" type="curve" smooth="yes"/>
			<point x="359" y="303"/>
			<point x="328" y="335"/>
			<point x="290" y="335" type="curve" smooth="yes"/>
			<point x="262" y="335"/>
			<point x="239" y="318"/>
			<point x="228" y="294" type="curve" smooth="yes"/>
			<point x="211" y="259"/>
			<point x="186" y="237"/>
			<point x="141" y="206" type="curve" smooth="yes"/>
			<point x="57" y="148"/>
			<point x="14" y="103"/>
			<point x="-3" y="23" type="curve" smooth="yes"/>
			<point x="-30" y="-100"/>
			<point x="47" y="-170"/>
		</contour>
		<contour>
			<point x="299" y="368"/>
			<point x="348" y="368" type="curve" smooth="yes"/>
			<point x="383" y="368"/>
			<point x="407" y="395"/>
			<point x="419" y="452" type="curve" smooth="yes"/>
			<point x="423" y="473" type="line" smooth="yes"/>
			<point x="431" y="513"/>
			<point x="402" y="555"/>
			<point x="356" y="555" type="curve" smooth="yes"/>
			<point x="349" y="555"/>
			<point x="342" y="554"/>
			<point x="336" y="552" type="curve" smooth="yes"/>
			<point x="293" y="540"/>
			<point x="259" y="502"/>
			<point x="259" y="457" type="curve" smooth="yes"/>
			<point x="259" y="408"/>
		</contour>
	</outline>
</glyph>
<glyph name="Acircumflex" format="2">
	<advance width="707"/>
	<unicode hex="00C2"/>
	<note>
		Acircumflex
	</note>
	<outline>
		<contour>
			<point x="430" y="733"/>
			<point x="437" y="745" type="curve" smooth="yes"/>
			<point x="478" y="811" type="line"/>
			<point x="487" y="773" type="line" smooth="yes"/>
			<point x="493" y="748"/>
			<point x="506" y="735"/>
			<point x="526" y="735" type="curve" smooth="yes"/>
			<point x="560" y="735"/>
			<point x="589" y="763"/>
			<point x="589" y="798" type="curve" smooth="yes"/>
			<point x="589" y="832"/>
			<point x="560" y="860"/>
			<point x="526" y="860" type="curve" smooth="yes"/>
			<point x="451" y="860" type="line" smooth="yes"/>
			<point x="405" y="860"/>
			<point x="365" y="826"/>
			<point x="360" y="780" type="curve" smooth="yes"/>
			<point x="360" y="776"/>
			<point x="359" y="772"/>
			<point x="359" y="768" type="curve" smooth="yes"/>
			<point x="359" y="745"/>
			<point x="378" y="726"/>
			<point x="401" y="726" type="curve" smooth="yes"/>
			<point x="416" y="726"/>
		</contour>
		<contour>
			<point x="235" y="179" type="line"/>
			<point x="450" y="179" type="line"/>
			<point x="462" y="76" type="line" smooth="yes"/>
			<point x="467" y="29"/>
			<point x="507" y="-9"/>
			<point x="556" y="-9" type="curve" smooth="yes"/>
			<point x="616" y="-9"/>
			<point x="659" y="45"/>
			<point x="651" y="101" type="curve" smooth="yes"/>
			<point x="576" y="603" type="line" smooth="yes"/>
			<point x="567" y="661"/>
			<point x="533" y="690"/>
			<point x="475" y="690" type="curve" smooth="yes"/>
			<point x="418" y="690" type="line" smooth="yes"/>
			<point x="366" y="690"/>
			<point x="332" y="671"/>
			<point x="306" y="625" type="curve" smooth="yes"/>
			<point x="13" y="114" type="line" smooth="yes"/>
			<point x="6" y="102"/>
			<point x="3" y="88"/>
			<point x="3" y="73" type="curve" smooth="yes"/>
			<point x="3" y="28"/>
			<point x="39" y="-9"/>
			<point x="85" y="-9" type="curve" smooth="yes"/>
			<point x="116" y="-9"/>
			<point x="143" y="9"/>
			<point x="157" y="34" type="curve" smooth="yes"/>
		</contour>
		<contour>
			<point x="308" y="319" type="line"/>
			<point x="418" y="531" type="line"/>
			<point x="436" y="319" type="line"/>
		</contour>
	</outline>
</glyph>
<glyph name="Atilde" format="2">
	<advance width="707"/>
	<unicode hex="00C3"/>
	<note>
		Atilde
	</note>
	<outline>
		<contour>
			<point x="418" y="773" type="curve" smooth="yes"/>
			<point x="426" y="773"/>
			<point x="438" y="768"/>
			<point x="460" y="758" type="curve" smooth="yes"/>
			<point x="493" y="742"/>
			<point x="509" y="739"/>
			<point x="538" y="739" type="curve" smooth="yes"/>
			<point x="586" y="739"/>
			<point x="618" y="763"/>
			<point x="639" y="821" type="curve" smooth="yes"/>
			<point x="641" y="826"/>
			<point x="642" y="831"/>
			<point x="642" y="837" type="curve" smooth="yes"/>
			<point x="642" y="862"/>
			<point x="622" y="882"/>
			<point x="597" y="882" type="curve" smooth="yes"/>
			<point x="577" y="882"/>
			<point x="561" y="870"/>
			<point x="554" y="854" type="curve" smooth="yes"/>
			<point x="550" y="845"/>
			<point x="545" y="842"/>
			<point x="539" y="842" type="curve" smooth="yes"/>
			<point x="531" y="842"/>
			<point x="518" y="846"/>
			<point x="497" y="857" type="curve" smooth="yes"/>
			<point x="464" y="873"/>
			<point x="448" y="876"/>
			<point x="419" y="876" type="curve" smooth="yes"/>
			<point x="372" y="876"/>
			<point x="339" y="852"/>
			<point x="317" y="795" type="curve" smooth="yes"/>
			<point x="315" y="790"/>
			<point x="314" y="785"/>
			<point x="314" y="779" type="curve" smooth="yes"/>
			<point x="314" y="753"/>
			<point x="335" y="733"/>
			<point x="360" y="733" type="curve" smooth="yes"/>
			<point x="379" y="733"/>
			<point x="396" y="745"/>
			<point x="403" y="761" type="curve" smooth="yes"/>
			<point x="407" y="770"/>
			<point x="411" y="773"/>
		</contour>
		<contour>
			<point x="235" y="179" type="line"/>
			<point x="450" y="179" type="line"/>
			<point x="462" y="76" type="line" smooth="yes"/>
			<point x="467" y="29"/>
			<point x="507" y="-9"/>
			<point x="556" y="-9" type="curve" smooth="yes"/>
			<point x="616" y="-9"/>
			<point x="659" y="45"/>
			<point x="651" y="101" type="curve" smooth="yes"/>
			<point x="576" y="603" type="line" smooth="yes"/>
			<point x="567" y="661"/>
			<point x="533" y="690"/>
			<point x="475" y="690" type="curve" smooth="yes"/>
			<point x="418" y="690" type="line" smooth="yes"/>
			<point x="366" y="690"/>
			<point x="332" y="671"/>
			<point x="306" y="625" type="curve" smooth="yes"/>
			<point x="13" y="114" type="line" smooth="yes"/>
			<point x="6" y="102"/>
			<point x="3" y="88"/>
			<point x="3" y="73" type="curve" smooth="yes"/>
			<point x="3" y="28"/>
			<point x="39" y="-9"/>
			<point x="85" y="-9" type="curve" smooth="yes"/>
			<point x="116" y="-9"/>
			<point x="143" y="9"/>
			<point x="157" y="34" type="curve" smooth="yes"/>
		</contour>
		<contour>
			<point x="308" y="319" type="line"/>
			<point x="418" y="531" type="line"/>
			<point x="436" y="319" type="line"/>
		</contour>
	</outline>
</glyph>
<glyph name="Adieresis" format="2">
	<advance width="707"/>
	<unicode hex="00C4"/>
	<note>
		Adieresis
	</note>
	<outline>
		<contour>
			<point x="235" y="179" type="line"/>
			<point x="450" y="179" type="line"/>
			<point x="462" y="76" type="line" smooth="yes"/>
			<point x="467" y="29"/>
			<point x="507" y="-9"/>
			<point x="556" y="-9" type="curve" smooth="yes"/>
			<point x="616" y="-9"/>
			<point x="659" y="45"/>
			<point x="651" y="101" type="curve" smooth="yes"/>
			<point x="576" y="603" type="line" smooth="yes"/>
			<point x="567" y="661"/>
			<point x="533" y="690"/>
			<point x="475" y="690" type="curve" smooth="yes"/>
			<point x="418" y="690" type="line" smooth="yes"/>
			<point x="366" y="690"/>
			<point x="332" y="671"/>
			<point x="306" y="625" type="curve" smooth="yes"/>
			<point x="13" y="114" type="line" smooth="yes"/>
			<point x="6" y="102"/>
			<point x="3" y="88"/>
			<point x="3" y="73" type="curve" smooth="yes"/>
			<point x="3" y="28"/>
			<point x="39" y="-9"/>
			<point x="85" y="-9" type="curve" smooth="yes"/>
			<point x="116" y="-9"/>
			<point x="143" y="9"/>
			<point x="157" y="34" type="curve" smooth="yes"/>
		</contour>
		<contour>
			<point x="308" y="319" type="line"/>
			<point x="418" y="531" type="line"/>
			<point x="436" y="319" type="line"/>
		</contour>
		<contour>
			<point x="328" y="724"/>
			<point x="368" y="724" type="curve" smooth="yes"/>
			<point x="414" y="724"/>
			<point x="442" y="745"/>
			<point x="451" y="790" type="curve" smooth="yes"/>
			<point x="460" y="835"/>
			<point x="426" y="880"/>
			<point x="378" y="880" type="curve" smooth="yes"/>
			<point x="366" y="880"/>
			<point x="354" y="876"/>
			<point x="344" y="871" type="curve" smooth="yes"/>
			<point x="316" y="857"/>
			<point x="295" y="830"/>
			<point x="295" y="797" type="curve" smooth="yes"/>
			<point x="295" y="757"/>
		</contour>
		<contour>
			<point x="529" y="724"/>
			<point x="569" y="724" type="curve" smooth="yes"/>
			<point x="615" y="724"/>
			<point x="643" y="745"/>
			<point x="652" y="790" type="curve" smooth="yes"/>
			<point x="661" y="835"/>
			<point x="627" y="880"/>
			<point x="579" y="880" type="curve" smooth="yes"/>
			<point x="567" y="880"/>
			<point x="556" y="877"/>
			<point x="546" y="872" type="curve" smooth="yes"/>
			<point x="517" y="857"/>
			<point x="496" y="830"/>
			<point x="496" y="798" type="curve" smooth="yes"/>
			<point x="496" y="757"/>
		</contour>
	</outline>
</glyph>
<glyph name="AE" format="2">
	<advance width="996"/>
	<unicode hex="00C6"/>
	<note>
		AE
	</note>
	<outline>
		<contour>
			<point x="900" y="140"/>
			<point x="862" y="140" type="curve" smooth="yes"/>
			<point x="607" y="140" type="line"/>
			<point x="620" y="276" type="line"/>
			<point x="891" y="276" type="line" smooth="yes"/>
			<point x="929" y="276"/>
			<point x="961" y="307"/>
			<point x="961" y="346" type="curve" smooth="yes"/>
			<point x="961" y="385"/>
			<point x="929" y="416"/>
			<point x="891" y="416" type="curve" smooth="yes"/>
			<point x="634" y="416" type="line"/>
			<point x="648" y="560" type="line"/>
			<point x="650" y="555" type="line" smooth="yes"/>
			<point x="651" y="552"/>
			<point x="678" y="550"/>
			<point x="732" y="550" type="curve" smooth="yes"/>
			<point x="969" y="550" type="line" smooth="yes"/>
			<point x="1007" y="550"/>
			<point x="1039" y="581"/>
			<point x="1039" y="620" type="curve" smooth="yes"/>
			<point x="1039" y="659"/>
			<point x="1007" y="690"/>
			<point x="969" y="690" type="curve" smooth="yes"/>
			<point x="479" y="690" type="line" smooth="yes"/>
			<point x="429" y="690"/>
			<point x="394" y="673"/>
			<point x="364" y="632" type="curve" smooth="yes"/>
			<point x="-15" y="113" type="line" smooth="yes"/>
			<point x="-24" y="100"/>
			<point x="-30" y="85"/>
			<point x="-30" y="68" type="curve" smooth="yes"/>
			<point x="-30" y="25"/>
			<point x="4" y="-9"/>
			<point x="46" y="-9" type="curve" smooth="yes"/>
			<point x="73" y="-9"/>
			<point x="96" y="4"/>
			<point x="110" y="24" type="curve" smooth="yes"/>
			<point x="236" y="209" type="line"/>
			<point x="434" y="209" type="line"/>
			<point x="423" y="99" type="line" smooth="yes"/>
			<point x="417" y="35"/>
			<point x="451" y="0"/>
			<point x="514" y="0" type="curve" smooth="yes"/>
			<point x="862" y="0" type="line" smooth="yes"/>
			<point x="900" y="0"/>
			<point x="932" y="31"/>
			<point x="932" y="70" type="curve" smooth="yes"/>
			<point x="932" y="109"/>
		</contour>
		<contour>
			<point x="466" y="543" type="line"/>
			<point x="448" y="349" type="line"/>
			<point x="333" y="349" type="line"/>
		</contour>
	</outline>
</glyph>
<glyph name="Ccedilla" format="2">
	<advance width="734"/>
	<unicode hex="00C7"/>
	<note>
		Ccedilla
	</note>
	<outline>
		<contour>
			<point x="563" y="295"/>
			<point x="555" y="286" type="curve" smooth="yes"/>
			<point x="523" y="253"/>
			<point x="515" y="222"/>
			<point x="490" y="185" type="curve" smooth="yes"/>
			<point x="458" y="142"/>
			<point x="415" y="118"/>
			<point x="363" y="118" type="curve" smooth="yes"/>
			<point x="283" y="118"/>
			<point x="223" y="177"/>
			<point x="260" y="351" type="curve" smooth="yes"/>
			<point x="292" y="500"/>
			<point x="372" y="572"/>
			<point x="458" y="572" type="curve" smooth="yes"/>
			<point x="505" y="572"/>
			<point x="538" y="557"/>
			<point x="555" y="527" type="curve" smooth="yes"/>
			<point x="578" y="483"/>
			<point x="577" y="442"/>
			<point x="621" y="425" type="curve" smooth="yes"/>
			<point x="634" y="421"/>
			<point x="647" y="418"/>
			<point x="662" y="418" type="curve" smooth="yes"/>
			<point x="680" y="418"/>
			<point x="696" y="423"/>
			<point x="710" y="431" type="curve" smooth="yes"/>
			<point x="742" y="449"/>
			<point x="755" y="482"/>
			<point x="748" y="529" type="curve" smooth="yes"/>
			<point x="734" y="632"/>
			<point x="651" y="704"/>
			<point x="488" y="704" type="curve" smooth="yes"/>
			<point x="301" y="704"/>
			<point x="121" y="580"/>
			<point x="70" y="340" type="curve" smooth="yes"/>
			<point x="26" y="133"/>
			<point x="117" y="15"/>
			<point x="267" y="-9" type="curve"/>
			<point x="240" y="-49" type="line" smooth="yes"/>
			<point x="223" y="-73"/>
			<point x="303" y="-114"/>
			<point x="303" y="-114" type="curve" smooth="yes"/>
			<point x="300" y="-132"/>
			<point x="281" y="-141"/>
			<point x="238" y="-141" type="curve" smooth="yes"/>
			<point x="231" y="-141"/>
			<point x="221" y="-141"/>
			<point x="210" y="-139" type="curve" smooth="yes"/>
			<point x="191" y="-137"/>
			<point x="179" y="-146"/>
			<point x="174" y="-169" type="curve" smooth="yes"/>
			<point x="169" y="-192"/>
			<point x="222" y="-210"/>
			<point x="222" y="-210" type="curve" smooth="yes"/>
			<point x="314" y="-210"/>
			<point x="396" y="-188"/>
			<point x="410" y="-119" type="curve" smooth="yes"/>
			<point x="420" y="-74"/>
			<point x="393" y="-49"/>
			<point x="332" y="-42" type="curve"/>
			<point x="352" y="-13" type="line"/>
			<point x="489" y="-7"/>
			<point x="607" y="54"/>
			<point x="670" y="169" type="curve" smooth="yes"/>
			<point x="695" y="215"/>
			<point x="692" y="262"/>
			<point x="646" y="286" type="curve" smooth="yes"/>
			<point x="628" y="295"/>
			<point x="608" y="300"/>
			<point x="586" y="300" type="curve" smooth="yes"/>
			<point x="573" y="300"/>
		</contour>
	</outline>
</glyph>
<glyph name="Egrave" format="2">
	<advance width="639"/>
	<unicode hex="00C8"/>
	<note>
		Egrave
	</note>
	<outline>
		<contour>
			<point x="383" y="735"/>
			<point x="417" y="735" type="curve"/>
			<point x="447" y="739"/>
			<point x="471" y="766"/>
			<point x="471" y="798" type="curve" smooth="yes"/>
			<point x="471" y="829"/>
			<point x="447" y="856"/>
			<point x="417" y="860" type="curve"/>
			<point x="383" y="860"/>
			<point x="355" y="832"/>
			<point x="355" y="797" type="curve" smooth="yes"/>
			<point x="355" y="763"/>
		</contour>
		<contour>
			<point x="543" y="140"/>
			<point x="505" y="140" type="curve" smooth="yes"/>
			<point x="233" y="140" type="line"/>
			<point x="262" y="276" type="line"/>
			<point x="534" y="276" type="line" smooth="yes"/>
			<point x="572" y="276"/>
			<point x="604" y="307"/>
			<point x="604" y="346" type="curve" smooth="yes"/>
			<point x="604" y="385"/>
			<point x="572" y="416"/>
			<point x="534" y="416" type="curve" smooth="yes"/>
			<point x="292" y="416" type="line"/>
			<point x="321" y="550" type="line"/>
			<point x="612" y="550" type="line" smooth="yes"/>
			<point x="650" y="550"/>
			<point x="682" y="581"/>
			<point x="682" y="620" type="curve" smooth="yes"/>
			<point x="682" y="659"/>
			<point x="650" y="690"/>
			<point x="612" y="690" type="curve" smooth="yes"/>
			<point x="256" y="690" type="line" smooth="yes"/>
			<point x="199" y="690"/>
			<point x="164" y="663"/>
			<point x="152" y="606" type="curve" smooth="yes"/>
			<point x="46" y="104" type="line" smooth="yes"/>
			<point x="32" y="39"/>
			<point x="64" y="0"/>
			<point x="130" y="0" type="curve" smooth="yes"/>
			<point x="505" y="0" type="line" smooth="yes"/>
			<point x="543" y="0"/>
			<point x="575" y="31"/>
			<point x="575" y="70" type="curve" smooth="yes"/>
			<point x="575" y="109"/>
		</contour>
	</outline>
</glyph>
<glyph name="Edieresis" format="2">
	<advance width="639"/>
	<unicode hex="00CB"/>
	<note>
		Edieresis
	</note>
	<outline>
		<contour>
			<point x="543" y="140"/>
			<point x="505" y="140" type="curve" smooth="yes"/>
			<point x="233" y="140" type="line"/>
			<point x="262" y="276" type="line"/>
			<point x="534" y="276" type="line" smooth="yes"/>
			<point x="572" y="276"/>
			<point x="604" y="307"/>
			<point x="604" y="346" type="curve" smooth="yes"/>
			<point x="604" y="385"/>
			<point x="572" y="416"/>
			<point x="534" y="416" type="curve" smooth="yes"/>
			<point x="292" y="416" type="line"/>
			<point x="321" y="550" type="line"/>
			<point x="612" y="550" type="line" smooth="yes"/>
			<point x="650" y="550"/>
			<point x="682" y="581"/>
			<point x="682" y="620" type="curve" smooth="yes"/>
			<point x="682" y="659"/>
			<point x="650" y="690"/>
			<point x="612" y="690" type="curve" smooth="yes"/>
			<point x="256" y="690" type="line" smooth="yes"/>
			<point x="199" y="690"/>
			<point x="164" y="663"/>
			<point x="152" y="606" type="curve" smooth="yes"/>
			<point x="46" y="104" type="line" smooth="yes"/>
			<point x="32" y="39"/>
			<point x="64" y="0"/>
			<point x="130" y="0" type="curve" smooth="yes"/>
			<point x="505" y="0" type="line" smooth="yes"/>
			<point x="543" y="0"/>
			<point x="575" y="31"/>
			<point x="575" y="70" type="curve" smooth="yes"/>
			<point x="575" y="109"/>
		</contour>
		<contour>
			<point x="302" y="722"/>
			<point x="342" y="722" type="curve" smooth="yes"/>
			<point x="388" y="722"/>
			<point x="416" y="743"/>
			<point x="425" y="788" type="curve" smooth="yes"/>
			<point x="434" y="833"/>
			<point x="400" y="878"/>
			<point x="352" y="878" type="curve" smooth="yes"/>
			<point x="340" y="878"/>
			<point x="329" y="875"/>
			<point x="319" y="870" type="curve" smooth="yes"/>
			<point x="290" y="855"/>
			<point x="269" y="828"/>
			<point x="269" y="796" type="curve" smooth="yes"/>
			<point x="269" y="755"/>
		</contour>
		<contour>
			<point x="503" y="722"/>
			<point x="543" y="722" type="curve" smooth="yes"/>
			<point x="589" y="722"/>
			<point x="617" y="743"/>
			<point x="626" y="788" type="curve" smooth="yes"/>
			<point x="635" y="833"/>
			<point x="601" y="878"/>
			<point x="553" y="878" type="curve" smooth="yes"/>
			<point x="541" y="878"/>
			<point x="529" y="874"/>
			<point x="519" y="869" type="curve" smooth="yes"/>
			<point x="491" y="855"/>
			<point x="470" y="828"/>
			<point x="470" y="795" type="curve" smooth="yes"/>
			<point x="470" y="755"/>
		</contour>
	</outline>
</glyph>
<glyph name="Idieresis" format="2">
	<advance width="314"/>
	<unicode hex="00CF"/>
	<note>
		Idieresis
	</note>
	<outline>
		<contour>
			<point x="209" y="22"/>
			<point x="217" y="61" type="curve" smooth="yes"/>
			<point x="329" y="593" type="line" smooth="yes"/>
			<point x="330" y="598"/>
			<point x="331" y="605"/>
			<point x="331" y="611" type="curve" smooth="yes"/>
			<point x="331" y="660"/>
			<point x="292" y="699"/>
			<point x="243" y="699" type="curve" smooth="yes"/>
			<point x="201" y="699"/>
			<point x="165" y="669"/>
			<point x="157" y="629" type="curve" smooth="yes"/>
			<point x="45" y="97" type="line" smooth="yes"/>
			<point x="44" y="92"/>
			<point x="43" y="85"/>
			<point x="43" y="79" type="curve" smooth="yes"/>
			<point x="43" y="30"/>
			<point x="82" y="-9"/>
			<point x="131" y="-9" type="curve" smooth="yes"/>
			<point x="173" y="-9"/>
		</contour>
		<contour>
			<point x="137" y="721"/>
			<point x="177" y="721" type="curve" smooth="yes"/>
			<point x="223" y="721"/>
			<point x="250" y="742"/>
			<point x="259" y="787" type="curve" smooth="yes"/>
			<point x="269" y="833"/>
			<point x="235" y="877"/>
			<point x="187" y="877" type="curve" smooth="yes"/>
			<point x="175" y="877"/>
			<point x="164" y="874"/>
			<point x="154" y="869" type="curve" smooth="yes"/>
			<point x="125" y="855"/>
			<point x="104" y="827"/>
			<point x="104" y="795" type="curve" smooth="yes"/>
			<point x="104" y="754"/>
		</contour>
		<contour>
			<point x="338" y="721"/>
			<point x="378" y="721" type="curve" smooth="yes"/>
			<point x="424" y="721"/>
			<point x="451" y="742"/>
			<point x="460" y="787" type="curve" smooth="yes"/>
			<point x="470" y="833"/>
			<point x="436" y="877"/>
			<point x="388" y="877" type="curve" smooth="yes"/>
			<point x="376" y="877"/>
			<point x="365" y="874"/>
			<point x="355" y="869" type="curve" smooth="yes"/>
			<point x="326" y="854"/>
			<point x="305" y="827"/>
			<point x="305" y="794" type="curve" smooth="yes"/>
			<point x="305" y="754"/>
		</contour>
	</outline>
</glyph>
<glyph name="Eth" format="2">
	<advance width="759"/>
	<unicode hex="00D0"/>
	<note>
		Eth
	</note>
	<outline>
		<contour>
			<point x="528" y="686" type="curve" smooth="yes"/>
			<point x="494" y="690"/>
			<point x="478" y="690"/>
			<point x="441" y="690" type="curve" smooth="yes"/>
			<point x="266" y="690" type="line" smooth="yes"/>
			<point x="209" y="690"/>
			<point x="174" y="663"/>
			<point x="162" y="606" type="curve" smooth="yes"/>
			<point x="116" y="389" type="line"/>
			<point x="87" y="389" type="line" smooth="yes"/>
			<point x="61" y="389"/>
			<point x="39" y="368"/>
			<point x="39" y="341" type="curve" smooth="yes"/>
			<point x="39" y="314"/>
			<point x="61" y="293"/>
			<point x="87" y="293" type="curve" smooth="yes"/>
			<point x="96" y="293" type="line"/>
			<point x="56" y="104" type="line" smooth="yes"/>
			<point x="42" y="39"/>
			<point x="74" y="0"/>
			<point x="140" y="0" type="curve" smooth="yes"/>
			<point x="295" y="0" type="line" smooth="yes"/>
			<point x="332" y="0"/>
			<point x="348" y="0"/>
			<point x="384" y="4" type="curve" smooth="yes"/>
			<point x="547" y="22"/>
			<point x="704" y="138"/>
			<point x="750" y="354" type="curve" smooth="yes"/>
			<point x="796" y="570"/>
			<point x="685" y="668"/>
		</contour>
		<contour>
			<point x="365" y="142" type="curve" smooth="yes"/>
			<point x="341" y="140"/>
			<point x="325" y="140"/>
			<point x="299" y="140" type="curve" smooth="yes"/>
			<point x="243" y="140" type="line"/>
			<point x="276" y="293" type="line"/>
			<point x="348" y="293" type="line" smooth="yes"/>
			<point x="374" y="293"/>
			<point x="396" y="314"/>
			<point x="396" y="341" type="curve" smooth="yes"/>
			<point x="396" y="368"/>
			<point x="374" y="389"/>
			<point x="348" y="389" type="curve" smooth="yes"/>
			<point x="296" y="389" type="line"/>
			<point x="331" y="550" type="line"/>
			<point x="387" y="550" type="line" smooth="yes"/>
			<point x="413" y="550"/>
			<point x="429" y="550"/>
			<point x="451" y="548" type="curve" smooth="yes"/>
			<point x="539" y="540"/>
			<point x="587" y="474"/>
			<point x="561" y="351" type="curve" smooth="yes"/>
			<point x="535" y="228"/>
			<point x="457" y="150"/>
		</contour>
	</outline>
</glyph>
<glyph name="Ntilde" format="2">
	<advance width="794"/>
	<unicode hex="00D1"/>
	<note>
		Ntilde
	</note>
	<outline>
		<contour>
			<point x="461" y="876" type="curve" smooth="yes"/>
			<point x="414" y="876"/>
			<point x="381" y="852"/>
			<point x="359" y="795" type="curve" smooth="yes"/>
			<point x="357" y="790"/>
			<point x="356" y="785"/>
			<point x="356" y="779" type="curve" smooth="yes"/>
			<point x="356" y="753"/>
			<point x="377" y="733"/>
			<point x="402" y="733" type="curve" smooth="yes"/>
			<point x="421" y="733"/>
			<point x="438" y="745"/>
			<point x="445" y="761" type="curve" smooth="yes"/>
			<point x="449" y="770"/>
			<point x="453" y="773"/>
			<point x="460" y="773" type="curve" smooth="yes"/>
			<point x="468" y="773"/>
			<point x="480" y="768"/>
			<point x="502" y="758" type="curve" smooth="yes"/>
			<point x="535" y="742"/>
			<point x="551" y="739"/>
			<point x="580" y="739" type="curve" smooth="yes"/>
			<point x="628" y="739"/>
			<point x="660" y="763"/>
			<point x="681" y="821" type="curve" smooth="yes"/>
			<point x="683" y="826"/>
			<point x="684" y="831"/>
			<point x="684" y="837" type="curve" smooth="yes"/>
			<point x="684" y="862"/>
			<point x="664" y="882"/>
			<point x="639" y="882" type="curve" smooth="yes"/>
			<point x="619" y="882"/>
			<point x="603" y="870"/>
			<point x="596" y="854" type="curve" smooth="yes"/>
			<point x="592" y="845"/>
			<point x="587" y="842"/>
			<point x="581" y="842" type="curve" smooth="yes"/>
			<point x="573" y="842"/>
			<point x="560" y="846"/>
			<point x="539" y="857" type="curve" smooth="yes"/>
			<point x="506" y="873"/>
			<point x="490" y="876"/>
		</contour>
		<contour>
			<point x="530" y="0" type="curve" smooth="yes"/>
			<point x="598" y="0" type="line" smooth="yes"/>
			<point x="655" y="0"/>
			<point x="690" y="27"/>
			<point x="702" y="84" type="curve" smooth="yes"/>
			<point x="809" y="593" type="line" smooth="yes"/>
			<point x="810" y="598"/>
			<point x="811" y="605"/>
			<point x="811" y="611" type="curve" smooth="yes"/>
			<point x="811" y="660"/>
			<point x="772" y="699"/>
			<point x="723" y="699" type="curve" smooth="yes"/>
			<point x="681" y="699"/>
			<point x="645" y="669"/>
			<point x="637" y="629" type="curve" smooth="yes"/>
			<point x="588" y="395" type="line" smooth="yes"/>
			<point x="579" y="355"/>
			<point x="565" y="284"/>
			<point x="555" y="214" type="curve"/>
			<point x="424" y="602" type="line" smooth="yes"/>
			<point x="405" y="658"/>
			<point x="351" y="699"/>
			<point x="288" y="699" type="curve" smooth="yes"/>
			<point x="219" y="699"/>
			<point x="162" y="650"/>
			<point x="148" y="585" type="curve" smooth="yes"/>
			<point x="45" y="97" type="line" smooth="yes"/>
			<point x="44" y="92"/>
			<point x="43" y="85"/>
			<point x="43" y="79" type="curve" smooth="yes"/>
			<point x="43" y="30"/>
			<point x="82" y="-9"/>
			<point x="131" y="-9" type="curve" smooth="yes"/>
			<point x="173" y="-9"/>
			<point x="209" y="21"/>
			<point x="217" y="61" type="curve" smooth="yes"/>
			<point x="264" y="285" type="line" smooth="yes"/>
			<point x="273" y="325"/>
			<point x="286" y="386"/>
			<point x="295" y="456" type="curve"/>
			<point x="423" y="77" type="line" smooth="yes"/>
			<point x="441" y="24"/>
			<point x="475" y="0"/>
		</contour>
	</outline>
</glyph>
<glyph name="Odieresis" format="2">
	<advance width="788"/>
	<unicode hex="00D6"/>
	<note>
		Odieresis
	</note>
	<outline>
		<contour>
			<point x="500" y="704" type="curve" smooth="yes"/>
			<point x="285" y="704"/>
			<point x="118" y="567"/>
			<point x="71" y="345" type="curve" smooth="yes"/>
			<point x="24" y="124"/>
			<point x="133" y="-14"/>
			<point x="348" y="-14" type="curve" smooth="yes"/>
			<point x="563" y="-14"/>
			<point x="730" y="124"/>
			<point x="777" y="345" type="curve" smooth="yes"/>
			<point x="824" y="567"/>
			<point x="715" y="704"/>
		</contour>
		<contour>
			<point x="376" y="118" type="curve" smooth="yes"/>
			<point x="272" y="118"/>
			<point x="224" y="199"/>
			<point x="255" y="345" type="curve" smooth="yes"/>
			<point x="286" y="492"/>
			<point x="368" y="572"/>
			<point x="472" y="572" type="curve" smooth="yes"/>
			<point x="576" y="572"/>
			<point x="624" y="492"/>
			<point x="593" y="345" type="curve" smooth="yes"/>
			<point x="562" y="199"/>
			<point x="480" y="118"/>
		</contour>
		<contour>
			<point x="372" y="724"/>
			<point x="412" y="724" type="curve" smooth="yes"/>
			<point x="458" y="724"/>
			<point x="486" y="745"/>
			<point x="495" y="790" type="curve" smooth="yes"/>
			<point x="504" y="835"/>
			<point x="470" y="880"/>
			<point x="422" y="880" type="curve" smooth="yes"/>
			<point x="410" y="880"/>
			<point x="398" y="876"/>
			<point x="388" y="871" type="curve" smooth="yes"/>
			<point x="360" y="857"/>
			<point x="339" y="830"/>
			<point x="339" y="797" type="curve" smooth="yes"/>
			<point x="339" y="757"/>
		</contour>
		<contour>
			<point x="573" y="724"/>
			<point x="613" y="724" type="curve" smooth="yes"/>
			<point x="659" y="724"/>
			<point x="687" y="745"/>
			<point x="696" y="790" type="curve" smooth="yes"/>
			<point x="705" y="835"/>
			<point x="671" y="880"/>
			<point x="623" y="880" type="curve" smooth="yes"/>
			<point x="611" y="880"/>
			<point x="600" y="877"/>
			<point x="590" y="872" type="curve" smooth="yes"/>
			<point x="561" y="857"/>
			<point x="540" y="830"/>
			<point x="540" y="798" type="curve" smooth="yes"/>
			<point x="540" y="757"/>
		</contour>
	</outline>
</glyph>
<glyph name="multiply" format="2">
	<advance width="662"/>
	<unicode hex="00D7"/>
	<note>
		multiply
	</note>
	<outline>
		<contour>
			<point x="508" y="210" type="curve" smooth="yes"/>
			<point x="415" y="329" type="line"/>
			<point x="574" y="461" type="line" smooth="yes"/>
			<point x="584" y="469"/>
			<point x="591" y="482"/>
			<point x="591" y="495" type="curve" smooth="yes"/>
			<point x="591" y="520"/>
			<point x="571" y="540"/>
			<point x="546" y="540" type="curve" smooth="yes"/>
			<point x="535" y="540"/>
			<point x="526" y="537"/>
			<point x="518" y="530" type="curve" smooth="yes"/>
			<point x="359" y="399" type="line"/>
			<point x="267" y="516" type="line" smooth="yes"/>
			<point x="257" y="528"/>
			<point x="242" y="537"/>
			<point x="224" y="537" type="curve" smooth="yes"/>
			<point x="194" y="537"/>
			<point x="169" y="512"/>
			<point x="169" y="482" type="curve" smooth="yes"/>
			<point x="169" y="469"/>
			<point x="174" y="457"/>
			<point x="181" y="448" type="curve" smooth="yes"/>
			<point x="275" y="329" type="line"/>
			<point x="115" y="197" type="line" smooth="yes"/>
			<point x="105" y="189"/>
			<point x="98" y="176"/>
			<point x="98" y="163" type="curve" smooth="yes"/>
			<point x="98" y="138"/>
			<point x="118" y="118"/>
			<point x="143" y="118" type="curve" smooth="yes"/>
			<point x="154" y="118"/>
			<point x="163" y="121"/>
			<point x="171" y="128" type="curve" smooth="yes"/>
			<point x="330" y="259" type="line"/>
			<point x="422" y="142" type="line" smooth="yes"/>
			<point x="432" y="130"/>
			<point x="447" y="121"/>
			<point x="465" y="121" type="curve" smooth="yes"/>
			<point x="495" y="121"/>
			<point x="520" y="146"/>
			<point x="520" y="176" type="curve" smooth="yes"/>
			<point x="520" y="189"/>
			<point x="515" y="201"/>
		</contour>
	</outline>
</glyph>
<glyph name="Oslash" format="2">
	<advance width="790"/>
	<unicode hex="00D8"/>
	<note>
		Oslash
	</note>
	<outline>
		<contour>
			<point x="763" y="566" type="curve"/>
			<point x="817" y="611" type="line" smooth="yes"/>
			<point x="827" y="619"/>
			<point x="834" y="632"/>
			<point x="834" y="645" type="curve" smooth="yes"/>
			<point x="834" y="670"/>
			<point x="814" y="690"/>
			<point x="789" y="690" type="curve" smooth="yes"/>
			<point x="778" y="690"/>
			<point x="769" y="687"/>
			<point x="761" y="680" type="curve" smooth="yes"/>
			<point x="710" y="638" type="line"/>
			<point x="660" y="681"/>
			<point x="590" y="704"/>
			<point x="501" y="704" type="curve" smooth="yes"/>
			<point x="286" y="704"/>
			<point x="119" y="567"/>
			<point x="72" y="345" type="curve" smooth="yes"/>
			<point x="53" y="257"/>
			<point x="59" y="182"/>
			<point x="87" y="124" type="curve"/>
			<point x="33" y="79" type="line" smooth="yes"/>
			<point x="23" y="71"/>
			<point x="16" y="58"/>
			<point x="16" y="45" type="curve" smooth="yes"/>
			<point x="16" y="20"/>
			<point x="36" y="0"/>
			<point x="61" y="0" type="curve" smooth="yes"/>
			<point x="72" y="0"/>
			<point x="81" y="3"/>
			<point x="89" y="10" type="curve" smooth="yes"/>
			<point x="141" y="53" type="line"/>
			<point x="190" y="9"/>
			<point x="260" y="-14"/>
			<point x="349" y="-14" type="curve" smooth="yes"/>
			<point x="564" y="-14"/>
			<point x="731" y="124"/>
			<point x="778" y="345" type="curve" smooth="yes"/>
			<point x="797" y="433"/>
			<point x="791" y="508"/>
		</contour>
		<contour>
			<point x="256" y="345" type="curve" smooth="yes"/>
			<point x="287" y="492"/>
			<point x="369" y="572"/>
			<point x="473" y="572" type="curve" smooth="yes"/>
			<point x="519" y="572"/>
			<point x="554" y="557"/>
			<point x="576" y="527" type="curve"/>
			<point x="247" y="256" type="line"/>
			<point x="246" y="282"/>
			<point x="249" y="312"/>
		</contour>
		<contour>
			<point x="594" y="345" type="curve" smooth="yes"/>
			<point x="563" y="199"/>
			<point x="481" y="118"/>
			<point x="377" y="118" type="curve" smooth="yes"/>
			<point x="331" y="118"/>
			<point x="296" y="133"/>
			<point x="274" y="163" type="curve"/>
			<point x="603" y="434" type="line"/>
			<point x="604" y="408"/>
			<point x="601" y="378"/>
		</contour>
	</outline>
</glyph>
<glyph name="Ugrave" format="2">
	<advance width="718"/>
	<unicode hex="00D9"/>
	<note>
		Ugrave
	</note>
	<outline>
		<contour>
			<point x="511" y="771"/>
			<point x="511" y="779"/>
			<point x="478" y="860"/>
			<point x="432" y="869"/>
			<point x="406" y="833" type="curve" smooth="yes"/>
			<point x="399" y="822"/>
			<point x="394" y="809"/>
			<point x="394" y="794" type="curve" smooth="yes"/>
			<point x="394" y="763"/>
			<point x="416" y="737"/>
			<point x="444" y="730" type="curve" smooth="yes"/>
			<point x="451" y="728"/>
			<point x="459" y="726"/>
			<point x="466" y="726" type="curve" smooth="yes"/>
			<point x="491" y="726"/>
			<point x="511" y="746"/>
			<point x="511" y="771" type="curve" smooth="yes"/>
			<point x="511" y="771"/>
		</contour>
		<contour>
			<point x="688" y="303" type="curve" smooth="yes"/>
			<point x="749" y="593" type="line" smooth="yes"/>
			<point x="750" y="598"/>
			<point x="751" y="605"/>
			<point x="751" y="611" type="curve" smooth="yes"/>
			<point x="751" y="660"/>
			<point x="712" y="699"/>
			<point x="663" y="699" type="curve" smooth="yes"/>
			<point x="621" y="699"/>
			<point x="585" y="668"/>
			<point x="577" y="629" type="curve" smooth="yes"/>
			<point x="501" y="270" type="line" smooth="yes"/>
			<point x="497" y="251"/>
			<point x="495" y="241"/>
			<point x="491" y="229" type="curve" smooth="yes"/>
			<point x="471" y="157"/>
			<point x="422" y="118"/>
			<point x="343" y="118" type="curve" smooth="yes"/>
			<point x="264" y="118"/>
			<point x="231" y="157"/>
			<point x="241" y="229" type="curve" smooth="yes"/>
			<point x="243" y="241"/>
			<point x="245" y="251"/>
			<point x="249" y="270" type="curve" smooth="yes"/>
			<point x="317" y="593" type="line" smooth="yes"/>
			<point x="318" y="598"/>
			<point x="319" y="605"/>
			<point x="319" y="611" type="curve" smooth="yes"/>
			<point x="319" y="660"/>
			<point x="280" y="699"/>
			<point x="231" y="699" type="curve" smooth="yes"/>
			<point x="189" y="699"/>
			<point x="153" y="668"/>
			<point x="145" y="629" type="curve" smooth="yes"/>
			<point x="76" y="303" type="line" smooth="yes"/>
			<point x="69" y="268"/>
			<point x="64" y="247"/>
			<point x="58" y="206" type="curve" smooth="yes"/>
			<point x="42" y="90"/>
			<point x="102" y="-14"/>
			<point x="315" y="-14" type="curve" smooth="yes"/>
			<point x="528" y="-14"/>
			<point x="632" y="90"/>
			<point x="664" y="206" type="curve" smooth="yes"/>
			<point x="676" y="247"/>
			<point x="681" y="268"/>
		</contour>
	</outline>
</glyph>
<glyph name="Uacute" format="2">
	<advance width="718"/>
	<unicode hex="00DA"/>
	<note>
		Uacute
	</note>
	<outline>
		<contour>
			<point x="492" y="726"/>
			<point x="493" y="727" type="curve" smooth="yes"/>
			<point x="581" y="801"/>
			<point x="574" y="868"/>
			<point x="574" y="868" type="curve" smooth="yes"/>
			<point x="537" y="861"/>
			<point x="503" y="842"/>
			<point x="481" y="813" type="curve" smooth="yes"/>
			<point x="455" y="778"/>
			<point x="492" y="726"/>
			<point x="492" y="726" type="curve"/>
			<point x="492" y="726"/>
		</contour>
		<contour>
			<point x="688" y="303" type="curve" smooth="yes"/>
			<point x="749" y="593" type="line" smooth="yes"/>
			<point x="750" y="598"/>
			<point x="751" y="605"/>
			<point x="751" y="611" type="curve" smooth="yes"/>
			<point x="751" y="660"/>
			<point x="712" y="699"/>
			<point x="663" y="699" type="curve" smooth="yes"/>
			<point x="621" y="699"/>
			<point x="585" y="668"/>
			<point x="577" y="629" type="curve" smooth="yes"/>
			<point x="501" y="270" type="line" smooth="yes"/>
			<point x="497" y="251"/>
			<point x="495" y="241"/>
			<point x="491" y="229" type="curve" smooth="yes"/>
			<point x="471" y="157"/>
			<point x="422" y="118"/>
			<point x="343" y="118" type="curve" smooth="yes"/>
			<point x="264" y="118"/>
			<point x="231" y="157"/>
			<point x="241" y="229" type="curve" smooth="yes"/>
			<point x="243" y="241"/>
			<point x="245" y="251"/>
			<point x="249" y="270" type="curve" smooth="yes"/>
			<point x="317" y="593" type="line" smooth="yes"/>
			<point x="318" y="598"/>
			<point x="319" y="605"/>
			<point x="319" y="611" type="curve" smooth="yes"/>
			<point x="319" y="660"/>
			<point x="280" y="699"/>
			<point x="231" y="699" type="curve" smooth="yes"/>
			<point x="189" y="699"/>
			<point x="153" y="668"/>
			<point x="145" y="629" type="curve" smooth="yes"/>
			<point x="76" y="303" type="line" smooth="yes"/>
			<point x="69" y="268"/>
			<point x="64" y="247"/>
			<point x="58" y="206" type="curve" smooth="yes"/>
			<point x="42" y="90"/>
			<point x="102" y="-14"/>
			<point x="315" y="-14" type="curve" smooth="yes"/>
			<point x="528" y="-14"/>
			<point x="632" y="90"/>
			<point x="664" y="206" type="curve" smooth="yes"/>
			<point x="676" y="247"/>
			<point x="681" y="268"/>
		</contour>
	</outline>
</glyph>
<glyph name="Ucircumflex" format="2">
	<advance width="718"/>
	<unicode hex="00DB"/>
	<note>
		Ucircumflex
	</note>
	<outline>
		<contour>
			<point x="441" y="733"/>
			<point x="448" y="745" type="curve" smooth="yes"/>
			<point x="489" y="811" type="line"/>
			<point x="498" y="773" type="line" smooth="yes"/>
			<point x="504" y="748"/>
			<point x="517" y="735"/>
			<point x="537" y="735" type="curve" smooth="yes"/>
			<point x="571" y="735"/>
			<point x="600" y="763"/>
			<point x="600" y="798" type="curve" smooth="yes"/>
			<point x="600" y="832"/>
			<point x="571" y="860"/>
			<point x="537" y="860" type="curve" smooth="yes"/>
			<point x="462" y="860" type="line" smooth="yes"/>
			<point x="416" y="860"/>
			<point x="376" y="826"/>
			<point x="371" y="780" type="curve" smooth="yes"/>
			<point x="371" y="776"/>
			<point x="370" y="772"/>
			<point x="370" y="768" type="curve" smooth="yes"/>
			<point x="370" y="745"/>
			<point x="389" y="726"/>
			<point x="412" y="726" type="curve" smooth="yes"/>
			<point x="427" y="726"/>
		</contour>
		<contour>
			<point x="688" y="303" type="curve" smooth="yes"/>
			<point x="749" y="593" type="line" smooth="yes"/>
			<point x="750" y="598"/>
			<point x="751" y="605"/>
			<point x="751" y="611" type="curve" smooth="yes"/>
			<point x="751" y="660"/>
			<point x="712" y="699"/>
			<point x="663" y="699" type="curve" smooth="yes"/>
			<point x="621" y="699"/>
			<point x="585" y="668"/>
			<point x="577" y="629" type="curve" smooth="yes"/>
			<point x="501" y="270" type="line" smooth="yes"/>
			<point x="497" y="251"/>
			<point x="495" y="241"/>
			<point x="491" y="229" type="curve" smooth="yes"/>
			<point x="471" y="157"/>
			<point x="422" y="118"/>
			<point x="343" y="118" type="curve" smooth="yes"/>
			<point x="264" y="118"/>
			<point x="231" y="157"/>
			<point x="241" y="229" type="curve" smooth="yes"/>
			<point x="243" y="241"/>
			<point x="245" y="251"/>
			<point x="249" y="270" type="curve" smooth="yes"/>
			<point x="317" y="593" type="line" smooth="yes"/>
			<point x="318" y="598"/>
			<point x="319" y="605"/>
			<point x="319" y="611" type="curve" smooth="yes"/>
			<point x="319" y="660"/>
			<point x="280" y="699"/>
			<point x="231" y="699" type="curve" smooth="yes"/>
			<point x="189" y="699"/>
			<point x="153" y="668"/>
			<point x="145" y="629" type="curve" smooth="yes"/>
			<point x="76" y="303" type="line" smooth="yes"/>
			<point x="69" y="268"/>
			<point x="64" y="247"/>
			<point x="58" y="206" type="curve" smooth="yes"/>
			<point x="42" y="90"/>
			<point x="102" y="-14"/>
			<point x="315" y="-14" type="curve" smooth="yes"/>
			<point x="528" y="-14"/>
			<point x="632" y="90"/>
			<point x="664" y="206" type="curve" smooth="yes"/>
			<point x="676" y="247"/>
			<point x="681" y="268"/>
		</contour>
	</outline>
</glyph>
<glyph name="Yacute" format="2">
	<advance width="663"/>
	<unicode hex="00DD"/>
	<note>
		Yacute
	</note>
	<outline>
		<contour>
			<point x="465" y="726"/>
			<point x="466" y="727" type="curve" smooth="yes"/>
			<point x="554" y="801"/>
			<point x="547" y="868"/>
			<point x="547" y="868" type="curve" smooth="yes"/>
			<point x="510" y="861"/>
			<point x="476" y="842"/>
			<point x="454" y="813" type="curve" smooth="yes"/>
			<point x="428" y="778"/>
			<point x="465" y="726"/>
			<point x="465" y="726" type="curve"/>
			<point x="465" y="726"/>
		</contour>
		<contour>
			<point x="394" y="61" type="curve" smooth="yes"/>
			<point x="437" y="264" type="line"/>
			<point x="680" y="575" type="line" smooth="yes"/>
			<point x="690" y="588"/>
			<point x="696" y="604"/>
			<point x="696" y="622" type="curve" smooth="yes"/>
			<point x="696" y="665"/>
			<point x="662" y="699"/>
			<point x="619" y="699" type="curve" smooth="yes"/>
			<point x="593" y="699"/>
			<point x="570" y="686"/>
			<point x="556" y="666" type="curve" smooth="yes"/>
			<point x="384" y="417" type="line"/>
			<point x="323" y="631" type="line" smooth="yes"/>
			<point x="312" y="670"/>
			<point x="276" y="699"/>
			<point x="233" y="699" type="curve" smooth="yes"/>
			<point x="182" y="699"/>
			<point x="140" y="657"/>
			<point x="140" y="606" type="curve" smooth="yes"/>
			<point x="140" y="595"/>
			<point x="143" y="583"/>
			<point x="146" y="574" type="curve" smooth="yes"/>
			<point x="257" y="264" type="line"/>
			<point x="222" y="97" type="line" smooth="yes"/>
			<point x="221" y="91"/>
			<point x="220" y="85"/>
			<point x="220" y="79" type="curve" smooth="yes"/>
			<point x="220" y="30"/>
			<point x="259" y="-9"/>
			<point x="308" y="-9" type="curve" smooth="yes"/>
			<point x="350" y="-9"/>
			<point x="386" y="22"/>
		</contour>
	</outline>
</glyph>
<glyph name="icircumflex" format="2">
	<advance width="288"/>
	<unicode hex="00EE"/>
	<note>
		icircumflex
	</note>
	<outline>
		<contour>
			<point x="176" y="569"/>
			<point x="183" y="581" type="curve" smooth="yes"/>
			<point x="224" y="647" type="line"/>
			<point x="233" y="609" type="line" smooth="yes"/>
			<point x="239" y="584"/>
			<point x="253" y="571"/>
			<point x="273" y="571" type="curve" smooth="yes"/>
			<point x="307" y="571"/>
			<point x="335" y="599"/>
			<point x="335" y="634" type="curve" smooth="yes"/>
			<point x="335" y="668"/>
			<point x="307" y="696"/>
			<point x="273" y="696" type="curve" smooth="yes"/>
			<point x="197" y="696" type="line" smooth="yes"/>
			<point x="150" y="696"/>
			<point x="109" y="659"/>
			<point x="106" y="612" type="curve" smooth="yes"/>
			<point x="106" y="604" type="line" smooth="yes"/>
			<point x="106" y="581"/>
			<point x="124" y="562"/>
			<point x="147" y="562" type="curve" smooth="yes"/>
			<point x="162" y="562"/>
		</contour>
		<contour>
			<point x="106" y="512"/>
			<point x="98" y="473" type="curve" smooth="yes"/>
			<point x="19" y="97" type="line" smooth="yes"/>
			<point x="18" y="92"/>
			<point x="17" y="85"/>
			<point x="17" y="79" type="curve" smooth="yes"/>
			<point x="17" y="30"/>
			<point x="56" y="-9"/>
			<point x="105" y="-9" type="curve" smooth="yes"/>
			<point x="147" y="-9"/>
			<point x="183" y="21"/>
			<point x="191" y="61" type="curve" smooth="yes"/>
			<point x="270" y="437" type="line" smooth="yes"/>
			<point x="271" y="442"/>
			<point x="272" y="449"/>
			<point x="272" y="455" type="curve" smooth="yes"/>
			<point x="272" y="504"/>
			<point x="233" y="543"/>
			<point x="184" y="543" type="curve" smooth="yes"/>
			<point x="142" y="543"/>
		</contour>
	</outline>
</glyph>
<glyph name="eth" format="2">
	<advance width="662"/>
	<unicode hex="00F0"/>
	<note>
		eth
	</note>
	<outline>
		<contour>
			<point x="625" y="615" type="curve"/>
			<point x="650" y="620" type="line" smooth="yes"/>
			<point x="666" y="623"/>
			<point x="680" y="637"/>
			<point x="680" y="655" type="curve" smooth="yes"/>
			<point x="680" y="677"/>
			<point x="659" y="694"/>
			<point x="638" y="690" type="curve" smooth="yes"/>
			<point x="583" y="680" type="line"/>
			<point x="567" y="697"/>
			<point x="547" y="713"/>
			<point x="524" y="730" type="curve" smooth="yes"/>
			<point x="512" y="739"/>
			<point x="496" y="744"/>
			<point x="480" y="744" type="curve" smooth="yes"/>
			<point x="438" y="744"/>
			<point x="404" y="710"/>
			<point x="404" y="668" type="curve" smooth="yes"/>
			<point x="404" y="662"/>
			<point x="382" y="650"/>
			<point x="383" y="644" type="curve"/>
			<point x="334" y="635" type="line" smooth="yes"/>
			<point x="318" y="632"/>
			<point x="304" y="618"/>
			<point x="304" y="600" type="curve" smooth="yes"/>
			<point x="304" y="578"/>
			<point x="325" y="561"/>
			<point x="346" y="565" type="curve" smooth="yes"/>
			<point x="440" y="582" type="line"/>
			<point x="462" y="546"/>
			<point x="469" y="506"/>
			<point x="466" y="465" type="curve"/>
			<point x="450" y="492" type="line" smooth="yes"/>
			<point x="439" y="511"/>
			<point x="422" y="535"/>
			<point x="378" y="545" type="curve" smooth="yes"/>
			<point x="368" y="547"/>
			<point x="358" y="548"/>
			<point x="348" y="548" type="curve" smooth="yes"/>
			<point x="201" y="548"/>
			<point x="63" y="450"/>
			<point x="24" y="267" type="curve" smooth="yes"/>
			<point x="-11" y="102"/>
			<point x="64" y="-14"/>
			<point x="268" y="-14" type="curve" smooth="yes"/>
			<point x="405" y="-14"/>
			<point x="577" y="67"/>
			<point x="628" y="307" type="curve" smooth="yes"/>
			<point x="658" y="447"/>
			<point x="656" y="544"/>
		</contour>
		<contour>
			<point x="440" y="289" type="curve" smooth="yes"/>
			<point x="434" y="260" type="line" smooth="yes"/>
			<point x="417" y="178"/>
			<point x="372" y="118"/>
			<point x="296" y="118" type="curve" smooth="yes"/>
			<point x="225" y="118"/>
			<point x="190" y="163"/>
			<point x="212" y="267" type="curve" smooth="yes"/>
			<point x="232" y="359"/>
			<point x="282" y="416"/>
			<point x="360" y="416" type="curve" smooth="yes"/>
			<point x="426" y="416"/>
			<point x="456" y="364"/>
		</contour>
	</outline>
</glyph>
<glyph name="otilde" format="2">
	<advance width="622"/>
	<unicode hex="00F5"/>
	<note>
		otilde
	</note>
	<outline>
		<contour>
			<point x="330" y="605" type="curve" smooth="yes"/>
			<point x="338" y="605"/>
			<point x="350" y="600"/>
			<point x="372" y="590" type="curve" smooth="yes"/>
			<point x="406" y="574"/>
			<point x="421" y="571"/>
			<point x="450" y="571" type="curve" smooth="yes"/>
			<point x="497" y="571"/>
			<point x="530" y="595"/>
			<point x="552" y="652" type="curve" smooth="yes"/>
			<point x="554" y="657"/>
			<point x="555" y="662"/>
			<point x="555" y="668" type="curve" smooth="yes"/>
			<point x="555" y="694"/>
			<point x="534" y="714"/>
			<point x="509" y="714" type="curve" smooth="yes"/>
			<point x="490" y="714"/>
			<point x="473" y="702"/>
			<point x="466" y="686" type="curve" smooth="yes"/>
			<point x="462" y="677"/>
			<point x="458" y="674"/>
			<point x="451" y="674" type="curve" smooth="yes"/>
			<point x="443" y="674"/>
			<point x="431" y="678"/>
			<point x="409" y="689" type="curve" smooth="yes"/>
			<point x="377" y="705"/>
			<point x="360" y="708"/>
			<point x="331" y="708" type="curve" smooth="yes"/>
			<point x="283" y="708"/>
			<point x="251" y="684"/>
			<point x="229" y="627" type="curve" smooth="yes"/>
			<point x="227" y="622"/>
			<point x="226" y="616"/>
			<point x="226" y="611" type="curve" smooth="yes"/>
			<point x="226" y="585"/>
			<point x="247" y="565"/>
			<point x="272" y="565" type="curve" smooth="yes"/>
			<point x="291" y="565"/>
			<point x="308" y="577"/>
			<point x="315" y="593" type="curve" smooth="yes"/>
			<point x="319" y="602"/>
			<point x="324" y="605"/>
		</contour>
		<contour>
			<point x="371" y="548" type="curve" smooth="yes"/>
			<point x="196" y="548"/>
			<point x="61" y="439"/>
			<point x="24" y="267" type="curve" smooth="yes"/>
			<point x="-12" y="96"/>
			<point x="77" y="-14"/>
			<point x="252" y="-14" type="curve" smooth="yes"/>
			<point x="427" y="-14"/>
			<point x="562" y="96"/>
			<point x="598" y="267" type="curve" smooth="yes"/>
			<point x="635" y="439"/>
			<point x="546" y="548"/>
		</contour>
		<contour>
			<point x="278" y="108" type="curve" smooth="yes"/>
			<point x="214" y="108"/>
			<point x="186" y="161"/>
			<point x="208" y="267" type="curve" smooth="yes"/>
			<point x="231" y="374"/>
			<point x="281" y="426"/>
			<point x="345" y="426" type="curve" smooth="yes"/>
			<point x="409" y="426"/>
			<point x="437" y="374"/>
			<point x="414" y="267" type="curve" smooth="yes"/>
			<point x="392" y="161"/>
			<point x="342" y="108"/>
		</contour>
	</outline>
</glyph>
<glyph name="odieresis" format="2">
	<advance width="622"/>
	<unicode hex="00F6"/>
	<note>
		odieresis
	</note>
	<outline>
		<contour>
			<point x="371" y="548" type="curve" smooth="yes"/>
			<point x="196" y="548"/>
			<point x="61" y="439"/>
			<point x="24" y="267" type="curve" smooth="yes"/>
			<point x="-12" y="96"/>
			<point x="77" y="-14"/>
			<point x="252" y="-14" type="curve" smooth="yes"/>
			<point x="427" y="-14"/>
			<point x="562" y="96"/>
			<point x="598" y="267" type="curve" smooth="yes"/>
			<point x="635" y="439"/>
			<point x="546" y="548"/>
		</contour>
		<contour>
			<point x="278" y="108" type="curve" smooth="yes"/>
			<point x="214" y="108"/>
			<point x="186" y="161"/>
			<point x="208" y="267" type="curve" smooth="yes"/>
			<point x="231" y="374"/>
			<point x="281" y="426"/>
			<point x="345" y="426" type="curve" smooth="yes"/>
			<point x="409" y="426"/>
			<point x="437" y="374"/>
			<point x="414" y="267" type="curve" smooth="yes"/>
			<point x="392" y="161"/>
			<point x="342" y="108"/>
		</contour>
		<contour>
			<point x="241" y="570"/>
			<point x="281" y="570" type="curve" smooth="yes"/>
			<point x="327" y="570"/>
			<point x="355" y="591"/>
			<point x="364" y="636" type="curve" smooth="yes"/>
			<point x="373" y="681"/>
			<point x="339" y="726"/>
			<point x="291" y="726" type="curve" smooth="yes"/>
			<point x="279" y="726"/>
			<point x="267" y="722"/>
			<point x="257" y="717" type="curve" smooth="yes"/>
			<point x="229" y="703"/>
			<point x="208" y="676"/>
			<point x="208" y="643" type="curve" smooth="yes"/>
			<point x="208" y="603"/>
		</contour>
		<contour>
			<point x="442" y="570"/>
			<point x="482" y="570" type="curve" smooth="yes"/>
			<point x="528" y="570"/>
			<point x="556" y="591"/>
			<point x="565" y="636" type="curve" smooth="yes"/>
			<point x="574" y="681"/>
			<point x="540" y="726"/>
			<point x="492" y="726" type="curve" smooth="yes"/>
			<point x="480" y="726"/>
			<point x="468" y="722"/>
			<point x="458" y="717" type="curve" smooth="yes"/>
			<point x="430" y="703"/>
			<point x="409" y="676"/>
			<point x="409" y="643" type="curve" smooth="yes"/>
			<point x="409" y="603"/>
		</contour>
	</outline>
</glyph>
<glyph name="ydieresis" format="2">
	<advance width="608"/>
	<unicode hex="00FF"/>
	<note>
		ydieresis
	</note>
	<outline>
		<contour>
			<point x="349" y="0" type="curve" smooth="yes"/>
			<point x="602" y="418" type="line" smooth="yes"/>
			<point x="609" y="430"/>
			<point x="614" y="445"/>
			<point x="614" y="460" type="curve" smooth="yes"/>
			<point x="614" y="506"/>
			<point x="577" y="543"/>
			<point x="532" y="543" type="curve" smooth="yes"/>
			<point x="499" y="543"/>
			<point x="471" y="524"/>
			<point x="458" y="497" type="curve" smooth="yes"/>
			<point x="284" y="143" type="line"/>
			<point x="262" y="455" type="line" smooth="yes"/>
			<point x="259" y="504"/>
			<point x="218" y="543"/>
			<point x="168" y="543" type="curve" smooth="yes"/>
			<point x="110" y="543"/>
			<point x="65" y="489"/>
			<point x="76" y="432" type="curve" smooth="yes"/>
			<point x="160" y="-24" type="line"/>
			<point x="149" y="-39" type="line" smooth="yes"/>
			<point x="124" y="-77"/>
			<point x="92" y="-91"/>
			<point x="50" y="-91" type="curve" smooth="yes"/>
			<point x="41" y="-91" type="line" smooth="yes"/>
			<point x="9" y="-91"/>
			<point x="-19" y="-118"/>
			<point x="-19" y="-150" type="curve" smooth="yes"/>
			<point x="-19" y="-183"/>
			<point x="7" y="-210"/>
			<point x="39" y="-210" type="curve" smooth="yes"/>
			<point x="52" y="-210" type="line" smooth="yes"/>
			<point x="179" y="-210"/>
			<point x="246" y="-169"/>
		</contour>
		<contour>
			<point x="232" y="570"/>
			<point x="272" y="570" type="curve" smooth="yes"/>
			<point x="318" y="570"/>
			<point x="345" y="591"/>
			<point x="354" y="636" type="curve" smooth="yes"/>
			<point x="364" y="682"/>
			<point x="330" y="726"/>
			<point x="282" y="726" type="curve" smooth="yes"/>
			<point x="270" y="726"/>
			<point x="259" y="723"/>
			<point x="249" y="718" type="curve" smooth="yes"/>
			<point x="220" y="704"/>
			<point x="199" y="676"/>
			<point x="199" y="644" type="curve" smooth="yes"/>
			<point x="199" y="603"/>
		</contour>
		<contour>
			<point x="433" y="570"/>
			<point x="473" y="570" type="curve" smooth="yes"/>
			<point x="519" y="570"/>
			<point x="546" y="591"/>
			<point x="555" y="636" type="curve" smooth="yes"/>
			<point x="565" y="682"/>
			<point x="531" y="726"/>
			<point x="483" y="726" type="curve" smooth="yes"/>
			<point x="471" y="726"/>
			<point x="460" y="723"/>
			<point x="450" y="718" type="curve" smooth="yes"/>
			<point x="421" y="703"/>
			<point x="400" y="676"/>
			<point x="400" y="643" type="curve" smooth="yes"/>
			<point x="400" y="603"/>
		</contour>
	</outline>
</glyph>
<glyph name="Aogonek" format="2">
	<advance width="707"/>
	<unicode hex="0104"/>
	<note>
		Aogonek
	</note>
	<outline>
		<contour>
			<point x="533" y="-70" type="curve" smooth="yes"/>
			<point x="541" y="-34"/>
			<point x="565" y="-3"/>
			<point x="589" y="-8" type="curve" smooth="yes"/>
			<point x="627" y="-16"/>
			<point x="664" y="17"/>
			<point x="658" y="57" type="curve" smooth="yes"/>
			<point x="576" y="603" type="line" smooth="yes"/>
			<point x="567" y="661"/>
			<point x="533" y="690"/>
			<point x="475" y="690" type="curve" smooth="yes"/>
			<point x="418" y="690" type="line" smooth="yes"/>
			<point x="366" y="690"/>
			<point x="332" y="671"/>
			<point x="306" y="625" type="curve" smooth="yes"/>
			<point x="13" y="114" type="line" smooth="yes"/>
			<point x="6" y="102"/>
			<point x="3" y="88"/>
			<point x="3" y="73" type="curve" smooth="yes"/>
			<point x="3" y="28"/>
			<point x="39" y="-9"/>
			<point x="85" y="-9" type="curve" smooth="yes"/>
			<point x="116" y="-9"/>
			<point x="143" y="9"/>
			<point x="157" y="34" type="curve" smooth="yes"/>
			<point x="235" y="179" type="line"/>
			<point x="450" y="179" type="line"/>
			<point x="470" y="4" type="line"/>
			<point x="419" y="-21"/>
			<point x="367" y="-78"/>
			<point x="355" y="-137" type="curve" smooth="yes"/>
			<point x="341" y="-201"/>
			<point x="384" y="-223"/>
			<point x="450" y="-223" type="curve" smooth="yes"/>
			<point x="508" y="-223"/>
			<point x="552" y="-206"/>
			<point x="592" y="-183" type="curve" smooth="yes"/>
			<point x="602" y="-177"/>
			<point x="608" y="-166"/>
			<point x="608" y="-154" type="curve" smooth="yes"/>
			<point x="608" y="-134"/>
			<point x="589" y="-117"/>
			<point x="570" y="-120" type="curve"/>
			<point x="568" y="-121"/>
			<point x="565" y="-121"/>
			<point x="563" y="-121" type="curve" smooth="yes"/>
			<point x="543" y="-121"/>
			<point x="525" y="-108"/>
		</contour>
		<contour>
			<point x="308" y="319" type="line"/>
			<point x="418" y="531" type="line"/>
			<point x="436" y="319" type="line"/>
		</contour>
	</outline>
</glyph>
<glyph name="Cdotaccent" format="2">
	<advance width="734"/>
	<unicode hex="010A"/>
	<note>
		Cdotaccent
	</note>
	<outline>
		<contour>
			<point x="519" y="901" type="curve" smooth="yes"/>
			<point x="463" y="901"/>
			<point x="419" y="867"/>
			<point x="407" y="813" type="curve" smooth="yes"/>
			<point x="396" y="759"/>
			<point x="426" y="725"/>
			<point x="482" y="725" type="curve" smooth="yes"/>
			<point x="538" y="725"/>
			<point x="582" y="759"/>
			<point x="593" y="813" type="curve" smooth="yes"/>
			<point x="605" y="867"/>
			<point x="575" y="901"/>
		</contour>
		<contour>
			<point x="488" y="704" type="curve" smooth="yes"/>
			<point x="301" y="704"/>
			<point x="121" y="580"/>
			<point x="70" y="340" type="curve" smooth="yes"/>
			<point x="20" y="106"/>
			<point x="144" y="-14"/>
			<point x="329" y="-14" type="curve" smooth="yes"/>
			<point x="477" y="-14"/>
			<point x="604" y="48"/>
			<point x="670" y="169" type="curve" smooth="yes"/>
			<point x="695" y="215"/>
			<point x="692" y="262"/>
			<point x="646" y="286" type="curve" smooth="yes"/>
			<point x="628" y="295"/>
			<point x="608" y="300"/>
			<point x="586" y="300" type="curve" smooth="yes"/>
			<point x="567" y="300"/>
			<point x="556" y="290"/>
			<point x="546" y="276" type="curve" smooth="yes"/>
			<point x="526" y="247"/>
			<point x="515" y="222"/>
			<point x="490" y="185" type="curve" smooth="yes"/>
			<point x="458" y="142"/>
			<point x="415" y="118"/>
			<point x="363" y="118" type="curve" smooth="yes"/>
			<point x="283" y="118"/>
			<point x="223" y="177"/>
			<point x="260" y="351" type="curve" smooth="yes"/>
			<point x="292" y="500"/>
			<point x="372" y="572"/>
			<point x="458" y="572" type="curve" smooth="yes"/>
			<point x="505" y="572"/>
			<point x="538" y="557"/>
			<point x="555" y="527" type="curve" smooth="yes"/>
			<point x="578" y="483"/>
			<point x="577" y="442"/>
			<point x="621" y="425" type="curve" smooth="yes"/>
			<point x="634" y="421"/>
			<point x="647" y="418"/>
			<point x="662" y="418" type="curve" smooth="yes"/>
			<point x="680" y="418"/>
			<point x="696" y="423"/>
			<point x="710" y="431" type="curve" smooth="yes"/>
			<point x="742" y="449"/>
			<point x="755" y="482"/>
			<point x="748" y="529" type="curve" smooth="yes"/>
			<point x="734" y="632"/>
			<point x="651" y="704"/>
		</contour>
	</outline>
</glyph>
<glyph name="emacron" format="2">
	<advance width="601"/>
	<unicode hex="0113"/>
	<note>
		emacron
	</note>
	<outline>
		<contour>
			<point x="270" y="586" type="curve" smooth="yes"/>
			<point x="491" y="586" type="line" smooth="yes"/>
			<point x="517" y="586"/>
			<point x="539" y="607"/>
			<point x="539" y="634" type="curve" smooth="yes"/>
			<point x="539" y="661"/>
			<point x="517" y="682"/>
			<point x="491" y="682" type="curve" smooth="yes"/>
			<point x="270" y="682" type="line" smooth="yes"/>
			<point x="244" y="682"/>
			<point x="222" y="661"/>
			<point x="222" y="634" type="curve" smooth="yes"/>
			<point x="222" y="607"/>
			<point x="244" y="586"/>
		</contour>
		<contour>
			<point x="579" y="274" type="curve" smooth="yes"/>
			<point x="608" y="412"/>
			<point x="547" y="548"/>
			<point x="369" y="548" type="curve" smooth="yes"/>
			<point x="191" y="548"/>
			<point x="57" y="421"/>
			<point x="24" y="265" type="curve" smooth="yes"/>
			<point x="-16" y="77"/>
			<point x="87" y="-14"/>
			<point x="240" y="-14" type="curve" smooth="yes"/>
			<point x="325" y="-14"/>
			<point x="401" y="12"/>
			<point x="460" y="63" type="curve" smooth="yes"/>
			<point x="475" y="76"/>
			<point x="484" y="95"/>
			<point x="484" y="116" type="curve" smooth="yes"/>
			<point x="484" y="155"/>
			<point x="453" y="186"/>
			<point x="414" y="186" type="curve" smooth="yes"/>
			<point x="390" y="186"/>
			<point x="369" y="172"/>
			<point x="357" y="153" type="curve" smooth="yes"/>
			<point x="338" y="123"/>
			<point x="307" y="108"/>
			<point x="268" y="108" type="curve" smooth="yes"/>
			<point x="217" y="108"/>
			<point x="183" y="133"/>
			<point x="193" y="222" type="curve"/>
			<point x="481" y="222" type="line" smooth="yes"/>
			<point x="537" y="222"/>
			<point x="579" y="274"/>
		</contour>
		<contour>
			<point x="334" y="426" type="curve" smooth="yes"/>
			<point x="382" y="426"/>
			<point x="407" y="395"/>
			<point x="403" y="332" type="curve"/>
			<point x="222" y="332" type="line"/>
			<point x="248" y="398"/>
			<point x="287" y="426"/>
		</contour>
	</outline>
</glyph>
<glyph name="Eogonek" format="2">
	<advance width="639"/>
	<unicode hex="0118"/>
	<note>
		Eogonek
	</note>
	<outline>
		<contour>
			<point x="503" y="0" type="curve" smooth="yes"/>
			<point x="505" y="0" type="line" smooth="yes"/>
			<point x="543" y="0"/>
			<point x="575" y="31"/>
			<point x="575" y="70" type="curve" smooth="yes"/>
			<point x="575" y="109"/>
			<point x="543" y="140"/>
			<point x="505" y="140" type="curve" smooth="yes"/>
			<point x="233" y="140" type="line"/>
			<point x="262" y="276" type="line"/>
			<point x="534" y="276" type="line" smooth="yes"/>
			<point x="572" y="276"/>
			<point x="604" y="307"/>
			<point x="604" y="346" type="curve" smooth="yes"/>
			<point x="604" y="385"/>
			<point x="572" y="416"/>
			<point x="534" y="416" type="curve" smooth="yes"/>
			<point x="292" y="416" type="line"/>
			<point x="321" y="550" type="line"/>
			<point x="612" y="550" type="line" smooth="yes"/>
			<point x="650" y="550"/>
			<point x="682" y="581"/>
			<point x="682" y="620" type="curve" smooth="yes"/>
			<point x="682" y="659"/>
			<point x="650" y="690"/>
			<point x="612" y="690" type="curve" smooth="yes"/>
			<point x="256" y="690" type="line" smooth="yes"/>
			<point x="199" y="690"/>
			<point x="164" y="663"/>
			<point x="152" y="606" type="curve" smooth="yes"/>
			<point x="46" y="104" type="line" smooth="yes"/>
			<point x="32" y="39"/>
			<point x="64" y="0"/>
			<point x="130" y="0" type="curve" smooth="yes"/>
			<point x="372" y="0" type="line"/>
			<point x="324" y="-27"/>
			<point x="276" y="-81"/>
			<point x="265" y="-137" type="curve" smooth="yes"/>
			<point x="251" y="-201"/>
			<point x="294" y="-223"/>
			<point x="360" y="-223" type="curve" smooth="yes"/>
			<point x="418" y="-223"/>
			<point x="462" y="-206"/>
			<point x="502" y="-183" type="curve" smooth="yes"/>
			<point x="512" y="-177"/>
			<point x="518" y="-166"/>
			<point x="518" y="-154" type="curve" smooth="yes"/>
			<point x="518" y="-134"/>
			<point x="499" y="-117"/>
			<point x="480" y="-120" type="curve"/>
			<point x="478" y="-121"/>
			<point x="475" y="-121"/>
			<point x="473" y="-121" type="curve" smooth="yes"/>
			<point x="453" y="-121"/>
			<point x="435" y="-108"/>
			<point x="443" y="-70" type="curve" smooth="yes"/>
			<point x="451" y="-32"/>
			<point x="478" y="0"/>
		</contour>
	</outline>
</glyph>
<glyph name="ecaron" format="2">
	<advance width="601"/>
	<unicode hex="011B"/>
	<note>
		ecaron
	</note>
	<outline>
		<contour>
			<point x="297" y="571"/>
			<point x="331" y="571" type="curve" smooth="yes"/>
			<point x="406" y="571" type="line" smooth="yes"/>
			<point x="452" y="571"/>
			<point x="492" y="605"/>
			<point x="497" y="651" type="curve" smooth="yes"/>
			<point x="497" y="655"/>
			<point x="498" y="659"/>
			<point x="498" y="663" type="curve" smooth="yes"/>
			<point x="498" y="686"/>
			<point x="480" y="705"/>
			<point x="457" y="705" type="curve" smooth="yes"/>
			<point x="442" y="705"/>
			<point x="428" y="697"/>
			<point x="421" y="686" type="curve" smooth="yes"/>
			<point x="379" y="620" type="line"/>
			<point x="371" y="658" type="line" smooth="yes"/>
			<point x="365" y="684"/>
			<point x="351" y="696"/>
			<point x="331" y="696" type="curve" smooth="yes"/>
			<point x="297" y="696"/>
			<point x="269" y="668"/>
			<point x="269" y="633" type="curve" smooth="yes"/>
			<point x="269" y="599"/>
		</contour>
		<contour>
			<point x="579" y="274" type="curve" smooth="yes"/>
			<point x="608" y="412"/>
			<point x="547" y="548"/>
			<point x="369" y="548" type="curve" smooth="yes"/>
			<point x="191" y="548"/>
			<point x="57" y="421"/>
			<point x="24" y="265" type="curve" smooth="yes"/>
			<point x="-16" y="77"/>
			<point x="87" y="-14"/>
			<point x="240" y="-14" type="curve" smooth="yes"/>
			<point x="325" y="-14"/>
			<point x="401" y="12"/>
			<point x="460" y="63" type="curve" smooth="yes"/>
			<point x="475" y="76"/>
			<point x="484" y="95"/>
			<point x="484" y="116" type="curve" smooth="yes"/>
			<point x="484" y="155"/>
			<point x="453" y="186"/>
			<point x="414" y="186" type="curve" smooth="yes"/>
			<point x="390" y="186"/>
			<point x="369" y="172"/>
			<point x="357" y="153" type="curve" smooth="yes"/>
			<point x="338" y="123"/>
			<point x="307" y="108"/>
			<point x="268" y="108" type="curve" smooth="yes"/>
			<point x="217" y="108"/>
			<point x="183" y="133"/>
			<point x="193" y="222" type="curve"/>
			<point x="481" y="222" type="line" smooth="yes"/>
			<point x="537" y="222"/>
			<point x="579" y="274"/>
		</contour>
		<contour>
			<point x="334" y="426" type="curve" smooth="yes"/>
			<point x="382" y="426"/>
			<point x="407" y="395"/>
			<point x="403" y="332" type="curve"/>
			<point x="222" y="332" type="line"/>
			<point x="248" y="398"/>
			<point x="287" y="426"/>
		</contour>
	</outline>
</glyph>
<glyph name="gbreve" format="2">
	<advance width="669"/>
	<unicode hex="011F"/>
	<note>
		gbreve
	</note>
	<outline>
		<contour>
			<point x="394" y="568" type="curve" smooth="yes"/>
			<point x="448" y="568"/>
			<point x="503" y="585"/>
			<point x="535" y="642" type="curve" smooth="yes"/>
			<point x="538" y="648"/>
			<point x="540" y="655"/>
			<point x="540" y="663" type="curve" smooth="yes"/>
			<point x="540" y="686"/>
			<point x="521" y="706"/>
			<point x="497" y="706" type="curve" smooth="yes"/>
			<point x="480" y="706"/>
			<point x="466" y="696"/>
			<point x="459" y="682" type="curve" smooth="yes"/>
			<point x="449" y="662"/>
			<point x="434" y="653"/>
			<point x="412" y="653" type="curve" smooth="yes"/>
			<point x="394" y="653"/>
			<point x="383" y="659"/>
			<point x="379" y="673" type="curve" smooth="yes"/>
			<point x="373" y="692"/>
			<point x="353" y="707"/>
			<point x="331" y="707" type="curve" smooth="yes"/>
			<point x="302" y="707"/>
			<point x="281" y="681"/>
			<point x="283" y="654" type="curve" smooth="yes"/>
			<point x="287" y="587"/>
			<point x="335" y="568"/>
		</contour>
		<contour>
			<point x="588" y="136" type="curve" smooth="yes"/>
			<point x="652" y="437" type="line" smooth="yes"/>
			<point x="653" y="442"/>
			<point x="653" y="449"/>
			<point x="653" y="455" type="curve" smooth="yes"/>
			<point x="653" y="504"/>
			<point x="614" y="543"/>
			<point x="566" y="543" type="curve" smooth="yes"/>
			<point x="523" y="543"/>
			<point x="488" y="514"/>
			<point x="480" y="473" type="curve" smooth="yes"/>
			<point x="478" y="465" type="line"/>
			<point x="467" y="494" type="line" smooth="yes"/>
			<point x="459" y="515"/>
			<point x="439" y="535"/>
			<point x="391" y="543" type="curve" smooth="yes"/>
			<point x="374" y="546"/>
			<point x="355" y="548"/>
			<point x="337" y="548" type="curve" smooth="yes"/>
			<point x="200" y="548"/>
			<point x="64" y="453"/>
			<point x="24" y="263" type="curve" smooth="yes"/>
			<point x="-10" y="105"/>
			<point x="69" y="6"/>
			<point x="214" y="6" type="curve" smooth="yes"/>
			<point x="253" y="6"/>
			<point x="287" y="12"/>
			<point x="318" y="21" type="curve" smooth="yes"/>
			<point x="351" y="31"/>
			<point x="381" y="52"/>
			<point x="396" y="83" type="curve"/>
			<point x="390" y="54"/>
			<point x="384" y="29"/>
			<point x="379" y="13" type="curve" smooth="yes"/>
			<point x="359" y="-59"/>
			<point x="304" y="-88"/>
			<point x="237" y="-88" type="curve" smooth="yes"/>
			<point x="214" y="-88"/>
			<point x="194" y="-85"/>
			<point x="179" y="-78" type="curve" smooth="yes"/>
			<point x="139" y="-59"/>
			<point x="142" y="-15"/>
			<point x="102" y="4" type="curve" smooth="yes"/>
			<point x="88" y="11"/>
			<point x="71" y="15"/>
			<point x="54" y="15" type="curve" smooth="yes"/>
			<point x="36" y="15"/>
			<point x="22" y="9"/>
			<point x="9" y="0" type="curve" smooth="yes"/>
			<point x="-20" y="-20"/>
			<point x="-34" y="-52"/>
			<point x="-23" y="-98" type="curve" smooth="yes"/>
			<point x="-3" y="-178"/>
			<point x="75" y="-220"/>
			<point x="204" y="-220" type="curve" smooth="yes"/>
			<point x="385" y="-220"/>
			<point x="521" y="-142"/>
			<point x="565" y="33" type="curve" smooth="yes"/>
			<point x="572" y="62"/>
			<point x="581" y="103"/>
		</contour>
		<contour>
			<point x="292" y="128" type="curve" smooth="yes"/>
			<point x="229" y="128"/>
			<point x="189" y="176"/>
			<point x="210" y="276" type="curve" smooth="yes"/>
			<point x="234" y="385"/>
			<point x="290" y="426"/>
			<point x="360" y="426" type="curve" smooth="yes"/>
			<point x="414" y="426"/>
			<point x="462" y="390"/>
			<point x="439" y="283" type="curve" smooth="yes"/>
			<point x="438" y="280" type="line" smooth="yes"/>
			<point x="414" y="168"/>
			<point x="358" y="128"/>
		</contour>
	</outline>
</glyph>
<glyph name="Hbar" format="2">
	<advance width="770"/>
	<unicode hex="0126"/>
	<note>
		Hbar
	</note>
	<outline>
		<contour>
			<point x="762" y="482" type="line"/>
			<point x="773" y="482" type="line" smooth="yes"/>
			<point x="799" y="482"/>
			<point x="821" y="503"/>
			<point x="821" y="530" type="curve" smooth="yes"/>
			<point x="821" y="553"/>
			<point x="804" y="573"/>
			<point x="783" y="578" type="curve"/>
			<point x="786" y="593" type="line" smooth="yes"/>
			<point x="787" y="598"/>
			<point x="788" y="605"/>
			<point x="788" y="611" type="curve" smooth="yes"/>
			<point x="788" y="660"/>
			<point x="748" y="699"/>
			<point x="700" y="699" type="curve" smooth="yes"/>
			<point x="657" y="699"/>
			<point x="621" y="670"/>
			<point x="613" y="629" type="curve" smooth="yes"/>
			<point x="603" y="578" type="line"/>
			<point x="327" y="578" type="line"/>
			<point x="330" y="593" type="line" smooth="yes"/>
			<point x="331" y="598"/>
			<point x="332" y="605"/>
			<point x="332" y="611" type="curve" smooth="yes"/>
			<point x="332" y="660"/>
			<point x="292" y="699"/>
			<point x="244" y="699" type="curve" smooth="yes"/>
			<point x="201" y="699"/>
			<point x="165" y="670"/>
			<point x="157" y="629" type="curve" smooth="yes"/>
			<point x="147" y="578" type="line"/>
			<point x="136" y="578" type="line" smooth="yes"/>
			<point x="110" y="578"/>
			<point x="88" y="557"/>
			<point x="88" y="530" type="curve" smooth="yes"/>
			<point x="88" y="507"/>
			<point x="105" y="487"/>
			<point x="126" y="482" type="curve"/>
			<point x="45" y="97" type="line" smooth="yes"/>
			<point x="44" y="92"/>
			<point x="43" y="85"/>
			<point x="43" y="79" type="curve" smooth="yes"/>
			<point x="43" y="30"/>
			<point x="82" y="-9"/>
			<point x="131" y="-9" type="curve" smooth="yes"/>
			<point x="173" y="-9"/>
			<point x="209" y="21"/>
			<point x="217" y="61" type="curve" smooth="yes"/>
			<point x="261" y="268" type="line"/>
			<point x="537" y="268" type="line"/>
			<point x="501" y="97" type="line" smooth="yes"/>
			<point x="500" y="91"/>
			<point x="499" y="85"/>
			<point x="499" y="79" type="curve" smooth="yes"/>
			<point x="499" y="30"/>
			<point x="538" y="-9"/>
			<point x="587" y="-9" type="curve" smooth="yes"/>
			<point x="629" y="-9"/>
			<point x="665" y="22"/>
			<point x="673" y="61" type="curve" smooth="yes"/>
		</contour>
		<contour>
			<point x="306" y="482" type="line"/>
			<point x="582" y="482" type="line"/>
			<point x="566" y="408" type="line"/>
			<point x="290" y="408" type="line"/>
		</contour>
	</outline>
</glyph>
<glyph name="hbar" format="2">
	<advance width="656"/>
	<unicode hex="0127"/>
	<note>
		hbar
	</note>
	<outline>
		<contour>
			<point x="632" y="403" type="curve" smooth="yes"/>
			<point x="638" y="496"/>
			<point x="584" y="548"/>
			<point x="474" y="548" type="curve" smooth="yes"/>
			<point x="448" y="548"/>
			<point x="425" y="545"/>
			<point x="403" y="539" type="curve" smooth="yes"/>
			<point x="361" y="528"/>
			<point x="337" y="505"/>
			<point x="307" y="473" type="curve" smooth="yes"/>
			<point x="286" y="451" type="line"/>
			<point x="312" y="575" type="line"/>
			<point x="390" y="575" type="line" smooth="yes"/>
			<point x="416" y="575"/>
			<point x="438" y="596"/>
			<point x="438" y="623" type="curve" smooth="yes"/>
			<point x="438" y="650"/>
			<point x="416" y="671"/>
			<point x="390" y="671" type="curve" smooth="yes"/>
			<point x="332" y="671" type="line"/>
			<point x="327" y="717"/>
			<point x="288" y="754"/>
			<point x="240" y="754" type="curve" smooth="yes"/>
			<point x="195" y="754"/>
			<point x="163" y="721"/>
			<point x="154" y="680" type="curve" smooth="yes"/>
			<point x="152" y="671" type="line"/>
			<point x="130" y="671" type="line" smooth="yes"/>
			<point x="104" y="671"/>
			<point x="82" y="650"/>
			<point x="82" y="623" type="curve" smooth="yes"/>
			<point x="82" y="596"/>
			<point x="104" y="575"/>
			<point x="130" y="575" type="curve" smooth="yes"/>
			<point x="132" y="575" type="line"/>
			<point x="31" y="97" type="line" smooth="yes"/>
			<point x="30" y="91"/>
			<point x="29" y="85"/>
			<point x="29" y="79" type="curve" smooth="yes"/>
			<point x="29" y="30"/>
			<point x="68" y="-9"/>
			<point x="117" y="-9" type="curve" smooth="yes"/>
			<point x="159" y="-9"/>
			<point x="195" y="21"/>
			<point x="203" y="61" type="curve" smooth="yes"/>
			<point x="243" y="252" type="line" smooth="yes"/>
			<point x="269" y="373"/>
			<point x="319" y="426"/>
			<point x="374" y="426" type="curve" smooth="yes"/>
			<point x="428" y="426"/>
			<point x="450" y="396"/>
			<point x="443" y="345" type="curve" smooth="yes"/>
			<point x="439" y="318"/>
			<point x="433" y="289"/>
			<point x="429" y="272" type="curve" smooth="yes"/>
			<point x="392" y="97" type="line" smooth="yes"/>
			<point x="391" y="92"/>
			<point x="391" y="85"/>
			<point x="391" y="79" type="curve" smooth="yes"/>
			<point x="391" y="30"/>
			<point x="430" y="-9"/>
			<point x="479" y="-9" type="curve" smooth="yes"/>
			<point x="521" y="-9"/>
			<point x="557" y="21"/>
			<point x="565" y="61" type="curve" smooth="yes"/>
			<point x="616" y="302" type="line" smooth="yes"/>
			<point x="625" y="345"/>
			<point x="631" y="376"/>
		</contour>
	</outline>
</glyph>
<glyph name="Imacron" format="2">
	<advance width="314"/>
	<unicode hex="012A"/>
	<note>
		Imacron
	</note>
	<outline>
		<contour>
			<point x="175" y="760" type="curve" smooth="yes"/>
			<point x="396" y="760" type="line" smooth="yes"/>
			<point x="422" y="760"/>
			<point x="444" y="781"/>
			<point x="444" y="808" type="curve" smooth="yes"/>
			<point x="444" y="835"/>
			<point x="422" y="856"/>
			<point x="396" y="856" type="curve" smooth="yes"/>
			<point x="175" y="856" type="line" smooth="yes"/>
			<point x="149" y="856"/>
			<point x="127" y="835"/>
			<point x="127" y="808" type="curve" smooth="yes"/>
			<point x="127" y="781"/>
			<point x="149" y="760"/>
		</contour>
		<contour>
			<point x="209" y="22"/>
			<point x="217" y="61" type="curve" smooth="yes"/>
			<point x="329" y="593" type="line" smooth="yes"/>
			<point x="330" y="598"/>
			<point x="331" y="605"/>
			<point x="331" y="611" type="curve" smooth="yes"/>
			<point x="331" y="660"/>
			<point x="292" y="699"/>
			<point x="243" y="699" type="curve" smooth="yes"/>
			<point x="201" y="699"/>
			<point x="165" y="669"/>
			<point x="157" y="629" type="curve" smooth="yes"/>
			<point x="45" y="97" type="line" smooth="yes"/>
			<point x="44" y="92"/>
			<point x="43" y="85"/>
			<point x="43" y="79" type="curve" smooth="yes"/>
			<point x="43" y="30"/>
			<point x="82" y="-9"/>
			<point x="131" y="-9" type="curve" smooth="yes"/>
			<point x="173" y="-9"/>
		</contour>
	</outline>
</glyph>
<glyph name="Idotaccent" format="2">
	<advance width="314"/>
	<unicode hex="0130"/>
	<note>
		Idotaccent
	</note>
	<outline>
		<contour>
			<point x="305" y="901" type="curve" smooth="yes"/>
			<point x="249" y="901"/>
			<point x="205" y="867"/>
			<point x="193" y="813" type="curve" smooth="yes"/>
			<point x="182" y="759"/>
			<point x="212" y="725"/>
			<point x="268" y="725" type="curve" smooth="yes"/>
			<point x="324" y="725"/>
			<point x="368" y="759"/>
			<point x="379" y="813" type="curve" smooth="yes"/>
			<point x="391" y="867"/>
			<point x="361" y="901"/>
		</contour>
		<contour>
			<point x="209" y="22"/>
			<point x="217" y="61" type="curve" smooth="yes"/>
			<point x="329" y="593" type="line" smooth="yes"/>
			<point x="330" y="598"/>
			<point x="331" y="605"/>
			<point x="331" y="611" type="curve" smooth="yes"/>
			<point x="331" y="660"/>
			<point x="292" y="699"/>
			<point x="243" y="699" type="curve" smooth="yes"/>
			<point x="201" y="699"/>
			<point x="165" y="669"/>
			<point x="157" y="629" type="curve" smooth="yes"/>
			<point x="45" y="97" type="line" smooth="yes"/>
			<point x="44" y="92"/>
			<point x="43" y="85"/>
			<point x="43" y="79" type="curve" smooth="yes"/>
			<point x="43" y="30"/>
			<point x="82" y="-9"/>
			<point x="131" y="-9" type="curve" smooth="yes"/>
			<point x="173" y="-9"/>
		</contour>
	</outline>
</glyph>
<glyph name="IJ" format="2">
	<advance width="952"/>
	<unicode hex="0132"/>
	<note>
		IJ
	</note>
	<outline>
		<contour>
			<point x="209" y="22"/>
			<point x="217" y="61" type="curve" smooth="yes"/>
			<point x="329" y="593" type="line" smooth="yes"/>
			<point x="330" y="598"/>
			<point x="331" y="605"/>
			<point x="331" y="611" type="curve" smooth="yes"/>
			<point x="331" y="660"/>
			<point x="292" y="699"/>
			<point x="243" y="699" type="curve" smooth="yes"/>
			<point x="201" y="699"/>
			<point x="165" y="669"/>
			<point x="157" y="629" type="curve" smooth="yes"/>
			<point x="45" y="97" type="line" smooth="yes"/>
			<point x="44" y="92"/>
			<point x="43" y="85"/>
			<point x="43" y="79" type="curve" smooth="yes"/>
			<point x="43" y="30"/>
			<point x="82" y="-9"/>
			<point x="131" y="-9" type="curve" smooth="yes"/>
			<point x="173" y="-9"/>
		</contour>
		<contour>
			<point x="907" y="299" type="curve" smooth="yes"/>
			<point x="969" y="593" type="line" smooth="yes"/>
			<point x="970" y="599"/>
			<point x="971" y="605"/>
			<point x="971" y="611" type="curve" smooth="yes"/>
			<point x="971" y="660"/>
			<point x="932" y="699"/>
			<point x="883" y="699" type="curve" smooth="yes"/>
			<point x="841" y="699"/>
			<point x="805" y="669"/>
			<point x="797" y="629" type="curve" smooth="yes"/>
			<point x="721" y="271" type="line" smooth="yes"/>
			<point x="717" y="250"/>
			<point x="712" y="228"/>
			<point x="705" y="205" type="curve" smooth="yes"/>
			<point x="689" y="150"/>
			<point x="656" y="118"/>
			<point x="606" y="118" type="curve" smooth="yes"/>
			<point x="571" y="118"/>
			<point x="545" y="130"/>
			<point x="537" y="167" type="curve" smooth="yes"/>
			<point x="526" y="215"/>
			<point x="534" y="256"/>
			<point x="493" y="280" type="curve" smooth="yes"/>
			<point x="477" y="290"/>
			<point x="458" y="295"/>
			<point x="437" y="295" type="curve" smooth="yes"/>
			<point x="417" y="295"/>
			<point x="402" y="287"/>
			<point x="389" y="276" type="curve" smooth="yes"/>
			<point x="360" y="249"/>
			<point x="351" y="218"/>
			<point x="350" y="173" type="curve" smooth="yes"/>
			<point x="349" y="58"/>
			<point x="413" y="-14"/>
			<point x="573" y="-14" type="curve" smooth="yes"/>
			<point x="752" y="-14"/>
			<point x="849" y="73"/>
			<point x="882" y="194" type="curve" smooth="yes"/>
			<point x="896" y="245"/>
			<point x="900" y="267"/>
		</contour>
	</outline>
</glyph>
<glyph name="Lacute" format="2">
	<advance width="628"/>
	<unicode hex="0139"/>
	<note>
		Lacute
	</note>
	<outline>
		<contour>
			<point x="288" y="726"/>
			<point x="289" y="727" type="curve" smooth="yes"/>
			<point x="377" y="801"/>
			<point x="370" y="868"/>
			<point x="370" y="868" type="curve" smooth="yes"/>
			<point x="333" y="861"/>
			<point x="299" y="842"/>
			<point x="277" y="813" type="curve" smooth="yes"/>
			<point x="251" y="778"/>
			<point x="288" y="726"/>
			<point x="288" y="726" type="curve"/>
			<point x="288" y="726"/>
		</contour>
		<contour>
			<point x="543" y="152"/>
			<point x="501" y="152" type="curve" smooth="yes"/>
			<point x="236" y="152" type="line"/>
			<point x="329" y="593" type="line" smooth="yes"/>
			<point x="330" y="598"/>
			<point x="331" y="605"/>
			<point x="331" y="611" type="curve" smooth="yes"/>
			<point x="331" y="660"/>
			<point x="292" y="699"/>
			<point x="243" y="699" type="curve" smooth="yes"/>
			<point x="201" y="699"/>
			<point x="165" y="668"/>
			<point x="157" y="629" type="curve" smooth="yes"/>
			<point x="46" y="104" type="line" smooth="yes"/>
			<point x="32" y="39"/>
			<point x="64" y="0"/>
			<point x="130" y="0" type="curve" smooth="yes"/>
			<point x="501" y="0" type="line" smooth="yes"/>
			<point x="543" y="0"/>
			<point x="577" y="34"/>
			<point x="577" y="76" type="curve" smooth="yes"/>
			<point x="577" y="118"/>
		</contour>
	</outline>
</glyph>
<glyph name="lacute" format="2">
	<advance width="305"/>
	<unicode hex="013A"/>
	<note>
		lacute
	</note>
	<outline>
		<contour>
			<point x="260" y="770"/>
			<point x="261" y="771" type="curve" smooth="yes"/>
			<point x="349" y="845"/>
			<point x="343" y="912"/>
			<point x="343" y="912" type="curve" smooth="yes"/>
			<point x="305" y="906"/>
			<point x="271" y="885"/>
			<point x="249" y="857" type="curve" smooth="yes"/>
			<point x="223" y="822"/>
			<point x="260" y="770"/>
			<point x="260" y="770" type="curve"/>
			<point x="260" y="770"/>
		</contour>
		<contour>
			<point x="214" y="192" type="curve" smooth="yes"/>
			<point x="309" y="638" type="line" smooth="yes"/>
			<point x="310" y="644"/>
			<point x="311" y="650"/>
			<point x="311" y="656" type="curve" smooth="yes"/>
			<point x="311" y="705"/>
			<point x="272" y="744"/>
			<point x="223" y="744" type="curve" smooth="yes"/>
			<point x="181" y="744"/>
			<point x="145" y="713"/>
			<point x="137" y="674" type="curve" smooth="yes"/>
			<point x="34" y="189" type="line" smooth="yes"/>
			<point x="25" y="149"/>
			<point x="20" y="122"/>
			<point x="16" y="94" type="curve" smooth="yes"/>
			<point x="5" y="23"/>
			<point x="45" y="-10"/>
			<point x="128" y="-10" type="curve" smooth="yes"/>
			<point x="151" y="-10"/>
			<point x="171" y="-9"/>
			<point x="192" y="-9" type="curve" smooth="yes"/>
			<point x="227" y="-8"/>
			<point x="255" y="22"/>
			<point x="255" y="57" type="curve" smooth="yes"/>
			<point x="255" y="84"/>
			<point x="240" y="111"/>
			<point x="217" y="121" type="curve" smooth="yes"/>
			<point x="207" y="125"/>
			<point x="205" y="132"/>
			<point x="206" y="143" type="curve" smooth="yes"/>
			<point x="207" y="156"/>
			<point x="209" y="167"/>
		</contour>
	</outline>
</glyph>
<glyph name="uni013B" format="2">
	<advance width="628"/>
	<unicode hex="013B"/>
	<note>
		Lcommaaccent
	</note>
	<outline>
		<contour>
			<point x="543" y="152"/>
			<point x="501" y="152" type="curve" smooth="yes"/>
			<point x="236" y="152" type="line"/>
			<point x="329" y="593" type="line" smooth="yes"/>
			<point x="330" y="598"/>
			<point x="331" y="605"/>
			<point x="331" y="611" type="curve" smooth="yes"/>
			<point x="331" y="660"/>
			<point x="292" y="699"/>
			<point x="243" y="699" type="curve" smooth="yes"/>
			<point x="201" y="699"/>
			<point x="165" y="668"/>
			<point x="157" y="629" type="curve" smooth="yes"/>
			<point x="46" y="104" type="line" smooth="yes"/>
			<point x="32" y="39"/>
			<point x="64" y="0"/>
			<point x="130" y="0" type="curve" smooth="yes"/>
			<point x="501" y="0" type="line" smooth="yes"/>
			<point x="543" y="0"/>
			<point x="577" y="34"/>
			<point x="577" y="76" type="curve" smooth="yes"/>
			<point x="577" y="118"/>
		</contour>
		<contour>
			<point x="237" y="-33"/>
			<point x="222" y="-55" type="curve" smooth="yes"/>
			<point x="150" y="-162" type="line" smooth="yes"/>
			<point x="146" y="-168"/>
			<point x="143" y="-176"/>
			<point x="143" y="-184" type="curve" smooth="yes"/>
			<point x="143" y="-207"/>
			<point x="161" y="-225"/>
			<point x="183" y="-225" type="curve" smooth="yes"/>
			<point x="196" y="-225"/>
			<point x="208" y="-219"/>
			<point x="215" y="-210" type="curve" smooth="yes"/>
			<point x="286" y="-123" type="line" smooth="yes"/>
			<point x="325" y="-74"/>
			<point x="274" y="-6"/>
			<point x="274" y="-6" type="curve" smooth="yes"/>
			<point x="245" y="-6"/>
		</contour>
	</outline>
</glyph>
<glyph name="uni0145" format="2">
	<advance width="794"/>
	<unicode hex="0145"/>
	<note>
		Ncommaaccent
	</note>
	<outline>
		<contour>
			<point x="530" y="0" type="curve" smooth="yes"/>
			<point x="598" y="0" type="line" smooth="yes"/>
			<point x="655" y="0"/>
			<point x="690" y="27"/>
			<point x="702" y="84" type="curve" smooth="yes"/>
			<point x="809" y="593" type="line" smooth="yes"/>
			<point x="810" y="598"/>
			<point x="811" y="605"/>
			<point x="811" y="611" type="curve" smooth="yes"/>
			<point x="811" y="660"/>
			<point x="772" y="699"/>
			<point x="723" y="699" type="curve" smooth="yes"/>
			<point x="681" y="699"/>
			<point x="645" y="669"/>
			<point x="637" y="629" type="curve" smooth="yes"/>
			<point x="588" y="395" type="line" smooth="yes"/>
			<point x="579" y="355"/>
			<point x="565" y="284"/>
			<point x="555" y="214" type="curve"/>
			<point x="424" y="602" type="line" smooth="yes"/>
			<point x="405" y="658"/>
			<point x="351" y="699"/>
			<point x="288" y="699" type="curve" smooth="yes"/>
			<point x="219" y="699"/>
			<point x="162" y="650"/>
			<point x="148" y="585" type="curve" smooth="yes"/>
			<point x="45" y="97" type="line" smooth="yes"/>
			<point x="44" y="92"/>
			<point x="43" y="85"/>
			<point x="43" y="79" type="curve" smooth="yes"/>
			<point x="43" y="30"/>
			<point x="82" y="-9"/>
			<point x="131" y="-9" type="curve" smooth="yes"/>
			<point x="173" y="-9"/>
			<point x="209" y="21"/>
			<point x="217" y="61" type="curve" smooth="yes"/>
			<point x="264" y="285" type="line" smooth="yes"/>
			<point x="273" y="325"/>
			<point x="286" y="386"/>
			<point x="295" y="456" type="curve"/>
			<point x="423" y="77" type="line" smooth="yes"/>
			<point x="441" y="24"/>
			<point x="475" y="0"/>
		</contour>
		<contour>
			<point x="281" y="-210" type="curve" smooth="yes"/>
			<point x="352" y="-123" type="line" smooth="yes"/>
			<point x="391" y="-74"/>
			<point x="340" y="-6"/>
			<point x="340" y="-6" type="curve" smooth="yes"/>
			<point x="311" y="-6"/>
			<point x="303" y="-32"/>
			<point x="288" y="-55" type="curve" smooth="yes"/>
			<point x="216" y="-162" type="line" smooth="yes"/>
			<point x="212" y="-168"/>
			<point x="209" y="-176"/>
			<point x="209" y="-185" type="curve" smooth="yes"/>
			<point x="209" y="-207"/>
			<point x="227" y="-225"/>
			<point x="249" y="-225" type="curve" smooth="yes"/>
			<point x="262" y="-225"/>
			<point x="274" y="-219"/>
		</contour>
	</outline>
</glyph>
<glyph name="Ncaron" format="2">
	<advance width="794"/>
	<unicode hex="0147"/>
	<note>
		Ncaron
	</note>
	<outline>
		<contour>
			<point x="435" y="735"/>
			<point x="469" y="735" type="curve" smooth="yes"/>
			<point x="544" y="735" type="line" smooth="yes"/>
			<point x="590" y="735"/>
			<point x="630" y="769"/>
			<point x="635" y="815" type="curve" smooth="yes"/>
			<point x="635" y="819"/>
			<point x="636" y="823"/>
			<point x="636" y="827" type="curve" smooth="yes"/>
			<point x="636" y="850"/>
			<point x="617" y="869"/>
			<point x="594" y="869" type="curve" smooth="yes"/>
			<point x="579" y="869"/>
			<point x="565" y="862"/>
			<point x="558" y="850" type="curve" smooth="yes"/>
			<point x="517" y="784" type="line"/>
			<point x="508" y="822" type="line" smooth="yes"/>
			<point x="502" y="847"/>
			<point x="489" y="860"/>
			<point x="469" y="860" type="curve" smooth="yes"/>
			<point x="435" y="860"/>
			<point x="406" y="832"/>
			<point x="406" y="797" type="curve" smooth="yes"/>
			<point x="406" y="763"/>
		</contour>
		<contour>
			<point x="702" y="84" type="curve" smooth="yes"/>
			<point x="809" y="593" type="line" smooth="yes"/>
			<point x="810" y="598"/>
			<point x="811" y="605"/>
			<point x="811" y="611" type="curve" smooth="yes"/>
			<point x="811" y="660"/>
			<point x="772" y="699"/>
			<point x="723" y="699" type="curve" smooth="yes"/>
			<point x="681" y="699"/>
			<point x="645" y="669"/>
			<point x="637" y="629" type="curve" smooth="yes"/>
			<point x="588" y="395" type="line" smooth="yes"/>
			<point x="579" y="355"/>
			<point x="565" y="284"/>
			<point x="555" y="214" type="curve"/>
			<point x="424" y="602" type="line" smooth="yes"/>
			<point x="405" y="658"/>
			<point x="351" y="699"/>
			<point x="288" y="699" type="curve" smooth="yes"/>
			<point x="219" y="699"/>
			<point x="162" y="650"/>
			<point x="148" y="585" type="curve" smooth="yes"/>
			<point x="45" y="97" type="line" smooth="yes"/>
			<point x="44" y="92"/>
			<point x="43" y="85"/>
			<point x="43" y="79" type="curve" smooth="yes"/>
			<point x="43" y="30"/>
			<point x="82" y="-9"/>
			<point x="131" y="-9" type="curve" smooth="yes"/>
			<point x="173" y="-9"/>
			<point x="209" y="21"/>
			<point x="217" y="61" type="curve" smooth="yes"/>
			<point x="264" y="285" type="line" smooth="yes"/>
			<point x="273" y="325"/>
			<point x="286" y="386"/>
			<point x="295" y="456" type="curve"/>
			<point x="423" y="77" type="line" smooth="yes"/>
			<point x="441" y="24"/>
			<point x="475" y="0"/>
			<point x="530" y="0" type="curve" smooth="yes"/>
			<point x="598" y="0" type="line" smooth="yes"/>
			<point x="655" y="0"/>
			<point x="690" y="27"/>
		</contour>
	</outline>
</glyph>
<glyph name="Eng" format="2">
	<advance width="794"/>
	<unicode hex="014A"/>
	<note>
		Eng
	</note>
	<outline>
		<contour>
			<point x="672" y="-57" type="curve" smooth="yes"/>
			<point x="809" y="593" type="line" smooth="yes"/>
			<point x="810" y="598"/>
			<point x="811" y="605"/>
			<point x="811" y="611" type="curve" smooth="yes"/>
			<point x="811" y="660"/>
			<point x="772" y="699"/>
			<point x="723" y="699" type="curve" smooth="yes"/>
			<point x="681" y="699"/>
			<point x="645" y="668"/>
			<point x="637" y="629" type="curve" smooth="yes"/>
			<point x="596" y="435" type="line" smooth="yes"/>
			<point x="588" y="395"/>
			<point x="574" y="324"/>
			<point x="564" y="254" type="curve"/>
			<point x="427" y="606" type="line" smooth="yes"/>
			<point x="406" y="661"/>
			<point x="353" y="699"/>
			<point x="291" y="699" type="curve" smooth="yes"/>
			<point x="220" y="699"/>
			<point x="161" y="650"/>
			<point x="147" y="583" type="curve" smooth="yes"/>
			<point x="45" y="97" type="line" smooth="yes"/>
			<point x="44" y="92"/>
			<point x="43" y="85"/>
			<point x="43" y="79" type="curve" smooth="yes"/>
			<point x="43" y="30"/>
			<point x="82" y="-9"/>
			<point x="131" y="-9" type="curve" smooth="yes"/>
			<point x="173" y="-9"/>
			<point x="209" y="21"/>
			<point x="217" y="61" type="curve" smooth="yes"/>
			<point x="264" y="285" type="line" smooth="yes"/>
			<point x="273" y="325"/>
			<point x="286" y="386"/>
			<point x="295" y="456" type="curve"/>
			<point x="499" y="-20" type="line"/>
			<point x="497" y="-33" type="line" smooth="yes"/>
			<point x="492" y="-58"/>
			<point x="479" y="-75"/>
			<point x="442" y="-84" type="curve" smooth="yes"/>
			<point x="412" y="-91"/>
			<point x="388" y="-118"/>
			<point x="388" y="-150" type="curve" smooth="yes"/>
			<point x="388" y="-193"/>
			<point x="426" y="-221"/>
			<point x="462" y="-218" type="curve" smooth="yes"/>
			<point x="583" y="-208"/>
			<point x="639" y="-170"/>
			<point x="662" y="-98" type="curve" smooth="yes"/>
			<point x="666" y="-84"/>
			<point x="668" y="-75"/>
		</contour>
	</outline>
</glyph>
<glyph name="eng" format="2">
	<advance width="644"/>
	<unicode hex="014B"/>
	<note>
		eng
	</note>
	<outline>
		<contour>
			<point x="620" y="403" type="curve" smooth="yes"/>
			<point x="626" y="496"/>
			<point x="572" y="548"/>
			<point x="462" y="548" type="curve" smooth="yes"/>
			<point x="436" y="548"/>
			<point x="413" y="545"/>
			<point x="391" y="539" type="curve" smooth="yes"/>
			<point x="349" y="528"/>
			<point x="325" y="505"/>
			<point x="295" y="473" type="curve" smooth="yes"/>
			<point x="274" y="451" type="line"/>
			<point x="276" y="499"/>
			<point x="239" y="544"/>
			<point x="185" y="544" type="curve" smooth="yes"/>
			<point x="141" y="544"/>
			<point x="106" y="513"/>
			<point x="98" y="473" type="curve" smooth="yes"/>
			<point x="19" y="97" type="line" smooth="yes"/>
			<point x="18" y="92"/>
			<point x="17" y="85"/>
			<point x="17" y="79" type="curve" smooth="yes"/>
			<point x="17" y="30"/>
			<point x="56" y="-9"/>
			<point x="105" y="-9" type="curve" smooth="yes"/>
			<point x="147" y="-9"/>
			<point x="183" y="21"/>
			<point x="191" y="61" type="curve" smooth="yes"/>
			<point x="231" y="252" type="line" smooth="yes"/>
			<point x="257" y="373"/>
			<point x="307" y="426"/>
			<point x="362" y="426" type="curve" smooth="yes"/>
			<point x="416" y="426"/>
			<point x="438" y="396"/>
			<point x="431" y="345" type="curve" smooth="yes"/>
			<point x="427" y="318"/>
			<point x="421" y="289"/>
			<point x="417" y="272" type="curve" smooth="yes"/>
			<point x="359" y="-3" type="line" smooth="yes"/>
			<point x="357" y="-13"/>
			<point x="354" y="-26"/>
			<point x="351" y="-35" type="curve" smooth="yes"/>
			<point x="343" y="-58"/>
			<point x="328" y="-70"/>
			<point x="302" y="-74" type="curve" smooth="yes"/>
			<point x="271" y="-79"/>
			<point x="247" y="-107"/>
			<point x="247" y="-140" type="curve" smooth="yes"/>
			<point x="247" y="-182"/>
			<point x="283" y="-208"/>
			<point x="318" y="-205" type="curve" smooth="yes"/>
			<point x="454" y="-194"/>
			<point x="499" y="-149"/>
			<point x="523" y="-75" type="curve" smooth="yes"/>
			<point x="527" y="-61"/>
			<point x="529" y="-52"/>
			<point x="532" y="-34" type="curve" smooth="yes"/>
			<point x="604" y="302" type="line" smooth="yes"/>
			<point x="613" y="345"/>
			<point x="619" y="376"/>
		</contour>
	</outline>
</glyph>
<glyph name="ohungarumlaut" format="2">
	<advance width="622"/>
	<unicode hex="0151"/>
	<note>
		ohungarumlaut
	</note>
	<outline>
		<contour>
			<point x="276" y="562"/>
			<point x="277" y="563" type="curve" smooth="yes"/>
			<point x="365" y="637"/>
			<point x="359" y="704"/>
			<point x="359" y="704" type="curve" smooth="yes"/>
			<point x="321" y="698"/>
			<point x="287" y="677"/>
			<point x="265" y="649" type="curve" smooth="yes"/>
			<point x="239" y="614"/>
			<point x="276" y="562"/>
			<point x="276" y="562" type="curve"/>
			<point x="276" y="562"/>
		</contour>
		<contour>
			<point x="465" y="633"/>
			<point x="465" y="589"/>
			<point x="575" y="629"/>
			<point x="582" y="642"/>
			<point x="582" y="658" type="curve" smooth="yes"/>
			<point x="582" y="684"/>
			<point x="561" y="705"/>
			<point x="535" y="705" type="curve" smooth="yes"/>
			<point x="529" y="705"/>
			<point x="524" y="704"/>
			<point x="519" y="702" type="curve" smooth="yes"/>
			<point x="489" y="691"/>
			<point x="465" y="665"/>
			<point x="465" y="633" type="curve" smooth="yes"/>
			<point x="465" y="633"/>
		</contour>
		<contour>
			<point x="371" y="548" type="curve" smooth="yes"/>
			<point x="196" y="548"/>
			<point x="61" y="439"/>
			<point x="24" y="267" type="curve" smooth="yes"/>
			<point x="-12" y="96"/>
			<point x="77" y="-14"/>
			<point x="252" y="-14" type="curve" smooth="yes"/>
			<point x="427" y="-14"/>
			<point x="562" y="96"/>
			<point x="598" y="267" type="curve" smooth="yes"/>
			<point x="635" y="439"/>
			<point x="546" y="548"/>
		</contour>
		<contour>
			<point x="278" y="108" type="curve" smooth="yes"/>
			<point x="214" y="108"/>
			<point x="186" y="161"/>
			<point x="208" y="267" type="curve" smooth="yes"/>
			<point x="231" y="374"/>
			<point x="281" y="426"/>
			<point x="345" y="426" type="curve" smooth="yes"/>
			<point x="409" y="426"/>
			<point x="437" y="374"/>
			<point x="414" y="267" type="curve" smooth="yes"/>
			<point x="392" y="161"/>
			<point x="342" y="108"/>
		</contour>
	</outline>
</glyph>
<glyph name="oe" format="2">
	<advance width="991"/>
	<unicode hex="0153"/>
	<note>
		oe
	</note>
	<outline>
		<contour>
			<point x="969" y="274" type="curve" smooth="yes"/>
			<point x="998" y="412"/>
			<point x="937" y="548"/>
			<point x="768" y="548" type="curve" smooth="yes"/>
			<point x="685" y="548"/>
			<point x="608" y="517"/>
			<point x="547" y="447" type="curve"/>
			<point x="515" y="518"/>
			<point x="449" y="548"/>
			<point x="371" y="548" type="curve" smooth="yes"/>
			<point x="196" y="548"/>
			<point x="61" y="439"/>
			<point x="24" y="267" type="curve" smooth="yes"/>
			<point x="-12" y="96"/>
			<point x="77" y="-14"/>
			<point x="252" y="-14" type="curve" smooth="yes"/>
			<point x="328" y="-14"/>
			<point x="403" y="13"/>
			<point x="463" y="79" type="curve"/>
			<point x="496" y="11"/>
			<point x="561" y="-14"/>
			<point x="635" y="-14" type="curve" smooth="yes"/>
			<point x="717" y="-14"/>
			<point x="792" y="12"/>
			<point x="850" y="63" type="curve" smooth="yes"/>
			<point x="865" y="76"/>
			<point x="875" y="95"/>
			<point x="875" y="116" type="curve" smooth="yes"/>
			<point x="875" y="155"/>
			<point x="843" y="186"/>
			<point x="805" y="186" type="curve" smooth="yes"/>
			<point x="780" y="186"/>
			<point x="759" y="172"/>
			<point x="747" y="153" type="curve" smooth="yes"/>
			<point x="728" y="123"/>
			<point x="697" y="108"/>
			<point x="658" y="108" type="curve" smooth="yes"/>
			<point x="607" y="108"/>
			<point x="573" y="133"/>
			<point x="583" y="222" type="curve"/>
			<point x="871" y="222" type="line" smooth="yes"/>
			<point x="927" y="222"/>
			<point x="969" y="274"/>
		</contour>
		<contour>
			<point x="278" y="108" type="curve" smooth="yes"/>
			<point x="214" y="108"/>
			<point x="186" y="161"/>
			<point x="208" y="267" type="curve" smooth="yes"/>
			<point x="231" y="374"/>
			<point x="281" y="426"/>
			<point x="345" y="426" type="curve" smooth="yes"/>
			<point x="409" y="426"/>
			<point x="437" y="374"/>
			<point x="414" y="267" type="curve" smooth="yes"/>
			<point x="392" y="161"/>
			<point x="342" y="108"/>
		</contour>
		<contour>
			<point x="793" y="332" type="curve"/>
			<point x="612" y="332" type="line"/>
			<point x="639" y="397"/>
			<point x="678" y="426"/>
			<point x="724" y="426" type="curve" smooth="yes"/>
			<point x="773" y="426"/>
			<point x="797" y="394"/>
		</contour>
	</outline>
</glyph>
<glyph name="uni0156" format="2">
	<advance width="682"/>
	<unicode hex="0156"/>
	<note>
		Rcommaaccent
	</note>
	<outline>
		<contour>
			<point x="597" y="168" type="curve" smooth="yes"/>
			<point x="605" y="251"/>
			<point x="590" y="304"/>
			<point x="524" y="330" type="curve"/>
			<point x="622" y="357"/>
			<point x="681" y="415"/>
			<point x="699" y="502" type="curve" smooth="yes"/>
			<point x="725" y="624"/>
			<point x="649" y="673"/>
			<point x="551" y="685" type="curve" smooth="yes"/>
			<point x="515" y="689"/>
			<point x="487" y="690"/>
			<point x="444" y="690" type="curve" smooth="yes"/>
			<point x="256" y="690" type="line" smooth="yes"/>
			<point x="199" y="690"/>
			<point x="164" y="663"/>
			<point x="152" y="606" type="curve" smooth="yes"/>
			<point x="45" y="97" type="line" smooth="yes"/>
			<point x="44" y="92"/>
			<point x="43" y="85"/>
			<point x="43" y="79" type="curve" smooth="yes"/>
			<point x="43" y="30"/>
			<point x="82" y="-9"/>
			<point x="131" y="-9" type="curve" smooth="yes"/>
			<point x="173" y="-9"/>
			<point x="209" y="21"/>
			<point x="217" y="61" type="curve" smooth="yes"/>
			<point x="259" y="262" type="line"/>
			<point x="299" y="262" type="line" smooth="yes"/>
			<point x="319" y="262"/>
			<point x="336" y="262"/>
			<point x="356" y="261" type="curve" smooth="yes"/>
			<point x="402" y="258"/>
			<point x="422" y="214"/>
			<point x="415" y="138" type="curve" smooth="yes"/>
			<point x="413" y="118"/>
			<point x="413" y="100"/>
			<point x="413" y="81" type="curve" smooth="yes"/>
			<point x="413" y="31"/>
			<point x="453" y="-9"/>
			<point x="503" y="-9" type="curve" smooth="yes"/>
			<point x="558" y="-9"/>
			<point x="597" y="37"/>
			<point x="595" y="86" type="curve" smooth="yes"/>
			<point x="593" y="110"/>
			<point x="594" y="137"/>
		</contour>
		<contour>
			<point x="352" y="392" type="curve" smooth="yes"/>
			<point x="287" y="392" type="line"/>
			<point x="321" y="550" type="line"/>
			<point x="391" y="550" type="line" smooth="yes"/>
			<point x="410" y="550"/>
			<point x="426" y="550"/>
			<point x="438" y="549" type="curve" smooth="yes"/>
			<point x="484" y="545"/>
			<point x="517" y="529"/>
			<point x="505" y="471" type="curve" smooth="yes"/>
			<point x="492" y="413"/>
			<point x="447" y="397"/>
			<point x="400" y="393" type="curve" smooth="yes"/>
			<point x="387" y="392"/>
			<point x="371" y="392"/>
		</contour>
		<contour>
			<point x="251" y="-33"/>
			<point x="236" y="-55" type="curve" smooth="yes"/>
			<point x="164" y="-162" type="line" smooth="yes"/>
			<point x="160" y="-168"/>
			<point x="157" y="-176"/>
			<point x="157" y="-184" type="curve" smooth="yes"/>
			<point x="157" y="-207"/>
			<point x="175" y="-225"/>
			<point x="197" y="-225" type="curve" smooth="yes"/>
			<point x="210" y="-225"/>
			<point x="222" y="-219"/>
			<point x="229" y="-210" type="curve" smooth="yes"/>
			<point x="300" y="-123" type="line" smooth="yes"/>
			<point x="339" y="-74"/>
			<point x="288" y="-6"/>
			<point x="288" y="-6" type="curve" smooth="yes"/>
			<point x="259" y="-6"/>
		</contour>
	</outline>
</glyph>
<glyph name="Sacute" format="2">
	<advance width="626"/>
	<unicode hex="015A"/>
	<note>
		Sacute
	</note>
	<outline>
		<contour>
			<point x="444" y="726"/>
			<point x="445" y="727" type="curve" smooth="yes"/>
			<point x="533" y="801"/>
			<point x="526" y="868"/>
			<point x="526" y="868" type="curve" smooth="yes"/>
			<point x="489" y="861"/>
			<point x="455" y="842"/>
			<point x="433" y="813" type="curve" smooth="yes"/>
			<point x="407" y="778"/>
			<point x="444" y="726"/>
			<point x="444" y="726" type="curve"/>
			<point x="444" y="726"/>
		</contour>
		<contour>
			<point x="415" y="704" type="curve" smooth="yes"/>
			<point x="278" y="704"/>
			<point x="138" y="629"/>
			<point x="110" y="496" type="curve" smooth="yes"/>
			<point x="81" y="358"/>
			<point x="162" y="309"/>
			<point x="311" y="270" type="curve" smooth="yes"/>
			<point x="392" y="249"/>
			<point x="411" y="218"/>
			<point x="403" y="182" type="curve" smooth="yes"/>
			<point x="395" y="144"/>
			<point x="352" y="118"/>
			<point x="302" y="118" type="curve" smooth="yes"/>
			<point x="263" y="118"/>
			<point x="228" y="132"/>
			<point x="212" y="168" type="curve" smooth="yes"/>
			<point x="198" y="200"/>
			<point x="165" y="223"/>
			<point x="127" y="223" type="curve" smooth="yes"/>
			<point x="76" y="223"/>
			<point x="35" y="181"/>
			<point x="35" y="130" type="curve" smooth="yes"/>
			<point x="35" y="113"/>
			<point x="36" y="94"/>
			<point x="44" y="81" type="curve" smooth="yes"/>
			<point x="82" y="15"/>
			<point x="165" y="-14"/>
			<point x="279" y="-14" type="curve" smooth="yes"/>
			<point x="418" y="-14"/>
			<point x="565" y="56"/>
			<point x="594" y="194" type="curve" smooth="yes"/>
			<point x="616" y="300"/>
			<point x="571" y="376"/>
			<point x="426" y="412" type="curve" smooth="yes"/>
			<point x="318" y="439"/>
			<point x="292" y="466"/>
			<point x="301" y="510" type="curve" smooth="yes"/>
			<point x="310" y="552"/>
			<point x="342" y="572"/>
			<point x="383" y="572" type="curve" smooth="yes"/>
			<point x="421" y="572"/>
			<point x="444" y="556"/>
			<point x="454" y="527" type="curve" smooth="yes"/>
			<point x="466" y="492"/>
			<point x="501" y="465"/>
			<point x="541" y="465" type="curve" smooth="yes"/>
			<point x="592" y="465"/>
			<point x="633" y="507"/>
			<point x="633" y="557" type="curve" smooth="yes"/>
			<point x="633" y="569"/>
			<point x="632" y="580"/>
			<point x="628" y="590" type="curve" smooth="yes"/>
			<point x="601" y="660"/>
			<point x="536" y="704"/>
		</contour>
	</outline>
</glyph>
<glyph name="scedilla" format="2">
	<advance width="528"/>
	<unicode hex="015F"/>
	<note>
		scedilla
	</note>
	<outline>
		<contour>
			<point x="488" y="153" type="curve" smooth="yes"/>
			<point x="510" y="256"/>
			<point x="450" y="298"/>
			<point x="358" y="322" type="curve" smooth="yes"/>
			<point x="261" y="347"/>
			<point x="242" y="367"/>
			<point x="248" y="397" type="curve" smooth="yes"/>
			<point x="253" y="420"/>
			<point x="274" y="436"/>
			<point x="299" y="436" type="curve" smooth="yes"/>
			<point x="318" y="436"/>
			<point x="331" y="428"/>
			<point x="338" y="412" type="curve" smooth="yes"/>
			<point x="350" y="386"/>
			<point x="377" y="367"/>
			<point x="408" y="367" type="curve" smooth="yes"/>
			<point x="450" y="367"/>
			<point x="485" y="401"/>
			<point x="485" y="443" type="curve" smooth="yes"/>
			<point x="485" y="471"/>
			<point x="476" y="504"/>
			<point x="455" y="518" type="curve" smooth="yes"/>
			<point x="425" y="537"/>
			<point x="385" y="548"/>
			<point x="334" y="548" type="curve" smooth="yes"/>
			<point x="192" y="548"/>
			<point x="86" y="482"/>
			<point x="64" y="376" type="curve" smooth="yes"/>
			<point x="44" y="285"/>
			<point x="95" y="238"/>
			<point x="192" y="214" type="curve" smooth="yes"/>
			<point x="282" y="192"/>
			<point x="312" y="173"/>
			<point x="305" y="139" type="curve" smooth="yes"/>
			<point x="299" y="111"/>
			<point x="272" y="98"/>
			<point x="240" y="98" type="curve" smooth="yes"/>
			<point x="215" y="98"/>
			<point x="194" y="110"/>
			<point x="183" y="133" type="curve" smooth="yes"/>
			<point x="171" y="159"/>
			<point x="144" y="177"/>
			<point x="113" y="177" type="curve" smooth="yes"/>
			<point x="70" y="177"/>
			<point x="35" y="142"/>
			<point x="35" y="99" type="curve" smooth="yes"/>
			<point x="35" y="70"/>
			<point x="43" y="33"/>
			<point x="65" y="20" type="curve" smooth="yes"/>
			<point x="90" y="5"/>
			<point x="122" y="-5"/>
			<point x="158" y="-10" type="curve"/>
			<point x="131" y="-49" type="line" smooth="yes"/>
			<point x="115" y="-72"/>
			<point x="194" y="-114"/>
			<point x="194" y="-114" type="curve" smooth="yes"/>
			<point x="191" y="-132"/>
			<point x="172" y="-141"/>
			<point x="129" y="-141" type="curve" smooth="yes"/>
			<point x="122" y="-141"/>
			<point x="112" y="-141"/>
			<point x="101" y="-139" type="curve" smooth="yes"/>
			<point x="82" y="-137"/>
			<point x="70" y="-146"/>
			<point x="65" y="-169" type="curve" smooth="yes"/>
			<point x="60" y="-192"/>
			<point x="113" y="-210"/>
			<point x="113" y="-210" type="curve" smooth="yes"/>
			<point x="205" y="-210"/>
			<point x="287" y="-188"/>
			<point x="301" y="-119" type="curve" smooth="yes"/>
			<point x="311" y="-74"/>
			<point x="284" y="-49"/>
			<point x="223" y="-42" type="curve"/>
			<point x="243" y="-13" type="line"/>
			<point x="361" y="-7"/>
			<point x="466" y="47"/>
		</contour>
	</outline>
</glyph>
<glyph name="uni0162" format="2">
	<advance width="632"/>
	<unicode hex="0162"/>
	<note>
		Tcedilla
	</note>
	<outline>
		<contour>
			<point x="282" y="-42" type="curve"/>
			<point x="311" y="0" type="line"/>
			<point x="337" y="0" type="line" smooth="yes"/>
			<point x="354" y="0"/>
			<point x="368" y="27"/>
			<point x="380" y="84" type="curve" smooth="yes"/>
			<point x="479" y="550" type="line"/>
			<point x="655" y="550" type="line" smooth="yes"/>
			<point x="693" y="550"/>
			<point x="725" y="581"/>
			<point x="725" y="620" type="curve" smooth="yes"/>
			<point x="725" y="659"/>
			<point x="693" y="690"/>
			<point x="655" y="690" type="curve" smooth="yes"/>
			<point x="152" y="690" type="line" smooth="yes"/>
			<point x="114" y="690"/>
			<point x="82" y="659"/>
			<point x="82" y="620" type="curve" smooth="yes"/>
			<point x="82" y="581"/>
			<point x="114" y="550"/>
			<point x="152" y="550" type="curve" smooth="yes"/>
			<point x="299" y="550" type="line"/>
			<point x="204" y="104" type="line" smooth="yes"/>
			<point x="190" y="39"/>
			<point x="198" y="0"/>
			<point x="224" y="0" type="curve"/>
			<point x="193" y="-44" type="line" smooth="yes"/>
			<point x="174" y="-70"/>
			<point x="253" y="-114"/>
			<point x="253" y="-114" type="curve" smooth="yes"/>
			<point x="250" y="-132"/>
			<point x="231" y="-141"/>
			<point x="188" y="-141" type="curve" smooth="yes"/>
			<point x="181" y="-141"/>
			<point x="171" y="-141"/>
			<point x="160" y="-139" type="curve" smooth="yes"/>
			<point x="141" y="-137"/>
			<point x="129" y="-146"/>
			<point x="124" y="-169" type="curve" smooth="yes"/>
			<point x="119" y="-192"/>
			<point x="172" y="-210"/>
			<point x="172" y="-210" type="curve" smooth="yes"/>
			<point x="264" y="-210"/>
			<point x="346" y="-188"/>
			<point x="360" y="-119" type="curve" smooth="yes"/>
			<point x="370" y="-74"/>
			<point x="343" y="-49"/>
		</contour>
	</outline>
</glyph>
<glyph name="Tcaron" format="2">
	<advance width="632"/>
	<unicode hex="0164"/>
	<note>
		Tcaron
	</note>
	<outline>
		<contour>
			<point x="358" y="735"/>
			<point x="392" y="735" type="curve" smooth="yes"/>
			<point x="467" y="735" type="line" smooth="yes"/>
			<point x="513" y="735"/>
			<point x="553" y="769"/>
			<point x="558" y="815" type="curve" smooth="yes"/>
			<point x="558" y="819"/>
			<point x="559" y="823"/>
			<point x="559" y="827" type="curve" smooth="yes"/>
			<point x="559" y="850"/>
			<point x="540" y="869"/>
			<point x="517" y="869" type="curve" smooth="yes"/>
			<point x="502" y="869"/>
			<point x="488" y="862"/>
			<point x="481" y="850" type="curve" smooth="yes"/>
			<point x="440" y="784" type="line"/>
			<point x="431" y="822" type="line" smooth="yes"/>
			<point x="425" y="847"/>
			<point x="412" y="860"/>
			<point x="392" y="860" type="curve" smooth="yes"/>
			<point x="358" y="860"/>
			<point x="329" y="832"/>
			<point x="329" y="797" type="curve" smooth="yes"/>
			<point x="329" y="763"/>
		</contour>
		<contour>
			<point x="479" y="550" type="line"/>
			<point x="655" y="550" type="line" smooth="yes"/>
			<point x="693" y="550"/>
			<point x="725" y="581"/>
			<point x="725" y="620" type="curve" smooth="yes"/>
			<point x="725" y="659"/>
			<point x="693" y="690"/>
			<point x="655" y="690" type="curve" smooth="yes"/>
			<point x="152" y="690" type="line" smooth="yes"/>
			<point x="114" y="690"/>
			<point x="82" y="659"/>
			<point x="82" y="620" type="curve" smooth="yes"/>
			<point x="82" y="581"/>
			<point x="114" y="550"/>
			<point x="152" y="550" type="curve" smooth="yes"/>
			<point x="299" y="550" type="line"/>
			<point x="203" y="97" type="line" smooth="yes"/>
			<point x="202" y="91"/>
			<point x="201" y="85"/>
			<point x="201" y="79" type="curve" smooth="yes"/>
			<point x="201" y="30"/>
			<point x="240" y="-9"/>
			<point x="289" y="-9" type="curve" smooth="yes"/>
			<point x="331" y="-9"/>
			<point x="367" y="21"/>
			<point x="375" y="61" type="curve" smooth="yes"/>
		</contour>
	</outline>
</glyph>
